<?xml version="1.0" encoding="UTF-8" standalone="no"?>
<svg
   xmlns:dc="http://purl.org/dc/elements/1.1/"
   xmlns:cc="http://creativecommons.org/ns#"
   xmlns:rdf="http://www.w3.org/1999/02/22-rdf-syntax-ns#"
   xmlns:svg="http://www.w3.org/2000/svg"
   xmlns="http://www.w3.org/2000/svg"
   xmlns:sodipodi="http://sodipodi.sourceforge.net/DTD/sodipodi-0.dtd"
   xmlns:inkscape="http://www.inkscape.org/namespaces/inkscape"
   sodipodi:docname="bg2.svg"
   inkscape:version="1.0 (4035a4fb49, 2020-05-01)"
   preserveAspectRatio="none"
   id="svg8"
   version="1.1"
   viewBox="0 0 297 138.15"
   height="100%"
   width="100%">
  <defs
     id="defs2" />
  <sodipodi:namedview
     inkscape:document-rotation="0"
     viewbox-height="138.15"
     units="mm"
     showguides="false"
     inkscape:window-maximized="1"
     inkscape:window-y="768"
     inkscape:window-x="0"
     inkscape:window-height="1008"
     inkscape:window-width="1920"
     showgrid="false"
     inkscape:current-layer="layer1"
     inkscape:document-units="mm"
     inkscape:cy="84.63581"
     inkscape:cx="178.64779"
     inkscape:zoom="2"
     inkscape:pageshadow="2"
     inkscape:pageopacity="0.0"
     borderopacity="1.0"
     bordercolor="#666666"
     pagecolor="#ffffff"
     id="base">
    <inkscape:grid
       id="grid840"
       type="xygrid" />
  </sodipodi:namedview>
  <metadata
     id="metadata5">
    <rdf:RDF>
      <cc:Work
         rdf:about="">
        <dc:format>image/svg+xml</dc:format>
        <dc:type
           rdf:resource="http://purl.org/dc/dcmitype/StillImage" />
        <dc:title />
      </cc:Work>
    </rdf:RDF>
  </metadata>
  <g
     transform="translate(0,-128.623)"
     id="layer1"
     inkscape:groupmode="layer"
     inkscape:label="Layer 1">
    <path
       sodipodi:nodetypes="cccacc"
       inkscape:connector-curvature="0"
       id="rect850"
       d="m 0,128.631 296.99906,-0.008 v 94.50613 c 0,0 -97.65373,43.73951 -149.59748,43.63561 C 96.160196,266.66224 2.805e-4,223.12913 2.805e-4,223.12913 Z"
       style="opacity:1;fill:#402d26;fill-opacity:1;stroke:none;stroke-width:21.165;stroke-linejoin:miter;stroke-miterlimit:4;stroke-dasharray:none;stroke-opacity:1" />
    <path
       sodipodi:nodetypes="cssccacc"
       inkscape:connector-curvature="0"
       id="rect819-3-3"
       d="m 2.805e-4,136.04886 c 0,0 34.2393695,24.66302 58.0135495,31.16067 41.40892,11.31737 87.69307,-17.38409 131.1874,-30.61069 57.93819,-17.61899 107.79783,-0.54998 107.79783,-0.54998 v 87.08123 c 0,0 -97.65382,43.73855 -149.59748,43.63465 C 96.160287,266.66225 2.805e-4,223.13009 2.805e-4,223.13009 Z"
       style="opacity:1;fill:#8c6d62;fill-opacity:0.65098;stroke:none;stroke-width:17.2589;stroke-linejoin:miter;stroke-miterlimit:4;stroke-dasharray:none;stroke-opacity:1" />
    <path
       sodipodi:nodetypes="cssccacc"
       inkscape:connector-curvature="0"
       id="rect819-3"
       d="m 296.99906,136.04873 c 0,0 -34.18727,24.66259 -57.96145,31.16015 -41.40892,11.31716 -87.69307,-17.3838 -131.1874,-30.61018 C 49.912021,118.98002 2.768e-4,136.04873 2.768e-4,136.04873 v 87.08136 c 0,0 96.1600092,43.53216 147.4013032,43.63465 51.94366,0.1039 149.59748,-43.63465 149.59748,-43.63465 z"
       style="opacity:1;fill:#8c6d62;fill-opacity:0.65098;stroke:none;stroke-width:17.2588;stroke-linejoin:miter;stroke-miterlimit:4;stroke-dasharray:none;stroke-opacity:1" />
  </g>
</svg>
