<?xml version="1.0" encoding="UTF-8" standalone="no"?>
<svg
   xmlns:dc="http://purl.org/dc/elements/1.1/"
   xmlns:cc="http://creativecommons.org/ns#"
   xmlns:rdf="http://www.w3.org/1999/02/22-rdf-syntax-ns#"
   xmlns:svg="http://www.w3.org/2000/svg"
   xmlns="http://www.w3.org/2000/svg"
   xmlns:sodipodi="http://sodipodi.sourceforge.net/DTD/sodipodi-0.dtd"
   xmlns:inkscape="http://www.inkscape.org/namespaces/inkscape"
   version="1.1"
   id="Layer_1"
   x="0px"
   y="0px"
   viewBox="0 0 512 512"
   xml:space="preserve"
   width="100%"
   height="100%"
   class=""
   sodipodi:docname="camera.svg"
   inkscape:version="0.92.4 5da689c313, 2019-01-14"><metadata
   id="metadata61"><rdf:RDF><cc:Work
       rdf:about=""><dc:format>image/svg+xml</dc:format><dc:type
         rdf:resource="http://purl.org/dc/dcmitype/StillImage" /><dc:title></dc:title></cc:Work></rdf:RDF></metadata><defs
   id="defs59" /><sodipodi:namedview
   pagecolor="#ffffff"
   bordercolor="#666666"
   borderopacity="1"
   objecttolerance="10"
   gridtolerance="10"
   guidetolerance="10"
   inkscape:pageopacity="0"
   inkscape:pageshadow="2"
   inkscape:window-width="1920"
   inkscape:window-height="1011"
   id="namedview57"
   showgrid="false"
   inkscape:pagecheckerboard="true"
   viewbox-width="512"
   inkscape:zoom="0.93464791"
   inkscape:cx="387.69782"
   inkscape:cy="240.72549"
   inkscape:window-x="0"
   inkscape:window-y="768"
   inkscape:window-maximized="1"
   inkscape:current-layer="Layer_1" /><g
   id="g54"
   transform="translate(3.4985,3.498)"><g
     id="g52"><g
       id="g50">
	<g
   id="g32">
		<polyline
   style="fill:#e5e9ea"
   points="104.254,142.764 104.254,62.014 47.004,62.014 47.004,142.764   "
   data-original="#E5E9EA"
   class=""
   id="polyline2" />
		<polyline
   style="fill:#d1d1d1"
   points="73.003,142.764 73.003,62.014 47.004,62.014 47.004,142.764   "
   data-original="#D1D1D1"
   id="polyline4" />
		<path
   style="fill:#be9c91"
   d="m 497.503,160.524 v 261.95 c 0,17.96 -14.56,32.52 -32.52,32.52 H 40.023 c -17.96,0 -32.52,-14.56 -32.52,-32.52 v -261.95 c 0,-17.96 14.56,-32.52 32.52,-32.52 h 64.303 c 13.85,0 26.19,-8.77 30.73,-21.86 l 11.87,-34.26 c 4.54,-13.09 16.87,-21.87 30.73,-21.87 h 189.697 c 13.85,0 26.18,8.78 30.72,21.87 l 11.88,34.26 c 4.54,13.09 16.87,21.86 30.72,21.86 h 24.31 c 17.96,0 32.52,14.56 32.52,32.52 z"
   data-original="#BE9C91"
   class=""
   data-old_color="#FCB65F"
   id="path6"
   inkscape:connector-curvature="0" />
		<path
   style="fill:#6a4f4b"
   d="m 65.523,454.994 h -25.5 c -17.96,0 -32.52,-14.56 -32.52,-32.52 v -261.95 c 0,-17.96 14.56,-32.52 32.52,-32.52 h 23.48 v 0.06 c -17.02,1.05 -30.5,15.18 -30.5,32.46 v 261.95 c 0,17.96 14.56,32.52 32.52,32.52 z"
   data-original="#6A4F4B"
   class=""
   data-old_color="#E29A4B"
   id="path8"
   inkscape:connector-curvature="0" />
		<path
   style="fill:#6a4f4b"
   d="m 203.156,50.014 c -13.86,0 -26.19,8.78 -30.73,21.87 l -11.87,34.26 c -4.54,13.09 -16.88,21.86 -30.73,21.86 h -21.82 v -0.21 c 12.32,-1.4 22.92,-9.73 27.05,-21.65 l 11.87,-34.26 c 4.54,-13.09 16.87,-21.87 30.73,-21.87 z"
   data-original="#6A4F4B"
   class=""
   data-old_color="#E29A4B"
   id="path10"
   inkscape:connector-curvature="0" />
		<path
   style="fill:#5f4339"
   d="m 497.503,216.504 v 205.97 c 0,17.96 -14.56,32.52 -32.52,32.52 H 40.023 c -17.96,0 -32.52,-14.56 -32.52,-32.52 v -205.97 z"
   data-original="#5F4339"
   class=""
   data-old_color="#53BCE9"
   id="path12"
   inkscape:connector-curvature="0" />
		<path
   style="fill:#3e2723"
   d="m 65.523,454.994 h -25.5 c -17.96,0 -32.52,-14.56 -32.52,-32.52 v -205.97 h 25.5 v 205.97 c 0,17.96 14.56,32.52 32.52,32.52 z"
   data-original="#3E2723"
   class=""
   data-old_color="#36A6CE"
   id="path14"
   inkscape:connector-curvature="0" />
		<circle
   style="fill:#e5e9ea"
   cx="252.5"
   cy="289.005"
   r="135.487"
   data-original="#E5E9EA"
   class=""
   id="circle16" />
		<path
   style="fill:#566368"
   d="m 348.303,289.004 c 0,28.21 -12.19,53.57 -31.6,71.11 -16.99,15.35 -39.49,24.7 -64.2,24.7 -24.7,0 -47.21,-9.35 -64.2,-24.7 -19.41,-17.53 -31.61,-42.9 -31.61,-71.11 0,-28.21 12.2,-53.58 31.61,-71.1 16.99,-15.36 39.5,-24.7 64.2,-24.7 24.71,0 47.21,9.35 64.2,24.7 19.41,17.53 31.6,42.89 31.6,71.1 z"
   data-original="#566368"
   class=""
   id="path18"
   inkscape:connector-curvature="0" />
		<g
   id="g24">
			<path
   style="fill:#6f7b7f"
   d="m 320.239,221.261 c 19.947,19.947 29.26,46.499 27.938,72.627 -26.128,1.322 -52.68,-7.99 -72.627,-27.938 -19.947,-19.948 -29.26,-46.499 -27.931,-72.62 26.121,-1.329 52.673,7.983 72.62,27.931 z"
   data-original="#6F7B7F"
   class=""
   id="path20"
   inkscape:connector-curvature="0" />
			<path
   style="fill:#6f7b7f"
   d="m 229.447,312.053 c 19.947,19.947 29.26,46.499 27.938,72.627 -26.121,1.329 -52.687,-7.983 -72.634,-27.931 -19.947,-19.948 -29.26,-46.514 -27.924,-72.627 26.12,-1.329 52.672,7.984 72.62,27.931 z"
   data-original="#6F7B7F"
   class=""
   id="path22"
   inkscape:connector-curvature="0" />
		</g>
		<circle
   style="fill:#435054"
   cx="252.5"
   cy="289.005"
   r="30.958"
   data-original="#435054"
   class=""
   id="circle26" />
		<path
   style="fill:#e5e9ea"
   d="m 301.175,120.507 h 58.937 c 7.748,0 14.03,-6.281 14.03,-14.03 V 91.039 c 0,-7.748 -6.281,-14.03 -14.03,-14.03 h -58.937 c -7.748,0 -14.03,6.281 -14.03,14.03 v 15.439 c 0.001,7.748 6.282,14.029 14.03,14.029 z"
   data-original="#E5E9EA"
   class=""
   id="path28"
   inkscape:connector-curvature="0" />
		<circle
   style="fill:#566368"
   cx="100.654"
   cy="400.11099"
   r="27.117001"
   data-original="#566368"
   class=""
   id="circle30" />
	</g>
	<g
   id="g48">
		<path
   d="m 109.513,289.005 c 0,78.843 64.144,142.987 142.987,142.987 37.063,0 72.203,-14.122 98.947,-39.765 2.99,-2.867 3.09,-7.614 0.223,-10.604 -2.866,-2.991 -7.614,-3.09 -10.604,-0.223 -23.938,22.952 -55.392,35.592 -88.566,35.592 -70.572,0 -127.987,-57.415 -127.987,-127.987 0,-70.573 57.415,-127.988 127.987,-127.988 70.573,0 127.988,57.415 127.988,127.988 0,27.394 -8.528,53.516 -24.661,75.543 -2.447,3.342 -1.723,8.035 1.619,10.482 3.343,2.448 8.035,1.723 10.482,-1.619 18.03,-24.616 27.56,-53.803 27.56,-84.406 0,-78.844 -64.144,-142.988 -142.988,-142.988 -78.843,0 -142.987,64.144 -142.987,142.988 z"
   data-original="#1B0000"
   class="active-path"
   style="fill:#1b0000"
   data-old_color="#000000"
   id="path34"
   inkscape:connector-curvature="0" />
		<path
   d="m 252.5,185.701 c -56.962,0 -103.304,46.342 -103.304,103.304 0,56.962 46.342,103.304 103.304,103.304 56.962,0 103.304,-46.342 103.304,-103.304 0,-56.962 -46.342,-103.304 -103.304,-103.304 z m 0,191.608 c -48.691,0 -88.304,-39.613 -88.304,-88.304 0,-48.691 39.613,-88.304 88.304,-88.304 48.691,0 88.304,39.613 88.304,88.304 0,48.691 -39.613,88.304 -88.304,88.304 z"
   data-original="#1B0000"
   class="active-path"
   style="fill:#1b0000"
   data-old_color="#000000"
   id="path36"
   inkscape:connector-curvature="0" />
		<path
   d="m 252.5,250.547 c -21.206,0 -38.458,17.252 -38.458,38.458 0,21.206 17.252,38.458 38.458,38.458 21.206,0 38.458,-17.252 38.458,-38.458 0,-21.206 -17.252,-38.458 -38.458,-38.458 z m 0,61.916 c -12.935,0 -23.458,-10.523 -23.458,-23.458 0,-12.935 10.523,-23.458 23.458,-23.458 12.935,0 23.458,10.523 23.458,23.458 0,12.935 -10.523,23.458 -23.458,23.458 z"
   data-original="#1B0000"
   class="active-path"
   style="fill:#1b0000"
   data-old_color="#000000"
   id="path38"
   inkscape:connector-curvature="0" />
		<path
   d="m 360.112,128.008 c 11.872,0 21.53,-9.658 21.53,-21.53 V 91.039 c 0,-11.872 -9.658,-21.53 -21.53,-21.53 h -58.937 c -11.872,0 -21.53,9.658 -21.53,21.53 v 15.438 c 0,11.872 9.658,21.53 21.53,21.53 h 58.937 z m -65.466,-21.53 V 91.039 c 0,-3.601 2.929,-6.53 6.53,-6.53 h 58.937 c 3.601,0 6.53,2.929 6.53,6.53 v 15.438 c 0,3.601 -2.929,6.53 -6.53,6.53 h -58.937 c -3.601,10e-4 -6.53,-2.929 -6.53,-6.529 z"
   data-original="#1B0000"
   class="active-path"
   style="fill:#1b0000"
   data-old_color="#000000"
   id="path40"
   inkscape:connector-curvature="0" />
		<path
   d="m 66.038,400.112 c 0,19.088 15.529,34.617 34.617,34.617 19.088,0 34.617,-15.529 34.617,-34.617 0,-19.088 -15.529,-34.617 -34.617,-34.617 -19.088,0 -34.617,15.529 -34.617,34.617 z m 54.233,0 c 0,10.817 -8.8,19.617 -19.617,19.617 -10.817,0 -19.617,-8.8 -19.617,-19.617 0,-10.817 8.8,-19.617 19.617,-19.617 10.817,0 19.617,8.8 19.617,19.617 z"
   data-original="#1B0000"
   class="active-path"
   style="fill:#1b0000"
   data-old_color="#000000"
   id="path42"
   inkscape:connector-curvature="0" />
		<path
   d="m 505.003,216.504 c 0,-0.023 -0.003,-0.045 -0.003,-0.068 v -55.908 c 0,-22.067 -17.953,-40.02 -40.02,-40.02 h -24.303 c -10.651,0 -20.151,-6.761 -23.64,-16.825 L 405.16,69.423 C 399.579,53.326 384.384,42.512 367.347,42.512 H 208.152 c -4.142,0 -7.5,3.358 -7.5,7.5 0,4.142 3.358,7.5 7.5,7.5 h 159.196 c 10.651,0 20.151,6.761 23.64,16.824 l 11.877,34.26 c 5.581,16.097 20.776,26.912 37.813,26.912 h 24.303 c 13.796,0 25.02,11.224 25.02,25.02 v 48.476 h -98.025 c -4.142,0 -7.5,3.358 -7.5,7.5 0,4.142 3.358,7.5 7.5,7.5 H 490 v 198.468 c 0,13.796 -11.224,25.02 -25.02,25.02 H 40.02 C 26.224,447.492 15,436.268 15,422.472 V 224.004 h 98.021 c 4.142,0 7.5,-3.358 7.5,-7.5 0,-4.142 -3.358,-7.5 -7.5,-7.5 H 15 v -48.476 c 0,-13.796 11.224,-25.02 25.02,-25.02 h 64.306 c 17.036,0 32.231,-10.815 37.812,-26.912 l 11.877,-34.26 c 3.489,-10.063 12.989,-16.824 23.64,-16.824 h 5.496 c 4.142,0 7.5,-3.358 7.5,-7.5 0,-4.142 -3.358,-7.5 -7.5,-7.5 h -5.496 c -17.036,0 -32.232,10.814 -37.813,26.911 l -11.877,34.26 c -3.489,10.063 -12.988,16.825 -23.639,16.825 H 40.02 C 17.953,120.508 0,138.461 0,160.528 v 261.944 c 0,22.067 17.953,40.02 40.02,40.02 h 424.96 c 22.067,0 40.02,-17.953 40.02,-40.02 v -205.9 c 0,-0.023 0.003,-0.045 0.003,-0.068 z"
   data-original="#1B0000"
   class="active-path"
   style="fill:#1b0000"
   data-old_color="#000000"
   id="path44"
   inkscape:connector-curvature="0" />
		<path
   d="m 47.004,113.764 c 4.142,0 7.5,-3.358 7.5,-7.5 v -36.75 h 42.25 v 36.75 c 0,4.142 3.358,7.5 7.5,7.5 4.142,0 7.5,-3.358 7.5,-7.5 v -44.25 c 0,-4.142 -3.358,-7.5 -7.5,-7.5 h -57.25 c -4.142,0 -7.5,3.358 -7.5,7.5 v 44.25 c 0,4.142 3.358,7.5 7.5,7.5 z"
   data-original="#1B0000"
   class="active-path"
   style="fill:#1b0000"
   data-old_color="#000000"
   id="path46"
   inkscape:connector-curvature="0" />
	</g>
</g></g></g> </svg>