<?xml version="1.0" encoding="UTF-8" standalone="no"?>
<svg
   xmlns:dc="http://purl.org/dc/elements/1.1/"
   xmlns:cc="http://creativecommons.org/ns#"
   xmlns:rdf="http://www.w3.org/1999/02/22-rdf-syntax-ns#"
   xmlns:svg="http://www.w3.org/2000/svg"
   xmlns="http://www.w3.org/2000/svg"
   xmlns:sodipodi="http://sodipodi.sourceforge.net/DTD/sodipodi-0.dtd"
   xmlns:inkscape="http://www.inkscape.org/namespaces/inkscape"
   id="Capa_1"
   enable-background="new 0 0 512 512"
   height="100%"
   viewBox="0 0 512 512"
   width="100%"
   class=""
   version="1.1"
   sodipodi:docname="folder.svg"
   inkscape:version="0.92.4 5da689c313, 2019-01-14">
  <metadata
     id="metadata79">
    <rdf:RDF>
      <cc:Work
         rdf:about="">
        <dc:format>image/svg+xml</dc:format>
        <dc:type
           rdf:resource="http://purl.org/dc/dcmitype/StillImage" />
      </cc:Work>
    </rdf:RDF>
  </metadata>
  <defs
     id="defs77" />
  <sodipodi:namedview
     pagecolor="#ffffff"
     bordercolor="#666666"
     borderopacity="1"
     objecttolerance="10"
     gridtolerance="10"
     guidetolerance="10"
     inkscape:pageopacity="0"
     inkscape:pageshadow="2"
     inkscape:window-width="1920"
     inkscape:window-height="1011"
     id="namedview75"
     showgrid="false"
     inkscape:zoom="0.921875"
     inkscape:cx="242.92799"
     inkscape:cy="242.33025"
     inkscape:window-x="0"
     inkscape:window-y="768"
     inkscape:window-maximized="1"
     inkscape:current-layer="g62" />
  <g
     id="g72">
    <g
       id="g70">
      <g
         id="g68">
        <g
           id="g66">
          <g
             id="g64">
            <g
               id="g62">
              <g
                 id="g28">
                <g
                   id="g20">
                  <g
                     id="g18">
                    <g
                       id="g16">
                      <g
                         id="g14">
                        <g
                           id="g12">
                          <g
                             id="g10">
                            <g
                               id="g8">
                              <path
                                 d="m67.889 166.9c.012-10.575 8.594-19.138 19.168-19.126l212.537.233 138.617.152v-43.412c0-10.575-8.573-19.147-19.147-19.147h-216.822c-12.304 0-23.798-6.136-30.645-16.359l-5.017-7.492c-6.842-10.216-18.326-16.351-30.622-16.359l-100.02-.064c-15.672-.01-28.382 12.69-28.384 28.362l-.054 345.031c0 11.27 9.136 20.405 20.405 20.405 21.939 0 39.73-17.773 39.752-39.712z"
                                 data-original="#5F4339"
                                 class=""
                                 style="fill:#5F4339"
                                 data-old_color="#fbd307"
                                 id="path2"
                                 fill="#fbd307" />
                              <path
                                 d="m405.654 439.308c18.696-.624 33.671-15.966 33.692-34.819l.257-259.537c.012-10.575-8.552-19.157-19.126-19.168l-353.451-.421c-10.575-.012-19.157 8.552-19.168 19.126l-.273 274.284c-.012 11.118-9.035 20.359-20.153 20.346z"
                                 data-original="#5F4339"
                                 class=""
                                 style="fill:#5F4339"
                                 data-old_color="#fce25c"
                                 id="path4"
                                 fill="#fce25c" />
                              <path
                                 d="m451.839 125.783h-40.71c10.575.012 19.138 8.594 19.126 19.168l-.257 259.537c-.021 18.853-14.996 34.195-33.692 34.819l39.486.02c19.262.021 34.895-15.577 34.916-34.84l.257-259.537c.012-10.574-8.551-19.155-19.126-19.167z"
                                 data-original="#5F4339"
                                 class=""
                                 style="fill:#5F4339"
                                 data-old_color="#fbd307"
                                 id="path6"
                                 fill="#fbd307" />
                            </g>
                          </g>
                        </g>
                      </g>
                    </g>
                  </g>
                </g>
                <g
                   id="g24">
                  <path
                     d="m196.124 172.999h-91.902c-3.728 0-6.75 3.022-6.75 6.75v30.76c0 3.728 3.022 6.75 6.75 6.75h91.902c3.728 0 6.75-3.022 6.75-6.75v-30.76c0-3.728-3.022-6.75-6.75-6.75z"
                     data-original="#BE9C91"
                     class=""
                     style="fill:#BE9C91"
                     data-old_color="#f4f8f8"
                     id="path22"
                     fill="#f4f8f8" />
                </g>
                <path
                   d="m196.124 172.999h-33.959v37.51c0 3.728-3.022 6.75-6.75 6.75h40.708c3.728 0 6.75-3.022 6.75-6.75v-30.76c.001-3.728-3.021-6.75-6.749-6.75z"
                   data-original="#5F4339"
                   class=""
                   style="fill:#5F4339"
                   data-old_color="#e5ecf1"
                   id="path26"
                   fill="#e5ecf1" />
              </g>
              <g
                 id="g48">
                <g
                   id="g46">
                  <g
                     id="g44">
                    <g
                       id="g36">
                      <path
                         d="m282.746 466.674c-18.498 0-33.548-15.05-33.548-33.548v-141.921c0-18.498 15.049-33.548 33.548-33.548h188.205c18.499 0 33.549 15.05 33.549 33.548v141.921c0 18.498-15.049 33.548-33.549 33.548z"
                         data-original="#8D6E63"
                         class=""
                         style="fill:#8D6E63"
                         data-old_color="#da8659"
                         id="path30"
                         fill="#da8659" />
                      <path
                         d="m287.812 437.267h178.074c4.531 0 8.204-3.673 8.204-8.204v-133.796c0-4.531-3.673-8.204-8.204-8.204h-178.074c-4.531 0-8.204 3.673-8.204 8.204v133.796c0 4.531 3.673 8.204 8.204 8.204z"
                         data-original="#BE9C91"
                         class=""
                         style="fill:#BE9C91"
                         data-old_color="#f4f8f8"
                         id="path32"
                         fill="#f4f8f8" />
                      <path
                         d="m465.886 287.063h-40.454c4.531 0 8.204 3.673 8.204 8.204v142h32.25c4.531 0 8.205-3.673 8.205-8.204v-133.796c-.001-4.531-3.674-8.204-8.205-8.204z"
                         data-original="#5F4339"
                         class=""
                         style="fill:#5F4339"
                         data-old_color="#e5ecf1"
                         id="path34"
                         fill="#e5ecf1" />
                    </g>
                    <g
                       id="g42">
                      <path
                         d="m361.847 338.575c-4.107-5.454-12.293-5.454-16.4 0l-65.839 87.44v3.048c0 4.531 3.673 8.204 8.204 8.204h148.346z"
                         data-original="#97E4F9"
                         class=""
                         id="path38"
                         fill="#97e4f9" />
                      <path
                         d="m465.886 437.267c4.531 0 8.204-3.673 8.204-8.204v-1.835l-43.61-57.918c-2.323-3.085-6.954-3.085-9.277 0l-51.17 67.958h95.853z"
                         data-original="#B1E4F9"
                         class=""
                         id="path40"
                         fill="#b1e4f9" />
                    </g>
                  </g>
                </g>
              </g>
              <path
                 d="m474.09 429.063v-1.835l-40.454-53.728v63.767h32.25c4.531.001 8.204-3.673 8.204-8.204z"
                 data-original="#0ACEFA"
                 class=""
                 id="path50"
                 fill="#0acefa" />
              <g
                 id="g60">
                <path
                   d="m104.222 165.499c-7.857 0-14.249 6.392-14.249 14.25v30.76c0 7.857 6.392 14.25 14.249 14.25h91.902c7.857 0 14.25-6.392 14.25-14.25v-30.76c0-7.857-6.393-14.25-14.25-14.25zm91.152 44.259h-90.401v-29.259h90.401z"
                   data-original="#000000"
                   class="active-path"
                   style="fill:#000000"
                   id="path52" />
                <path
                   d="m470.951 250.157h-188.205c-22.634 0-41.048 18.414-41.048 41.048v141.921c0 22.634 18.414 41.048 41.048 41.048h188.205c22.635 0 41.049-18.414 41.049-41.048v-141.921c0-22.634-18.414-41.048-41.049-41.048zm26.049 182.969c0 14.363-11.686 26.048-26.049 26.048h-188.205c-14.363 0-26.048-11.685-26.048-26.048v-141.921c0-14.363 11.685-26.048 26.048-26.048h188.205c14.363 0 26.049 11.685 26.049 26.048z"
                   data-original="#000000"
                   class="active-path"
                   style="fill:#000000"
                   id="path54" />
                <path
                   d="m465.886 279.563h-124.534c-4.143 0-7.5 3.358-7.5 7.5s3.357 7.5 7.5 7.5h124.534c.389 0 .704.316.704.705v109.531l-30.118-40c-2.537-3.37-6.412-5.303-10.631-5.303-4.218 0-8.093 1.933-10.629 5.302l-12.116 16.091-35.258-46.826c-3.388-4.499-8.561-7.079-14.192-7.079s-10.804 2.581-14.189 7.079l-52.348 69.523v-108.318c0-.389.315-.705.704-.705h18.423c4.143 0 7.5-3.358 7.5-7.5s-3.357-7.5-7.5-7.5h-18.423c-8.659 0-15.704 7.045-15.704 15.705v133.795c0 8.66 7.045 15.705 15.704 15.705h178.073c8.659 0 15.704-7.045 15.704-15.705v-133.795c0-8.66-7.045-15.705-15.704-15.705zm-99.594 150.205h-78.48c-.389 0-.704-.316-.704-.705v-.54l64.331-85.437c.721-.958 1.692-1.101 2.207-1.101s1.487.143 2.209 1.102l37.852 50.271zm99.594 0h-80.817c7.785-10.339 27.334-36.303 40.772-54.15l40.578 53.891c-.129.154-.316.259-.533.259z"
                   data-original="#000000"
                   class="active-path"
                   style="fill:#000000"
                   id="path56" />
                <path
                   d="m214.708 431.733-162.758-.099c1.997-3.847 3.13-8.22 3.135-12.854l.272-274.283c.008-6.426 5.209-11.635 11.647-11.635h.014l371.188.406h.005.005l13.613.015c6.423.007 11.642 5.238 11.635 11.658l-.111 77.588c-.006 4.142 3.347 7.505 7.489 7.511h.011c4.137 0 7.494-3.351 7.5-7.489l.111-77.591c.017-14.693-11.925-26.661-26.618-26.677l-6.135-.007v-13.529c0-14.693-11.954-26.647-26.647-26.647h-216.823c-9.821 0-18.947-4.872-24.413-13.033l-5.018-7.492c-8.248-12.317-22.023-19.676-36.848-19.686l-100.02-.063c-.008 0-.016 0-.023 0-19.811 0-35.862 16.028-35.866 35.861l-.053 345.032c0 15.028 12.342 28.107 28.48 27.901l186.218.114h.005c4.14 0 7.497-3.355 7.5-7.496.003-4.143-3.353-7.503-7.495-7.505zm-174.351-287.252-.272 274.282c-.008 7.066-5.633 12.81-12.556 12.852-6.915-.198-12.529-5.965-12.529-12.895l.054-345.03c.002-11.525 9.328-20.863 20.866-20.863h.014l100.02.063c9.814.006 18.934 4.878 24.395 13.032l5.018 7.492c8.253 12.326 22.038 19.686 36.874 19.686h216.823c6.423 0 11.647 5.225 11.647 11.647v13.513l-363.678-.398c-.01 0-.02 0-.029 0-14.7 0-26.63 11.887-26.647 26.619z"
                   data-original="#000000"
                   class="active-path"
                   style="fill:#000000"
                   id="path58" />
              </g>
              <path
                 style="opacity:1;fill:#be9c91;fill-opacity:1;stroke:none;stroke-width:65.04374695;stroke-linejoin:miter;stroke-miterlimit:4;stroke-dasharray:none;stroke-opacity:1"
                 d="m 20.461471,429.1622 c -6.322966,-4.97364 -5.981463,5.47647 -5.97489,-182.83387 0.0043,-121.95578 0.357309,-174.608914 1.191269,-177.661965 1.601226,-5.861945 5.643064,-10.961669 10.754512,-13.569336 4.067376,-2.07502 6.408897,-2.157616 59.869362,-2.111866 59.933316,0.05129 59.977816,0.05514 67.579486,5.85322 2.09168,1.5954 6.17975,6.422857 9.08463,10.727681 8.63912,12.802624 16.27805,18.554436 29.06544,21.885129 5.3324,1.388913 22.36846,1.621951 118.57138,1.621951 100.04806,0 112.60885,0.185298 114.76135,1.692967 4.01225,2.810293 5.65889,7.348719 5.65889,15.596899 v 7.63488 l -185.76271,0.28339 c -178.871272,0.27288 -185.903556,0.35841 -189.55932,2.30553 -5.313809,2.83023 -9.563096,7.00243 -12.302734,12.07955 l -2.341334,4.33899 -0.542373,143.54122 -0.542372,143.54122 -4.051868,3.71301 c -4.955926,4.54148 -10.76548,5.05311 -15.458718,1.3614 z"
                 id="path891"
                 inkscape:connector-curvature="0" />
            </g>
          </g>
        </g>
      </g>
    </g>
  </g>
</svg>
