<?xml version="1.0" encoding="UTF-8" standalone="no"?>
<svg
   xmlns:dc="http://purl.org/dc/elements/1.1/"
   xmlns:cc="http://creativecommons.org/ns#"
   xmlns:rdf="http://www.w3.org/1999/02/22-rdf-syntax-ns#"
   xmlns:svg="http://www.w3.org/2000/svg"
   xmlns="http://www.w3.org/2000/svg"
   xmlns:sodipodi="http://sodipodi.sourceforge.net/DTD/sodipodi-0.dtd"
   xmlns:inkscape="http://www.inkscape.org/namespaces/inkscape"
   id="Capa_1"
   enable-background="new 0 0 512 512"
   height="100%"
   viewBox="0 0 512 512"
   width="100%"
   class=""
   version="1.1"
   sodipodi:docname="folder.svg"
   inkscape:version="0.92.4 5da689c313, 2019-01-14">
  <metadata
     id="metadata79">
    <rdf:RDF>
      <cc:Work
         rdf:about="">
        <dc:format>image/svg+xml</dc:format>
        <dc:type
           rdf:resource="http://purl.org/dc/dcmitype/StillImage" />
        <dc:title></dc:title>
      </cc:Work>
    </rdf:RDF>
  </metadata>
  <defs
     id="defs77" />
  <sodipodi:namedview
     pagecolor="#ffffff"
     bordercolor="#666666"
     borderopacity="1"
     objecttolerance="10"
     gridtolerance="10"
     guidetolerance="10"
     inkscape:pageopacity="0"
     inkscape:pageshadow="2"
     inkscape:window-width="1920"
     inkscape:window-height="1011"
     id="namedview75"
     showgrid="false"
     inkscape:zoom="0.921875"
     inkscape:cx="58.52121"
     inkscape:cy="242.33025"
     inkscape:window-x="0"
     inkscape:window-y="768"
     inkscape:window-maximized="1"
     inkscape:current-layer="g62"
     inkscape:pagecheckerboard="true" />
  <g
     id="g72">
    <g
       id="g70">
      <g
         id="g68">
        <g
           id="g66">
          <g
             id="g64">
            <g
               id="g62">
              <g
                 id="g60" />
              <g
                 id="g882">
                <g
                   id="g28">
                  <g
                     id="g20">
                    <g
                       id="g18">
                      <g
                         id="g16">
                        <g
                           id="g14">
                          <g
                             id="g12">
                            <g
                               id="g10">
                              <g
                                 id="g8">
                                <path
                                   id="path2"
                                   data-old_color="#fbd307"
                                   style="fill:#5f4339"
                                   class=""
                                   data-original="#5F4339"
                                   d="m 67.889,166.9 c 0.012,-10.575 8.594,-19.138 19.168,-19.126 l 212.537,0.233 138.617,0.152 V 104.747 C 438.211,94.172 429.638,85.6 419.064,85.6 H 202.242 c -12.304,0 -23.798,-6.136 -30.645,-16.359 L 166.58,61.749 C 159.738,51.533 148.254,45.398 135.958,45.39 L 35.938,45.326 C 20.266,45.316 7.556,58.016 7.554,73.688 L 7.5,418.719 c 0,11.27 9.136,20.405 20.405,20.405 21.939,0 39.73,-17.773 39.752,-39.712 z"
                                   inkscape:connector-curvature="0" />
                                <path
                                   id="path4"
                                   data-old_color="#fce25c"
                                   style="fill:#5f4339"
                                   class=""
                                   data-original="#5F4339"
                                   d="m 405.654,439.308 c 18.696,-0.624 33.671,-15.966 33.692,-34.819 l 0.257,-259.537 c 0.012,-10.575 -8.552,-19.157 -19.126,-19.168 L 67.026,125.363 c -10.575,-0.012 -19.157,8.552 -19.168,19.126 l -0.273,274.284 c -0.012,11.118 -9.035,20.359 -20.153,20.346 z"
                                   inkscape:connector-curvature="0" />
                                <path
                                   id="path6"
                                   data-old_color="#fbd307"
                                   style="fill:#5f4339"
                                   class=""
                                   data-original="#5F4339"
                                   d="m 451.839,125.783 h -40.71 c 10.575,0.012 19.138,8.594 19.126,19.168 l -0.257,259.537 c -0.021,18.853 -14.996,34.195 -33.692,34.819 l 39.486,0.02 c 19.262,0.021 34.895,-15.577 34.916,-34.84 l 0.257,-259.537 c 0.012,-10.574 -8.551,-19.155 -19.126,-19.167 z"
                                   inkscape:connector-curvature="0" />
                              </g>
                            </g>
                          </g>
                        </g>
                      </g>
                    </g>
                  </g>
                  <g
                     id="g24">
                    <path
                       id="path22"
                       data-old_color="#f4f8f8"
                       style="fill:#be9c91"
                       class=""
                       data-original="#BE9C91"
                       d="m 196.124,172.999 h -91.902 c -3.728,0 -6.75,3.022 -6.75,6.75 v 30.76 c 0,3.728 3.022,6.75 6.75,6.75 h 91.902 c 3.728,0 6.75,-3.022 6.75,-6.75 v -30.76 c 0,-3.728 -3.022,-6.75 -6.75,-6.75 z"
                       inkscape:connector-curvature="0" />
                  </g>
                  <path
                     id="path26"
                     data-old_color="#e5ecf1"
                     style="fill:#5f4339"
                     class=""
                     data-original="#5F4339"
                     d="m 196.124,172.999 h -33.959 v 37.51 c 0,3.728 -3.022,6.75 -6.75,6.75 h 40.708 c 3.728,0 6.75,-3.022 6.75,-6.75 v -30.76 c 0.001,-3.728 -3.021,-6.75 -6.749,-6.75 z"
                     inkscape:connector-curvature="0" />
                </g>
                <g
                   id="g48">
                  <g
                     id="g46">
                    <g
                       id="g44">
                      <g
                         id="g36">
                        <path
                           id="path30"
                           data-old_color="#da8659"
                           style="fill:#8d6e63"
                           class=""
                           data-original="#8D6E63"
                           d="m 282.746,466.674 c -18.498,0 -33.548,-15.05 -33.548,-33.548 V 291.205 c 0,-18.498 15.049,-33.548 33.548,-33.548 h 188.205 c 18.499,0 33.549,15.05 33.549,33.548 v 141.921 c 0,18.498 -15.049,33.548 -33.549,33.548 z"
                           inkscape:connector-curvature="0" />
                        <path
                           id="path32"
                           data-old_color="#f4f8f8"
                           style="fill:#be9c91"
                           class=""
                           data-original="#BE9C91"
                           d="m 287.812,437.267 h 178.074 c 4.531,0 8.204,-3.673 8.204,-8.204 V 295.267 c 0,-4.531 -3.673,-8.204 -8.204,-8.204 H 287.812 c -4.531,0 -8.204,3.673 -8.204,8.204 v 133.796 c 0,4.531 3.673,8.204 8.204,8.204 z"
                           inkscape:connector-curvature="0" />
                        <path
                           id="path34"
                           data-old_color="#e5ecf1"
                           style="fill:#5f4339"
                           class=""
                           data-original="#5F4339"
                           d="m 465.886,287.063 h -40.454 c 4.531,0 8.204,3.673 8.204,8.204 v 142 h 32.25 c 4.531,0 8.205,-3.673 8.205,-8.204 V 295.267 c -0.001,-4.531 -3.674,-8.204 -8.205,-8.204 z"
                           inkscape:connector-curvature="0" />
                      </g>
                      <g
                         id="g42">
                        <path
                           id="path38"
                           class=""
                           data-original="#97E4F9"
                           d="m 361.847,338.575 c -4.107,-5.454 -12.293,-5.454 -16.4,0 l -65.839,87.44 v 3.048 c 0,4.531 3.673,8.204 8.204,8.204 h 148.346 z"
                           inkscape:connector-curvature="0"
                           style="fill:#97e4f9" />
                        <path
                           id="path40"
                           class=""
                           data-original="#B1E4F9"
                           d="m 465.886,437.267 c 4.531,0 8.204,-3.673 8.204,-8.204 v -1.835 L 430.48,369.31 c -2.323,-3.085 -6.954,-3.085 -9.277,0 l -51.17,67.958 h 95.853 z"
                           inkscape:connector-curvature="0"
                           style="fill:#b1e4f9" />
                      </g>
                    </g>
                  </g>
                </g>
                <path
                   id="path50"
                   class=""
                   data-original="#0ACEFA"
                   d="m 474.09,429.063 v -1.835 L 433.636,373.5 v 63.767 h 32.25 c 4.531,10e-4 8.204,-3.673 8.204,-8.204 z"
                   inkscape:connector-curvature="0"
                   style="fill:#0acefa" />
                <path
                   id="path52"
                   style="fill:#000000"
                   class="active-path"
                   data-original="#000000"
                   d="m 104.222,165.499 c -7.857,0 -14.249,6.392 -14.249,14.25 v 30.76 c 0,7.857 6.392,14.25 14.249,14.25 h 91.902 c 7.857,0 14.25,-6.392 14.25,-14.25 v -30.76 c 0,-7.857 -6.393,-14.25 -14.25,-14.25 z m 91.152,44.259 h -90.401 v -29.259 h 90.401 z"
                   inkscape:connector-curvature="0" />
                <path
                   id="path54"
                   style="fill:#000000"
                   class="active-path"
                   data-original="#000000"
                   d="M 470.951,250.157 H 282.746 c -22.634,0 -41.048,18.414 -41.048,41.048 v 141.921 c 0,22.634 18.414,41.048 41.048,41.048 H 470.951 C 493.586,474.174 512,455.76 512,433.126 V 291.205 c 0,-22.634 -18.414,-41.048 -41.049,-41.048 z M 497,433.126 c 0,14.363 -11.686,26.048 -26.049,26.048 H 282.746 c -14.363,0 -26.048,-11.685 -26.048,-26.048 V 291.205 c 0,-14.363 11.685,-26.048 26.048,-26.048 h 188.205 c 14.363,0 26.049,11.685 26.049,26.048 z"
                   inkscape:connector-curvature="0" />
                <path
                   id="path56"
                   style="fill:#000000"
                   class="active-path"
                   data-original="#000000"
                   d="M 465.886,279.563 H 341.352 c -4.143,0 -7.5,3.358 -7.5,7.5 0,4.142 3.357,7.5 7.5,7.5 h 124.534 c 0.389,0 0.704,0.316 0.704,0.705 v 109.531 l -30.118,-40 c -2.537,-3.37 -6.412,-5.303 -10.631,-5.303 -4.218,0 -8.093,1.933 -10.629,5.302 l -12.116,16.091 -35.258,-46.826 c -3.388,-4.499 -8.561,-7.079 -14.192,-7.079 -5.631,0 -10.804,2.581 -14.189,7.079 l -52.348,69.523 V 295.268 c 0,-0.389 0.315,-0.705 0.704,-0.705 h 18.423 c 4.143,0 7.5,-3.358 7.5,-7.5 0,-4.142 -3.357,-7.5 -7.5,-7.5 h -18.423 c -8.659,0 -15.704,7.045 -15.704,15.705 v 133.795 c 0,8.66 7.045,15.705 15.704,15.705 h 178.073 c 8.659,0 15.704,-7.045 15.704,-15.705 V 295.268 c 0,-8.66 -7.045,-15.705 -15.704,-15.705 z m -99.594,150.205 h -78.48 c -0.389,0 -0.704,-0.316 -0.704,-0.705 v -0.54 l 64.331,-85.437 c 0.721,-0.958 1.692,-1.101 2.207,-1.101 0.515,0 1.487,0.143 2.209,1.102 l 37.852,50.271 z m 99.594,0 h -80.817 c 7.785,-10.339 27.334,-36.303 40.772,-54.15 l 40.578,53.891 c -0.129,0.154 -0.316,0.259 -0.533,0.259 z"
                   inkscape:connector-curvature="0" />
                <path
                   id="path58"
                   style="fill:#000000"
                   class="active-path"
                   data-original="#000000"
                   d="M 214.708,431.733 51.95,431.634 c 1.997,-3.847 3.13,-8.22 3.135,-12.854 l 0.272,-274.283 c 0.008,-6.426 5.209,-11.635 11.647,-11.635 h 0.014 l 371.188,0.406 h 0.005 0.005 l 13.613,0.015 c 6.423,0.007 11.642,5.238 11.635,11.658 l -0.111,77.588 c -0.006,4.142 3.347,7.505 7.489,7.511 h 0.011 c 4.137,0 7.494,-3.351 7.5,-7.489 l 0.111,-77.591 c 0.017,-14.693 -11.925,-26.661 -26.618,-26.677 l -6.135,-0.007 V 104.747 C 445.711,90.054 433.757,78.1 419.064,78.1 H 202.241 c -9.821,0 -18.947,-4.872 -24.413,-13.033 L 172.81,57.575 C 164.562,45.258 150.787,37.899 135.962,37.889 L 35.942,37.826 c -0.008,0 -0.016,0 -0.023,0 -19.811,0 -35.862,16.028 -35.866,35.861 L 0,418.719 c 0,15.028 12.342,28.107 28.48,27.901 l 186.218,0.114 h 0.005 c 4.14,0 7.497,-3.355 7.5,-7.496 0.003,-4.143 -3.353,-7.503 -7.495,-7.505 z M 40.357,144.481 40.085,418.763 c -0.008,7.066 -5.633,12.81 -12.556,12.852 C 20.614,431.417 15,425.65 15,418.72 L 15.054,73.69 C 15.056,62.165 24.382,52.827 35.92,52.827 h 0.014 l 100.02,0.063 c 9.814,0.006 18.934,4.878 24.395,13.032 l 5.018,7.492 C 173.62,85.74 187.405,93.1 202.241,93.1 h 216.823 c 6.423,0 11.647,5.225 11.647,11.647 V 118.26 L 67.033,117.862 c -0.01,0 -0.02,0 -0.029,0 -14.7,0 -26.63,11.887 -26.647,26.619 z"
                   inkscape:connector-curvature="0" />
                <path
                   inkscape:connector-curvature="0"
                   id="path891"
                   d="m 20.461471,429.1622 c -6.322966,-4.97364 -5.981463,5.47647 -5.97489,-182.83387 0.0043,-121.95578 0.357309,-174.608914 1.191269,-177.661965 1.601226,-5.861945 5.643064,-10.961669 10.754512,-13.569336 4.067376,-2.07502 6.408897,-2.157616 59.869362,-2.111866 59.933316,0.05129 59.977816,0.05514 67.579486,5.85322 2.09168,1.5954 6.17975,6.422857 9.08463,10.727681 8.63912,12.802624 16.27805,18.554436 29.06544,21.885129 5.3324,1.388913 22.36846,1.621951 118.57138,1.621951 100.04806,0 112.60885,0.185298 114.76135,1.692967 4.01225,2.810293 5.65889,7.348719 5.65889,15.596899 v 7.63488 l -185.76271,0.28339 c -178.871272,0.27288 -185.903556,0.35841 -189.55932,2.30553 -5.313809,2.83023 -9.563096,7.00243 -12.302734,12.07955 l -2.341334,4.33899 -0.542373,143.54122 -0.542372,143.54122 -4.051868,3.71301 c -4.955926,4.54148 -10.76548,5.05311 -15.458718,1.3614 z"
                   style="opacity:1;fill:#be9c91;fill-opacity:1;stroke:none;stroke-width:65.04374695;stroke-linejoin:miter;stroke-miterlimit:4;stroke-dasharray:none;stroke-opacity:1" />
              </g>
            </g>
          </g>
        </g>
      </g>
    </g>
  </g>
</svg>
