<?xml version="1.0"?>
<svg xmlns="http://www.w3.org/2000/svg" height="100%" viewBox="-38 0 512 512" width="100%" class=""><g><g><path d="m387.5 97.496094h-220c-22.089844 0-40 17.90625-40 40v327.003906c0 22.089844 17.910156 40 40 40h220c22.089844 0 40-17.910156 40-40v-327.003906c0-22.09375-17.910156-40-40-40zm0 0" fill="#ce795f" data-original="#8D6E63" class="" style="fill:#8D6E63" data-old_color="#ce795f"/><path d="m397.5 98.757812v38.738282l-230 337.003906h-38.738281c4.4375 17.253906 20.097656 30 38.738281 30h220c22.089844 0 40-17.90625 40-40v-327.003906c0-18.640625-12.746094-34.300782-30-38.738282zm0 0" fill="#a05a4b" data-original="#5F4339" class="" style="fill:#5F4339" data-old_color="#a05a4b"/><path d="m375 474.5h-195c-12.425781 0-22.5-10.074219-22.5-22.5v-302.003906c0-12.425782 10.074219-22.5 22.5-22.5h195c12.425781 0 22.5 10.074218 22.5 22.5v302.003906c0 12.425781-10.074219 22.5-22.5 22.5zm0 0" fill="#fff9eb" data-original="#FFF9EB" class=""/><path d="m375 127.496094h-7.5v294.503906c0 12.425781-10.074219 22.5-22.5 22.5h-187.5v7.5c0 12.425781 10.074219 22.5 22.5 22.5h195c12.425781 0 22.5-10.074219 22.5-22.5v-302.003906c0-12.425782-10.074219-22.5-22.5-22.5zm0 0" fill="#e9e3d5" data-original="#E9E3D5" class=""/><path d="m320.179688 77.59375c-5.632813-.375-18.988282.386719-21.792969-.566406-3.421875-1.164063-5.886719-4.394532-5.886719-8.210938 0-3.109375 1.425781-6.03125 3.84375-7.988281 6.382812-5.152344 10.582031-12.917969 11.097656-21.5.003906-.023437.007813-.046875.007813-.070313.996093-17.222656-12.6875-31.757812-29.949219-31.757812-16.566406 0-30 13.425781-30 29.996094 0 9.429687 4.351562 17.832031 11.15625 23.332031 2.414062 1.953125 3.84375 4.875 3.84375 7.984375 0 .273438-.03125.660156-.03125.660156-.339844 4.484375-4.078125 8.019532-8.648438 8.019532h-16.320312c-22.132812 0-40 17.976562-40 40 .074219 13.785156 11.488281 25 25.324219 25h109.675781c13.808594 0 25-11.191407 25-25 0-21.023438-16.339844-38.515626-37.320312-39.898438zm0 0" fill="#8b9ba9" data-original="#BE9C91" class="" style="fill:#BE9C91" data-old_color="#8b9ba9"/><path d="m327.5 78.769531v11.226563c0 12.425781-10.074219 22.5-22.5 22.5h-107.175781c-.207031 1.640625-.324219 3.304687-.324219 5 .074219 13.785156 11.488281 25 25.324219 25h109.523437c13.800782 0 25.183594-11.292969 25.152344-25.097656-.042969-18.464844-12.691406-34.179688-30-38.628907zm0 0" fill="#6c7a88" data-original="#8D6E63" class="" style="fill:#8D6E63" data-old_color="#6c7a88"/><path d="m71.25 446.746094c-14.976562 0-26.25-21.988282-26.25-36.25v-213c0-14.472656 11.773438-26.25 26.25-26.25s26.25 11.777344 26.25 26.25v213c0 14.261718-11.273438 36.25-26.25 36.25zm0 0" fill="#6697cc" data-original="#8D6E63" class="" style="fill:#8D6E63" data-old_color="#6697cc"/><path d="m71.25 171.246094c-1.273438 0-2.523438.097656-3.75.273437v225.230469c0 11.046875-8.953125 19.996094-20 19.996094h-1.871094c2.550782 13.648437 12.707032 30 25.621094 30 14.976562 0 26.25-21.988282 26.25-36.25v-213c0-14.472656-11.773438-26.25-26.25-26.25zm0 0" fill="#336499" data-original="#5F4339" class="" style="fill:#5F4339" data-old_color="#336499"/><path d="m302.5 375.582031h-10v-101.667969c0-8.285156-6.714844-15-15-15h-25c-8.285156 0-15 6.714844-15 15 0 8.285157 6.714844 15 15 15h10v86.667969h-10c-8.285156 0-15 6.714844-15 15 0 8.28125 6.714844 15 15 15h50c8.285156 0 15-6.71875 15-15 0-8.285156-6.714844-15-15-15zm0 0" fill="#4b7cb1" data-original="#5F4339" class="" style="fill:#5F4339" data-old_color="#4b7cb1"/><path d="m291.667969 211.414062c0 8.285157-6.714844 15-15 15-8.285157 0-15-6.714843-15-15 0-8.285156 6.714843-15 15-15 8.285156 0 15 6.714844 15 15zm0 0" fill="#4b7cb1" data-original="#5F4339" class="" style="fill:#5F4339" data-old_color="#4b7cb1"/><path d="m285 37.496094c0 4.140625-3.359375 7.5-7.5 7.5s-7.5-3.359375-7.5-7.5c0-4.144532 3.359375-7.5 7.5-7.5s7.5 3.355468 7.5 7.5zm0 0" data-original="#000000" class="active-path" style="fill:#000000"/><path d="m387.5 89.996094c-4.144531 0-7.5 3.355468-7.5 7.5 0 4.140625 3.355469 7.5 7.5 7.5 17.921875 0 32.5 14.578125 32.5 32.5v327.003906c0 17.921875-14.578125 32.5-32.5 32.5h-220c-17.921875 0-32.5-14.578125-32.5-32.5v-327.003906c0-17.921875 14.578125-32.5 32.5-32.5h24.179688c-1.085938 3.984375-1.679688 8.171875-1.679688 12.5 0 .839844.042969 1.671875.105469 2.5h-10.105469c-16.542969 0-30 13.457031-30 30v302.003906c0 16.542969 13.457031 30 30 30h195c16.542969 0 30-13.457031 30-30v-302.003906c0-16.542969-13.457031-30-30-30h-10.105469c.0625-.828125.105469-1.660156.105469-2.5 0-26.191406-21.308594-47.5-47.5-47.5h-16.320312c-.648438 0-1.179688-.53125-1.179688-1.183594 0-.824219.386719-1.609375 1.058594-2.152344 8.859375-7.160156 13.941406-17.789062 13.941406-29.164062 0-20.675782-16.820312-37.496094-37.5-37.496094s-37.5 16.820312-37.5 37.496094c0 11.375 5.082031 22.003906 13.9375 29.164062.675781.542969 1.0625 1.328125 1.0625 2.152344 0 .652344-.527344 1.183594-1.179688 1.183594h-16.320312c-15.949219 0-30.074219 7.90625-38.691406 20h-31.308594c-26.191406 0-47.5 21.308594-47.5 47.5v327.003906c0 26.191406 21.308594 47.5 47.5 47.5h220c26.191406 0 47.5-21.308594 47.5-47.5v-327.003906c0-26.191406-21.308594-47.5-47.5-47.5zm-150-5h16.320312c8.921876 0 16.179688-7.261719 16.179688-16.183594 0-5.371094-2.414062-10.410156-6.632812-13.816406-5.316407-4.300782-8.367188-10.679688-8.367188-17.5 0-12.40625 10.09375-22.496094 22.5-22.496094s22.5 10.089844 22.5 22.496094c0 6.820312-3.050781 13.199218-8.371094 17.5-4.214844 3.40625-6.628906 8.445312-6.628906 13.816406 0 8.921875 7.257812 16.183594 16.179688 16.183594h16.320312c17.921875 0 32.5 14.578125 32.5 32.5 0 9.648437-7.851562 17.5-17.5 17.5h-110c-9.648438 0-17.5-7.851563-17.5-17.5 0-17.921875 14.578125-32.5 32.5-32.5zm-15 65h110c11.480469 0 21.582031-5.988282 27.363281-15h15.136719c8.269531 0 15 6.726562 15 15v302.003906c0 8.269531-6.730469 15-15 15h-195c-8.269531 0-15-6.730469-15-15v-302.003906c0-8.273438 6.730469-15 15-15h15.136719c5.78125 9.011718 15.882812 15 27.363281 15zm0 0" data-original="#000000" class="active-path" style="fill:#000000"/><path d="m78.75 164.597656v-15.851562c4.144531 0 7.5-3.355469 7.5-7.5 0-4.140625-3.355469-7.5-7.5-7.5h-7.5c-35.152344 0-63.75 28.601562-63.75 63.75v65.5c-4.144531 0-7.5 3.355468-7.5 7.5 0 4.144531 3.355469 7.5 7.5 7.5h7.5c4.144531 0 7.5-3.355469 7.5-7.5v-73c0-24.328125 17.917969-44.550782 41.25-48.171875v15.273437c-15.011719 3.421875-26.25 16.871094-26.25 32.898438v213c0 15.167968 10.210938 37.09375 26.25 42.5v8.25c0 4.144531 3.355469 7.5 7.5 7.5s7.5-3.355469 7.5-7.5v-8.25c16.039062-5.40625 26.25-27.332032 26.25-42.5v-213c0-16.027344-11.238281-29.476563-26.25-32.898438zm11.25 245.898438c0 11.875-9.695312 28.75-18.75 28.75s-18.75-16.875-18.75-28.75v-213c0-10.335938 8.410156-18.75 18.75-18.75s18.75 8.414062 18.75 18.75zm0 0" data-original="#000000" class="active-path" style="fill:#000000"/><path d="m252.5 368.078125c-12.4375 0-22.5 10.066406-22.5 22.5 0 12.4375 10.066406 22.5 22.5 22.5h50c12.4375 0 22.5-10.0625 22.5-22.5s-10.0625-22.5-22.5-22.5c-4.140625 0-7.5 3.371094-7.5 7.5 0 4.140625 3.359375 7.5 7.5 7.5 4.128906.011719 7.488281 3.371094 7.5 7.5-.011719 4.132813-3.371094 7.492187-7.5 7.5h-50c-4.128906-.007813-7.488281-3.367187-7.5-7.5.011719-4.128906 3.371094-7.488281 7.5-7.5h10c4.078125 0 7.5-3.316406 7.5-7.5v-86.667969c0-1.972656-.800781-3.910156-2.199219-5.300781-1.390625-1.398437-3.332031-2.199219-5.300781-2.199219h-10c-4.128906 0-7.488281-3.371094-7.5-7.5.011719-4.121094 3.371094-7.488281 7.5-7.5h25c4.128906.011719 7.488281 3.378906 7.5 7.5v81.667969c0 4.140625 3.371094 7.5 7.5 7.5 4.140625 0 7.5-3.359375 7.5-7.5v-81.667969c0-12.464844-10.097656-22.488281-22.5-22.488281h-25c-12.410156 0-22.5 10.03125-22.5 22.488281 0 6.019532 2.339844 11.667969 6.589844 15.910156 4.25 4.25 9.898437 6.589844 15.910156 6.589844h2.5v71.667969zm0 0" data-original="#000000" class="active-path" style="fill:#000000"/><path d="m276.667969 233.914062c12.40625 0 22.5-10.09375 22.5-22.5s-10.09375-22.5-22.5-22.5-22.5 10.09375-22.5 22.5 10.09375 22.5 22.5 22.5zm0-30c4.136719 0 7.5 3.363282 7.5 7.5 0 4.136719-3.363281 7.5-7.5 7.5s-7.5-3.363281-7.5-7.5c0-4.136718 3.363281-7.5 7.5-7.5zm0 0" data-original="#000000" class="active-path" style="fill:#000000"/></g></g> </svg>
