<?xml version="1.0" encoding="UTF-8" standalone="no"?>
<svg
   xmlns:dc="http://purl.org/dc/elements/1.1/"
   xmlns:cc="http://creativecommons.org/ns#"
   xmlns:rdf="http://www.w3.org/1999/02/22-rdf-syntax-ns#"
   xmlns:svg="http://www.w3.org/2000/svg"
   xmlns="http://www.w3.org/2000/svg"
   xmlns:sodipodi="http://sodipodi.sourceforge.net/DTD/sodipodi-0.dtd"
   xmlns:inkscape="http://www.inkscape.org/namespaces/inkscape"
   height="100%"
   viewBox="0 0 512 512"
   width="100%"
   class=""
   version="1.1"
   id="svg36"
   sodipodi:docname="survey.svg"
   inkscape:version="0.92.4 5da689c313, 2019-01-14">
  <metadata
     id="metadata42">
    <rdf:RDF>
      <cc:Work
         rdf:about="">
        <dc:format>image/svg+xml</dc:format>
        <dc:type
           rdf:resource="http://purl.org/dc/dcmitype/StillImage" />
        <dc:title></dc:title>
      </cc:Work>
    </rdf:RDF>
  </metadata>
  <defs
     id="defs40" />
  <sodipodi:namedview
     pagecolor="#ffffff"
     bordercolor="#666666"
     borderopacity="1"
     objecttolerance="10"
     gridtolerance="10"
     guidetolerance="10"
     inkscape:pageopacity="0"
     inkscape:pageshadow="2"
     inkscape:window-width="1920"
     inkscape:window-height="1011"
     id="namedview38"
     showgrid="false"
     inkscape:pagecheckerboard="true"
     inkscape:zoom="0.65186406"
     inkscape:cx="452.36693"
     inkscape:cy="149.01887"
     inkscape:window-x="0"
     inkscape:window-y="768"
     inkscape:window-maximized="1"
     inkscape:current-layer="svg36" />
  <g
     id="g34"
     transform="translate(38.5)">
    <g
       id="g32">
      <path
         d="m 387.5,97.496094 h -220 c -22.08984,0 -40,17.906246 -40,39.999996 V 464.5 c 0,22.08984 17.91016,40 40,40 h 220 c 22.08984,0 40,-17.91016 40,-40 V 137.49609 c 0,-22.09375 -17.91016,-39.999996 -40,-39.999996 z m 0,0"
         data-original="#8D6E63"
         class=""
         style="fill:#8d6e63"
         data-old_color="#ce795f"
         id="path2"
         inkscape:connector-curvature="0" />
      <path
         d="M 397.5,98.757812 V 137.49609 L 167.5,474.5 h -38.73828 c 4.4375,17.25391 20.09765,30 38.73828,30 h 220 c 22.08984,0 40,-17.90625 40,-40 V 137.49609 c 0,-18.64062 -12.74609,-34.30078 -30,-38.738278 z m 0,0"
         data-original="#5F4339"
         class=""
         style="fill:#5f4339"
         data-old_color="#a05a4b"
         id="path4"
         inkscape:connector-curvature="0" />
      <path
         d="M 375,474.5 H 180 c -12.42578,0 -22.5,-10.07422 -22.5,-22.5 V 149.99609 c 0,-12.42578 10.07422,-22.5 22.5,-22.5 h 195 c 12.42578,0 22.5,10.07422 22.5,22.5 V 452 c 0,12.42578 -10.07422,22.5 -22.5,22.5 z m 0,0"
         data-original="#FFF9EB"
         class=""
         id="path6"
         inkscape:connector-curvature="0"
         style="fill:#fff9eb" />
      <path
         d="m 375,127.49609 h -7.5 V 422 c 0,12.42578 -10.07422,22.5 -22.5,22.5 H 157.5 v 7.5 c 0,12.42578 10.07422,22.5 22.5,22.5 h 195 c 12.42578,0 22.5,-10.07422 22.5,-22.5 V 149.99609 c 0,-12.42578 -10.07422,-22.5 -22.5,-22.5 z m 0,0"
         data-original="#E9E3D5"
         class=""
         id="path8"
         inkscape:connector-curvature="0"
         style="fill:#e9e3d5" />
      <path
         d="m 320.17969,77.59375 c -5.63282,-0.375 -18.98828,0.386719 -21.79297,-0.566406 C 294.96484,75.863281 292.5,72.632812 292.5,68.816406 c 0,-3.109375 1.42578,-6.03125 3.84375,-7.988281 6.38281,-5.152344 10.58203,-12.917969 11.09766,-21.5 0.004,-0.02344 0.008,-0.04687 0.008,-0.07031 C 308.44531,22.035156 294.76172,7.5 277.5,7.5 c -16.56641,0 -30,13.425781 -30,29.996094 0,9.429687 4.35156,17.832031 11.15625,23.332031 2.41406,1.953125 3.84375,4.875 3.84375,7.984375 0,0.273438 -0.0312,0.660156 -0.0312,0.660156 -0.33984,4.484375 -4.07813,8.019532 -8.64844,8.019532 H 237.5 c -22.13281,0 -40,17.976562 -40,40.000002 0.0742,13.78515 11.48828,25 25.32422,25 H 332.5 c 13.80859,0 25,-11.19141 25,-25 0,-21.02344 -16.33984,-38.515628 -37.32031,-39.89844 z m 0,0"
         data-original="#BE9C91"
         class=""
         style="fill:#be9c91"
         data-old_color="#8b9ba9"
         id="path10"
         inkscape:connector-curvature="0" />
      <path
         d="m 327.5,78.769531 v 11.226563 c 0,12.425786 -10.07422,22.499996 -22.5,22.499996 H 197.82422 c -0.20703,1.64063 -0.32422,3.30469 -0.32422,5 0.0742,13.78516 11.48828,25 25.32422,25 h 109.52344 c 13.80078,0 25.18359,-11.29297 25.15234,-25.09765 -0.043,-18.464846 -12.69141,-34.17969 -30,-38.628909 z m 0,0"
         data-original="#8D6E63"
         class=""
         style="fill:#8d6e63"
         data-old_color="#6c7a88"
         id="path12"
         inkscape:connector-curvature="0" />
      <path
         d="m 71.25,446.74609 c -14.976562,0 -26.25,-21.98828 -26.25,-36.25 v -213 c 0,-14.47265 11.773438,-26.25 26.25,-26.25 14.476562,0 26.25,11.77735 26.25,26.25 v 213 c 0,14.26172 -11.273438,36.25 -26.25,36.25 z m 0,0"
         data-original="#8D6E63"
         class=""
         style="fill:#8d6e63"
         data-old_color="#6697cc"
         id="path14"
         inkscape:connector-curvature="0" />
      <path
         d="m 71.25,171.24609 c -1.273438,0 -2.523438,0.0977 -3.75,0.27344 V 396.75 c 0,11.04687 -8.953125,19.99609 -20,19.99609 h -1.871094 c 2.550782,13.64844 12.707032,30 25.621094,30 14.976562,0 26.25,-21.98828 26.25,-36.25 v -213 c 0,-14.47265 -11.773438,-26.25 -26.25,-26.25 z m 0,0"
         data-original="#5F4339"
         class=""
         style="fill:#5f4339"
         data-old_color="#336499"
         id="path16"
         inkscape:connector-curvature="0" />
      <path
         d="m 302.5,375.58203 h -10 V 273.91406 c 0,-8.28515 -6.71484,-15 -15,-15 h -25 c -8.28516,0 -15,6.71485 -15,15 0,8.28516 6.71484,15 15,15 h 10 v 86.66797 h -10 c -8.28516,0 -15,6.71484 -15,15 0,8.28125 6.71484,15 15,15 h 50 c 8.28516,0 15,-6.71875 15,-15 0,-8.28516 -6.71484,-15 -15,-15 z m 0,0"
         data-original="#5F4339"
         class=""
         style="fill:#5f4339"
         data-old_color="#4b7cb1"
         id="path18"
         inkscape:connector-curvature="0" />
      <path
         d="m 291.66797,211.41406 c 0,8.28516 -6.71485,15 -15,15 -8.28516,0 -15,-6.71484 -15,-15 0,-8.28515 6.71484,-15 15,-15 8.28515,0 15,6.71485 15,15 z m 0,0"
         data-original="#5F4339"
         class=""
         style="fill:#5f4339"
         data-old_color="#4b7cb1"
         id="path20"
         inkscape:connector-curvature="0" />
      <path
         d="m 285,37.496094 c 0,4.140625 -3.35938,7.5 -7.5,7.5 -4.14063,0 -7.5,-3.359375 -7.5,-7.5 0,-4.144532 3.35937,-7.5 7.5,-7.5 4.14062,0 7.5,3.355468 7.5,7.5 z m 0,0"
         data-original="#000000"
         class="active-path"
         style="fill:#000000"
         id="path22"
         inkscape:connector-curvature="0" />
      <path
         d="m 387.5,89.996094 c -4.14453,0 -7.5,3.355468 -7.5,7.5 0,4.140626 3.35547,7.499996 7.5,7.499996 17.92187,0 32.5,14.57813 32.5,32.5 V 464.5 c 0,17.92187 -14.57813,32.5 -32.5,32.5 h -220 C 149.57812,497 135,482.42187 135,464.5 V 137.49609 c 0,-17.92187 14.57812,-32.5 32.5,-32.5 h 24.17969 c -1.08594,3.98438 -1.67969,8.17188 -1.67969,12.5 0,0.83985 0.043,1.67188 0.10547,2.5 H 180 c -16.54297,0 -30,13.45704 -30,30 V 452 c 0,16.54297 13.45703,30 30,30 h 195 c 16.54297,0 30,-13.45703 30,-30 V 149.99609 c 0,-16.54296 -13.45703,-30 -30,-30 h -10.10547 c 0.0625,-0.82812 0.10547,-1.66015 0.10547,-2.5 0,-26.191402 -21.30859,-47.499996 -47.5,-47.499996 h -16.32031 c -0.64844,0 -1.17969,-0.53125 -1.17969,-1.183594 0,-0.824219 0.38672,-1.609375 1.05859,-2.152344 C 309.91797,59.5 315,48.871094 315,37.496094 315,16.820312 298.17969,0 277.5,0 256.82031,0 240,16.820312 240,37.496094 c 0,11.375 5.08203,22.003906 13.9375,29.164062 0.67578,0.542969 1.0625,1.328125 1.0625,2.152344 0,0.652344 -0.52734,1.183594 -1.17969,1.183594 H 237.5 c -15.94922,0 -30.07422,7.90625 -38.69141,20 H 167.5 c -26.19141,0 -47.5,21.308596 -47.5,47.499996 V 464.5 c 0,26.19141 21.30859,47.5 47.5,47.5 h 220 c 26.19141,0 47.5,-21.30859 47.5,-47.5 V 137.49609 c 0,-26.1914 -21.30859,-47.499996 -47.5,-47.499996 z m -150,-5 h 16.32031 C 262.74219,84.996094 270,77.734375 270,68.8125 270,63.441406 267.58594,58.402344 263.36719,54.996094 258.05078,50.695312 255,44.316406 255,37.496094 255,25.089844 265.09375,15 277.5,15 c 12.40625,0 22.5,10.089844 22.5,22.496094 0,6.820312 -3.05078,13.199218 -8.37109,17.5 C 287.41406,58.402344 285,63.441406 285,68.8125 c 0,8.921875 7.25781,16.183594 16.17969,16.183594 H 317.5 c 17.92188,0 32.5,14.578125 32.5,32.499996 0,9.64844 -7.85156,17.5 -17.5,17.5 h -110 c -9.64844,0 -17.5,-7.85156 -17.5,-17.5 0,-17.921871 14.57813,-32.499996 32.5,-32.499996 z m -15,64.999996 h 110 c 11.48047,0 21.58203,-5.98828 27.36328,-15 H 375 c 8.26953,0 15,6.72657 15,15 V 452 c 0,8.26953 -6.73047,15 -15,15 H 180 c -8.26953,0 -15,-6.73047 -15,-15 V 149.99609 c 0,-8.27343 6.73047,-15 15,-15 h 15.13672 c 5.78125,9.01172 15.88281,15 27.36328,15 z m 0,0"
         data-original="#000000"
         class="active-path"
         style="fill:#000000"
         id="path24"
         inkscape:connector-curvature="0" />
      <path
         d="m 78.75,164.59766 v -15.85157 c 4.144531,0 7.5,-3.35547 7.5,-7.5 0,-4.14062 -3.355469,-7.5 -7.5,-7.5 h -7.5 c -35.152344,0 -63.75,28.60157 -63.75,63.75 v 65.5 c -4.144531,0 -7.5,3.35547 -7.5,7.5 0,4.14453 3.355469,7.5 7.5,7.5 H 15 c 4.144531,0 7.5,-3.35547 7.5,-7.5 v -73 c 0,-24.32812 17.917969,-44.55078 41.25,-48.17187 v 15.27344 C 48.738281,168.01953 37.5,181.46875 37.5,197.49609 v 213 c 0,15.16797 10.210938,37.09375 26.25,42.5 v 8.25 c 0,4.14453 3.355469,7.5 7.5,7.5 4.144531,0 7.5,-3.35547 7.5,-7.5 v -8.25 c 16.039062,-5.40625 26.25,-27.33203 26.25,-42.5 v -213 C 105,181.46875 93.761719,168.01953 78.75,164.59766 Z M 90,410.49609 c 0,11.875 -9.695312,28.75 -18.75,28.75 -9.054688,0 -18.75,-16.875 -18.75,-28.75 v -213 c 0,-10.33593 8.410156,-18.75 18.75,-18.75 10.339844,0 18.75,8.41407 18.75,18.75 z m 0,0"
         data-original="#000000"
         class="active-path"
         style="fill:#000000"
         id="path26"
         inkscape:connector-curvature="0" />
      <path
         d="m 252.5,368.07812 c -12.4375,0 -22.5,10.06641 -22.5,22.5 0,12.4375 10.06641,22.5 22.5,22.5 h 50 c 12.4375,0 22.5,-10.0625 22.5,-22.5 0,-12.4375 -10.0625,-22.5 -22.5,-22.5 -4.14063,0 -7.5,3.3711 -7.5,7.5 0,4.14063 3.35937,7.5 7.5,7.5 4.12891,0.0117 7.48828,3.3711 7.5,7.5 -0.0117,4.13282 -3.37109,7.49219 -7.5,7.5 h -50 c -4.12891,-0.008 -7.48828,-3.36718 -7.5,-7.5 0.0117,-4.1289 3.37109,-7.48828 7.5,-7.5 h 10 c 4.07812,0 7.5,-3.3164 7.5,-7.5 v -86.66796 c 0,-1.97266 -0.80078,-3.91016 -2.19922,-5.30078 -1.39062,-1.39844 -3.33203,-2.19922 -5.30078,-2.19922 h -10 c -4.12891,0 -7.48828,-3.3711 -7.5,-7.5 0.0117,-4.1211 3.37109,-7.48828 7.5,-7.5 h 25 c 4.12891,0.0117 7.48828,3.3789 7.5,7.5 v 81.66796 c 0,4.14063 3.37109,7.5 7.5,7.5 4.14062,0 7.5,-3.35937 7.5,-7.5 v -81.66796 c 0,-12.46485 -10.09766,-22.48828 -22.5,-22.48828 h -25 c -12.41016,0 -22.5,10.03124 -22.5,22.48828 0,6.01953 2.33984,11.66796 6.58984,15.91015 4.25,4.25 9.89844,6.58985 15.91016,6.58985 h 2.5 v 71.66797 z m 0,0"
         data-original="#000000"
         class="active-path"
         style="fill:#000000"
         id="path28"
         inkscape:connector-curvature="0" />
      <path
         d="m 276.66797,233.91406 c 12.40625,0 22.5,-10.09375 22.5,-22.5 0,-12.40625 -10.09375,-22.5 -22.5,-22.5 -12.40625,0 -22.5,10.09375 -22.5,22.5 0,12.40625 10.09375,22.5 22.5,22.5 z m 0,-30 c 4.13672,0 7.5,3.36328 7.5,7.5 0,4.13672 -3.36328,7.5 -7.5,7.5 -4.13672,0 -7.5,-3.36328 -7.5,-7.5 0,-4.13672 3.36328,-7.5 7.5,-7.5 z m 0,0"
         data-original="#000000"
         class="active-path"
         style="fill:#000000"
         id="path30"
         inkscape:connector-curvature="0" />
    </g>
  </g>
</svg>
