<?xml version="1.0" encoding="UTF-8"?>
<svg version="1.1" viewBox="0 0 135.47 135.47" xmlns="http://www.w3.org/2000/svg" xmlns:cc="http://creativecommons.org/ns#" xmlns:dc="http://purl.org/dc/elements/1.1/" xmlns:rdf="http://www.w3.org/1999/02/22-rdf-syntax-ns#">
 <defs>
  <clipPath id="clipPath568">
   <path d="m0 980h1400v-980h-1400z"/>
  </clipPath>
 </defs>
 <metadata>
  <rdf:RDF>
   <cc:Work rdf:about="">
    <dc:format>image/svg+xml</dc:format>
    <dc:type rdf:resource="http://purl.org/dc/dcmitype/StillImage"/>
    <dc:title/>
   </cc:Work>
  </rdf:RDF>
 </metadata>
 <g transform="translate(0 -161.53)">
  <g transform="matrix(.20952 0 0 -.20401 -176.07 342.76)">
   <g clip-path="url(#clipPath568)">
    <g transform="translate(1365.9 505.36)">
     <path d="m0 0c0-111.72-90.564-202.28-202.28-202.28s-202.28 90.564-202.28 202.28 90.565 202.28 202.28 202.28 202.28-90.564 202.28-202.28" fill="#d9b9ad"/>
    </g>
    <g transform="translate(1245.9 690.21)">
     <path d="m0 0s2.838-20.353-8.361-25.672c-11.199-5.32 54.408 11.385 107.42-70.74l-113.11 13.066s-91.084 41.062-79.884 61.967c11.198 20.904 61.331 46.491 93.938 21.379" fill="#d9b9ad"/>
    </g>
    <g transform="translate(1311.5 367.03)">
     <path d="m0 0s51.402 54.438 52.885 113.35c1.482 58.915-21.004 117.85-21.004 117.85l-78.304-17.126s-39.568-63.087-28.743-104.15c10.825-41.063 25.384-79.139 25.384-79.139z" fill="#d9b9ad" fill-opacity=".94118"/>
    </g>
    <g transform="translate(1365.9 505.36)">
     <path d="m0 0c0-111.72-90.564-202.28-202.28-202.28s-202.28 90.564-202.28 202.28 90.565 202.28 202.28 202.28 202.28-90.564 202.28-202.28z" fill="none" stroke="#000" stroke-miterlimit="10" stroke-width="8.242"/>
    </g>
    <g transform="translate(1204.3 446.72)">
     <path d="m0 0s-7.967-4.48-6.474-19.412c0 0-6.159-2.426-3.36-13.439 0 0-11.758-6.313-7.465-13.048 4.293-6.736 8.773-7.856 8.773-7.856s-13.626-8.212-9.147-24.264l-6.905-13.626s-10.639-24.263-2.986-49.087c7.652-24.825 9.425-29.491 4.619-40.129l-10.219-2.1-110.59 123.08v5.841l20.441 64.113s22.462 2.299 17.18 15.988c-5.282 13.69-8.082 12.709-8.082 12.709l39.056 91.318h32.29s15.118 0 16.052-12.692l-0.187-18.105s-7.652-4.107-6.347-7.279c1.307-3.173 7.84-3.36 7.84-3.36s28.999-54.128 25.512-88.657m-151.82-8.913s-2.706 3.826-4.433 1.214c-1.726-2.614-3.733-1.401-4.059 1.679-0.328 3.08 0.979 6.86 4.432 7.373s9.613 6.626 4.06 14.698c0 0 5.086 3.127 3.406 7s3.173 2.892 3.173 2.892 4.573 0.467 4.014-5.505c-0.561-5.973-10.479-29.567-10.479-29.567zm-2.007 319.31s14.652 22.397 23.705 14.838c7.465-4.666-23.705-14.838-23.705-14.838m240.46-198.07c24.114 12.543 39.293 15.045 39.293 15.045s27.103 12.905 0.363 31.239c-27.301 15.254-50.735 7.161-65.335 12.328-14.599 5.166-48.256 11.842-48.256 11.842l-64.508 29.187s87.801 12.285 101.29 100.43c13.487 88.148-73.062 133.08-111.91 116.77 0 0-68.914-13.192-59.855-78.956 0 0 4.183-12.117 12.01-11.434 7.828 0.684 13.605 6.608 9.877 13.095-3.729 6.487-8.208 4.527-8.208 4.527s-0.476 41.283 51.393 41.966 48.59-49.72 48.59-49.72 1.935-48.101-61.226-48.497c0 0-13.891 32.58-46.717 24.838 0 0-23.389 29.448-62.799-2.606 0 0-52.134-38.587-34.152-94.394 0 0 68.485-61.329 93.207-48.489 0 0 6.804-2.279 14.363 5.42 0 0 8.367 5.256 29.67-1.268 0 0 47.416-11.814 44.242-20.555-3.172-8.74-23.535 1.989-52.456-3.469 0 0-13.116-3.618-14.312-12.925l-18.739-63.153s-6.225 4.445-9.424 3.073c-3.198-1.373-1.238-5.922-1.238-5.922l-12.529-6.229-1.329 4.269s-9.8-1.002-8.866-12.295c0 0-13.533-6.622-8.773-23.586 0 0-7.921-1.797-4.87-11.41 0 0-6.554-3.141-3.361-9.947 0 0 0.489-6.352-3.759-8.048-4.248-1.697-4.75-9.858 1.66-14.597 0 0-1.166-5.222 1.922-9.183 3.087-3.961 7.848-8.993 13.027-6.613l-3.591-7.164-8.494-24.24s-8.993-10.808-4.217-21.362c4.777-10.555 10.843-5.609 10.843-5.609l117.12-116.93s-3.829-4.974 1.538-14.992c5.369-10.019 11.526-3.347 11.526-3.347s3.566 14.09 18.267 13.753c0 0 35.54 28.928 79.284 13.77 0 0 36.022-9.291 48.188-6.484 12.166 2.806 12.166 17.831 12.166 17.831l-0.954 27.755-8.724 35.933-18.813 42.39s-16.491 28.775-27.876 26.722c-11.386-2.054-14.466 11.665-14.466 11.665l-8.245 20.032-3.088 19.372 4.24 27.353s12.899 60.274 37.013 72.817" fill="#402d26"/>
    </g>
    <g transform="translate(1193.6 249.81)">
     <path d="m0 0s4.091 8.958-3.779 13.112c-7.871 4.155-10.308 1.325-7.184 7.242 0 0 2.906 12.875-1.114 20.245-4.022 7.37-7.241 33.407-7.241 33.407s-0.379 30.656 8.979 36.676v-9.851s-2.559-43.41 28.154-52.989c0 0 26.352-4.9 32.779 0.833 0 0 17.065-30.757 30.038-35.237 0 0-57.114 14.932-80.632-13.438" fill="#d9b9ad" fill-opacity=".94118"/>
    </g>
    <g transform="translate(992.18 613.21)">
     <path d="m0 0s-6.996-20.579-13.04-15.982c-6.044 4.596 0 17.124 0 17.124s9.867 12.997 7.441 23.682c-2.426 10.686 4.177 34.829 4.177 34.829s7.921 11.785 11.123 8.169c3.201-3.615 7.44 0.957 7.44 0.957s7.358 17.988 11.394 14.582c4.035-3.406 2.55-6.616 0-10.302-2.551-3.687-5.657-9.413-2.7-12.562 2.956-3.15 15.064 6.649 15.064 6.649s16.316 12.609 25.376-1.149l14.579-20.786s11.134-24.427 13.108-13.168c0 0-8.284 20.309-7.867 22.83s10.88-10.845 22.913-11.955c0 0-3.925-7.455 4.754-12.401 8.678-4.946-7.466-3.173-7.466-3.173s-12.063-1.493-14.022-14.652c0 0-33.358-28.027-47.044-23.066l-8.76 7.948s-11.273-2.668-13.699 7.718c0 0-6.664-8.657-11.824-4.921-5.161 3.735-10.947-0.371-10.947-0.371" fill="#d9b9ad" fill-opacity=".94118"/>
    </g>
    <g transform="translate(990.87 634.51)">
     <path d="m0 0s21.604 12.528 19.796 17.918c0 0-13.986-3.43-16.086-8.959 0 0-4.34-5.669-3.71-8.959" fill="#ccc"/>
    </g>
    <g transform="translate(1024.1 609.82)">
     <path d="m0 0s0.059 6.425 5.098 7.544c5.04 1.12 27.647 0.98 23.028 5.25 0 0-25.167 10.234-36.241-4.11 0 0-0.413-8.529 8.115-8.684" fill="#ed1c24"/>
    </g>
    <g transform="translate(1016.7 614.57)">
     <path d="m0 0s0.104 0.115 0.301 0.333c0.209 0.231 0.514 0.547 0.904 0.923 0.385 0.391 0.887 0.816 1.448 1.322 0.593 0.467 1.228 1.034 1.993 1.558 0.738 0.559 1.58 1.102 2.483 1.653 0.893 0.565 1.902 1.054 2.924 1.58 1.069 0.434 2.128 0.983 3.295 1.312 0.574 0.186 1.152 0.374 1.732 0.563l1.792 0.394c1.184 0.319 2.414 0.371 3.603 0.519 0.593 0.091 1.189 0.079 1.777 0.072 0.586-3e-3 1.165-6e-3 1.735-9e-3 1.137-5e-3 2.224-0.236 3.256-0.333 1.04-0.073 1.979-0.405 2.861-0.594 0.873-0.237 1.697-0.36 2.373-0.658 0.686-0.256 1.285-0.479 1.778-0.662 0.983-0.367 1.546-0.576 1.546-0.576s-0.574 0.176-1.577 0.485c-0.501 0.154-1.109 0.34-1.806 0.555-0.685 0.256-1.514 0.331-2.389 0.514-0.883 0.135-1.82 0.409-2.849 0.421-1.022 0.035-2.092 0.2-3.203 0.14-0.554-0.03-1.118-0.06-1.688-0.091-0.57-0.025-1.146-0.046-1.718-0.17-1.143-0.212-2.319-0.327-3.44-0.703l-1.694-0.476c-0.545-0.213-1.087-0.426-1.625-0.636-1.093-0.375-2.077-0.965-3.065-1.432-0.943-0.56-1.871-1.075-2.686-1.662-0.827-0.571-1.592-1.13-2.257-1.699-0.693-0.534-1.257-1.105-1.787-1.573-0.496-0.503-0.944-0.928-1.274-1.307-0.345-0.374-0.596-0.665-0.752-0.861-0.169-0.211-0.26-0.323-0.26-0.323z"/>
    </g>
    <g transform="translate(1067.9 764.34)">
     <path d="m0 0-17.358-7.232c7.699 15.445 22.118 20.251 24.859 14.371 2.742-5.879-7.501-7.139-7.501-7.139m96.86 114.67s-64.383-0.579-79.782-50.414c0 0-11.198-39.336 7.14-43.535 19.038 1.12 10.919 15.958 10.919 15.958l-6.159 2.24s-1.401 37.516 43.394 41.296c0 0 44.656 4.479 53.615-35.557 8.959-40.035-13.728-58.152-58.239-62.113 0 0-15.354 30.923-47.851 24.821 0 0-16.482 25.544-53.605 3.981 0 0-62.882-41.441-43.4-102.83 0 0 2.356 10.013 8.935 7.773s10.079-0.28 11.9 4.48c1.819 4.759 5.878 11.198 5.878 11.198s8.497 1.519 5.729-4.472c-2.768-5.992-6.009-10.366-6.009-10.366s-2.508-8.678 2.24-7.839c4.748 0.838 15.399 8.259 15.399 8.259s15.342 10.492 22.859-1.613l14.809-21.098 9.15-15.715s7.429-2.478 3.893 3.275c-3.536 5.754-7.875 18.633-7.875 18.633l-2.24 6.439s-8.82 14.138-9.379 23.097c-0.561 8.959-4.9 11.759-10.919 8.959-6.02-2.799-12.542-7.412-12.542-7.412s14.214 39.094 45.177 43.061c30.964 3.968 40.297-13.185 40.67-30.086 0 0 63.46-14.475 67.94 35.547 0 0 19.038-50.768-89.964-66.26l44.606-20.302s104.2 10.017 104.17 125.66c0 0-12.641 90.477-90.463 94.938" fill="#261914"/>
    </g>
    <g transform="translate(1186.5 369.44)">
     <path d="m0 0s-14.183-48.144 14.002-66.809c26.69-14.558 44.877-4.146 44.877-4.146l13.309-21.565s6.985-17.206 44.789-19.521c0 0 24.594-4.578 27.769 12.651 3.175 17.23-4.298 52.599-4.298 52.599l-11.985 37.562s-21.698 45.87-39.056 48.062c0 0-9.086-1.383-11.542 5.375 0 0-2.596-19.84-15.195-17.88s-24.077 9.99-24.077 9.99-9.94 3.588-22.258-6.211c0 0-23.99-16.119-16.335-30.107" fill="#d9b9ad" fill-opacity=".94118"/>
    </g>
    <g transform="translate(1188.8 316.62)">
     <path d="m0 0s-8.356-3.266-5.671-8.959c2.685-5.692 6.885-4.013 6.885-4.013l2.986-4.946s-4.106-0.746-1.679-5.506c2.425-4.76 6.065-4.573 8.958-1.399l4.853-2.293s-1.307-5.734 3.452-7.321c4.76-1.585 7.56 6.253 7.56 6.253l5.599-0.466s-1.773-7.067 4.853-7.079c6.626-0.013 6.72 8.572 6.72 8.572l2.613 1.214s2.426-5.88 6.159-5.04 3.421 5.666-1.043 11.092c0 0-26.208-4.28-37.22 4.68-11.012 8.959-15.025 15.211-15.025 15.211" fill="#d9b9ad" fill-opacity=".94118"/>
    </g>
    <g transform="translate(1079.9 467.34)">
     <path d="m0 0s17.591-6.066 17.591 8.923c0 0-2.846 9.835-11.152 6.942 0 0-9.729-0.829-11.199-10.435 0 0-1.469-4.1 0-8.603 1.47-4.503-0.21-9.822-7.489-10.872 0 0 13.228-4.106 12.249 14.045" fill="#d9b9ad" fill-opacity=".94118" opacity=".99"/>
    </g>
    <g transform="translate(1047.7 437.59)">
     <path d="m0 0s1.005 4.369 3.875 0.8c2.869-3.571-0.42-7.42-0.42-7.42s-12.389-6.299-16.589 8.539l-0.28 6.51s-5.509 4.96-3.909 9.234c1.599 4.275 6.849 8.964 5.519 13.933s4.13 8.399 4.13 8.399-4.057 8.559 4.375 12.923c0 0-4.224 13.118 9.017 22.657 0 0-0.082 12.339 9.291 10.929 0 0-1.802-5.796 0.613-7.569 2.414-1.774-4.025 8.025 14.08 10.638 0 0-4.969 5.877 1.482 6.438 6.451 0.562 8.69-4.571 8.69-4.571s2.321-9.87-7.839-7.373c0 0 8.212-11.758-5.319-17.265 0 0 8.398-9.705-1.028-16.145l-9.424-6.439s-5.531-1.423-2.672-10.044c0 0-6.848 3.792-6.287-2.228 0.559-6.019-2.474-6.766-2.474-6.766s6.117-8.276-2.284-14.053c-8.401-5.778-7.217-10.606-2.547-11.127" fill="#d9b9ad" fill-opacity=".94118"/>
    </g>
    <g transform="translate(1051 489.58)">
     <path d="m0 0s-5.039 14.253 5.973 18.546c0 0-3.327 9.772 5.476 14.918 0 0-1.09-10.812 4.697-15.665 5.786-4.852 7.185-15.491-0.934-18.945-8.119-3.452 2.543 5.693-2.881 13.719-5.425 8.026 0.268-12.267-12.331-12.573" fill="#ed1c24"/>
    </g>
    <g transform="translate(1043.1 440.14)">
     <path d="m0 0s-7.139 7.56-3.85 11.549c3.29 3.99 11.9-0.63 7.77 8.189-4.13 8.82 3.43 6.51 5.319 2.59 1.89-3.92 4.34-10.061 0-11.96-4.34-1.898-10.079-5.608-9.239-10.368" fill="#ed1c24"/>
    </g>
    <g transform="translate(1063 469.77)">
     <path d="m0 0s5.316 0.674 4.687 4.734c-0.63 4.06 7.277 11.957 13.472 6.994l2.581 1.117s-3.014 10.63-7.78 7.932c-3.981-2.255-2.81-2.675-11.843-7.644-6.999-3.85-2.445-10.983-2.445-10.983z" fill="#ed1c24"/>
    </g>
    <g transform="translate(1065.2 699.7)">
     <path d="m0 0s27.187-21.519 47.531-2.772c20.345 18.746 5.786-5.705-6.159-8.878s-0.186-9.332-0.186-9.332l22.677 3.733 22.678 6.533s54.313 18.851 44.608 55.994c0 0-0.709-27.6-28.258-34.611 0 0-20.037-5.658-39.355-0.479 0 0 0.28 25.197-25.617 29.397-25.898 4.2-47.88-14.448-59.776-42.29 0 0 19.774 16.035 21.857 2.705" fill="#d9b9ad" fill-opacity=".94118"/>
    </g>
    <g transform="translate(1067.6 723.19)">
     <path d="m0 0s13.859 14.698 36.537 11.619c22.677-3.08 21.277-25.375 21.277-25.375h-12.598s0.592 16.128-21.138 15.995c-21.729-0.132 12.879-1.959 14.139-9.938 1.26-7.98-4.901-26.038-35.696-11.199-30.797 14.838 20.29-1.178 18.618 9.939-1.672 11.116-22.819-3.78-21.139 8.959" fill="#ed1c24"/>
    </g>
    <g transform="translate(1163.6 256.84)">
     <path d="m0 0c-5.079 4.742-10.123 9.518-15.108 14.35l-7.479 7.248-7.439 7.286-7.399 7.325-7.385 7.339-14.664 14.781-14.557 14.883c-4.865 4.949-9.657 9.969-14.471 14.968-4.816 4.995-9.624 10.001-14.382 15.053l-7.159 7.558-7.117 7.598 0.201-0.178c-0.439 0.351-0.79 0.66-1.166 1.001-0.368 0.334-0.726 0.676-1.076 1.025-0.7 0.7-1.371 1.43-2.007 2.197-1.271 1.53-2.409 3.215-3.252 5.114-0.417 0.948-0.734 1.965-0.92 3.023-0.102 0.525-0.148 1.071-0.163 1.615-0.022 0.544 0.029 1.093 0.089 1.639 0.1 0.542 0.203 1.083 0.389 1.601 0.158 0.524 0.395 1.02 0.639 1.499 0.256 0.476 0.537 0.931 0.861 1.35 0.295 0.445 0.673 0.802 1.008 1.203l-0.268-0.462c1.772 5.165 3.635 10.3 5.452 15.452 1.852 5.139 3.724 10.272 5.646 15.389-1.384-5.288-2.819-10.56-4.274-15.826-1.489-5.255-2.934-10.524-4.468-15.764l-0.046-0.156-0.222-0.306c-0.244-0.338-0.547-0.643-0.748-0.998-0.237-0.339-0.428-0.696-0.6-1.057-0.159-0.365-0.316-0.731-0.405-1.112-0.115-0.375-0.161-0.764-0.217-1.148-0.016-0.391-0.037-0.779 3e-3 -1.174 0.033-0.391 0.082-0.786 0.184-1.177 0.181-0.784 0.464-1.563 0.845-2.315 0.74-1.512 1.77-2.942 2.951-4.255 0.589-0.657 1.215-1.29 1.868-1.893 0.326-0.302 0.659-0.597 0.998-0.881 0.33-0.28 0.698-0.576 1.002-0.8l0.087-0.064 0.115-0.114 7.37-7.352 7.33-7.393c4.9-4.914 9.753-9.876 14.595-14.847 4.845-4.968 9.712-9.915 14.505-14.933l14.419-15.018 14.315-15.12 7.103-7.611 7.09-7.624 7.049-7.664 7.01-7.703c4.673-5.135 9.288-10.326 13.868-15.552" fill="#ed1c24"/>
    </g>
    <g transform="translate(1092.5 526.79)">
     <path d="m0 0c0.387 1.882 0.741 3.772 1.16 5.645 0.405 1.876 0.805 3.754 1.242 5.622 0.838 3.744 1.737 7.471 2.645 11.196 0.885 3.731 1.878 7.431 2.811 11.147 0.942 3.715 1.976 7.403 2.959 11.106 0.973 3.705 2.049 7.381 3.085 11.068l1.565 5.528 0.395 1.381 0.102 0.344 0.052 0.172 0.025 0.086 0.074 0.226 0.018 0.041c0.088 0.215 0.241 0.577 0.355 0.802 0.474 0.999 1.033 1.899 1.634 2.782 1.226 1.736 2.665 3.333 4.358 4.639 0.396 0.359 0.865 0.626 1.297 0.937 0.439 0.304 0.878 0.607 1.358 0.844l1.41 0.757 1.485 0.584c0.976 0.435 2.029 0.6 3.04 0.894 1.029 0.203 2.07 0.324 3.102 0.457 1.033 0.022 2.07 0.078 3.097 0.061l3.051-0.252-0.226 0.013 9.084-0.249c3.027-0.075 6.055-0.229 9.084-0.34 3.027-0.116 6.056-0.303 9.085-0.457 3.028-0.186 6.056-0.391 9.085-0.647-3.026-0.287-6.052-0.526-9.078-0.744-3.027-0.186-6.053-0.406-9.08-0.554-3.026-0.144-6.052-0.331-9.08-0.438l-9.08-0.346-0.226 0.012-2.681 0.113c-0.887-0.024-1.764-0.111-2.643-0.157-0.858-0.153-1.721-0.284-2.561-0.482-0.812-0.286-1.674-0.433-2.435-0.826-1.598-0.606-3.034-1.535-4.371-2.569-1.333-1.049-2.467-2.351-3.43-3.75-0.466-0.705-0.912-1.442-1.246-2.181-0.097-0.204-0.13-0.285-0.222-0.512l-0.017-0.042c0.12 0.357 0.031 0.087 0.056 0.161l-7e-3 -0.022-0.024-0.086-0.147-0.519-0.405-1.377-1.637-5.507c-1.099-3.669-2.158-7.35-3.319-11-1.152-3.654-2.253-7.323-3.445-10.965-1.202-3.639-2.343-7.296-3.593-10.921-1.226-3.632-2.463-7.261-3.759-10.873-0.63-1.811-1.298-3.611-1.96-5.413-0.648-1.806-1.361-3.593-2.042-5.389" fill="#ed1c24"/>
    </g>
    <g transform="translate(1199.9 413.64)">
     <path d="m0 0c-0.229 1.13-0.305 2.296-0.274 3.467 8e-3 0.587 0.069 1.176 0.174 1.759 0.062 0.29 0.091 0.589 0.181 0.876l0.246 0.868 0.334 0.848c0.11 0.286 0.279 0.545 0.419 0.822 0.136 0.279 0.314 0.534 0.503 0.783 0.192 0.246 0.354 0.522 0.592 0.731l0.677 0.668c0.244 0.2 0.509 0.376 0.766 0.565 0.504 0.406 1.111 0.606 1.673 0.915l-0.51-1.321c-1.323 2.314-2.26 4.753-2.605 7.497-0.116 1.366-0.171 2.812 0.293 4.259 0.425 1.418 1.237 2.864 2.438 3.819 0.551 0.562 1.211 0.891 1.853 1.276l0.243 0.141 0.121 0.069 0.03 0.018c0.043 0.022-0.255-0.126-0.117-0.057l0.05 0.031 0.2 0.122 0.101 0.062c0.018 0.015 3e-3 0.018 7e-3 0.027 6e-3 0.047-0.02-7e-3 0.044 0.081l0.169 0.214c0.469 0.691 0.858 1.766 1.121 2.865 0.53 2.226 0.821 4.639 0.962 7.056 0.144 2.424 0.162 4.874 0.093 7.326-0.047 2.453-0.152 4.913-0.339 7.37-0.379 4.914-0.987 9.818-1.731 14.699-0.778 4.878-1.76 9.724-2.895 14.531-0.576 2.402-1.221 4.786-1.911 7.156-0.672 2.377-1.407 4.736-2.215 7.069-0.819 2.329-1.676 4.647-2.611 6.935-0.934 2.288-1.982 4.527-3.071 6.75-1.096 2.221-2.321 4.377-3.614 6.501-1.315 2.108-2.718 4.176-4.275 6.147 3.736-3.368 6.899-7.389 9.635-11.655 1.386-2.127 2.612-4.352 3.785-6.603 1.173-2.252 2.244-4.557 3.214-6.902 0.979-2.342 1.886-4.713 2.726-7.108 0.824-2.4 1.562-4.827 2.252-7.268 1.399-4.877 2.472-9.841 3.317-14.84 0.874-4.996 1.456-10.043 1.76-15.117 0.322-5.072 0.365-10.176-0.144-15.308-0.271-2.566-0.599-5.146-1.42-7.745-0.422-1.297-0.904-2.619-1.928-3.95-0.135-0.166-0.297-0.332-0.447-0.493-0.136-0.153-0.431-0.378-0.655-0.541l-0.175-0.12-0.104-0.056-0.208-0.109-0.491-0.257c-0.441-0.238-0.94-0.424-1.28-0.761-1.573-1.129-2.275-3.169-2.198-5.441 0.082-2.25 0.741-4.654 1.657-6.804l0.393-0.921-0.903-0.401c-0.461-0.204-0.994-0.301-1.419-0.586-0.22-0.128-0.453-0.244-0.67-0.383l-0.606-0.48c-0.22-0.146-0.367-0.366-0.559-0.546-0.186-0.185-0.367-0.377-0.512-0.602-0.149-0.219-0.33-0.422-0.457-0.66l-0.397-0.711-0.327-0.755c-0.119-0.25-0.181-0.522-0.274-0.784-0.166-0.53-0.309-1.077-0.411-1.632-0.21-1.11-0.321-2.257-0.276-3.406" fill="#ed1c24"/>
    </g>
    <g transform="translate(1111.4 640.39)">
     <path d="m0 0s1.25-0.053 3.418-0.276c2.169-0.222 5.261-0.594 8.936-1.227 1.839-0.309 3.83-0.662 5.918-1.108 2.09-0.441 4.3-0.896 6.557-1.481 2.259-0.579 4.605-1.147 6.954-1.85 2.358-0.674 4.733-1.433 7.098-2.232 2.359-0.812 4.708-1.672 6.991-2.597 2.294-0.899 4.495-1.941 6.628-2.935 1.053-0.534 2.105-1.018 3.1-1.569 0.991-0.566 1.97-1.088 2.9-1.653 1.87-1.103 3.583-2.253 5.092-3.424 1.523-1.145 2.838-2.319 3.902-3.462 1.098-1.103 1.895-2.231 2.495-3.164 0.28-0.489 0.521-0.923 0.721-1.302 0.188-0.387 0.284-0.751 0.393-1.023 0.188-0.554 0.29-0.849 0.29-0.849s-0.181 0.255-0.521 0.733c-0.173 0.231-0.346 0.538-0.619 0.851-0.281 0.302-0.604 0.651-0.966 1.041-0.759 0.738-1.724 1.578-2.924 2.424-0.57 0.452-1.254 0.85-1.95 1.287-0.681 0.452-1.448 0.869-2.233 1.315-1.58 0.877-3.359 1.725-5.238 2.614-1.892 0.869-3.937 1.69-6.037 2.573-1.064 0.412-2.147 0.831-3.243 1.254-1.103 0.407-2.222 0.818-3.348 1.232-2.262 0.81-4.559 1.642-6.881 2.416-2.31 0.808-4.64 1.566-6.932 2.325-2.297 0.753-4.558 1.493-6.745 2.21-4.396 1.422-8.498 2.75-12.015 3.887-3.524 1.139-6.458 2.14-8.512 2.848-2.056 0.708-3.229 1.142-3.229 1.142" fill="#ed1c24"/>
    </g>
    <g transform="translate(998.03 688.61)">
     <path d="m0 0s-0.091 0.424-0.221 1.228c-0.127 0.804-0.324 1.987-0.457 3.504-0.151 1.516-0.277 3.364-0.321 5.491-0.023 2.124-0.038 4.533 0.173 7.15 0.064 1.313 0.227 2.67 0.35 4.085 0.184 1.405 0.362 2.863 0.634 4.348 0.479 2.982 1.185 6.099 2.089 9.28 0.979 3.155 1.996 6.438 3.45 9.61 1.364 3.209 3.043 6.339 4.825 9.407 1.911 2.991 3.927 5.921 6.18 8.594 0.559 0.671 1.115 1.339 1.67 2.004 0.586 0.636 1.195 1.246 1.787 1.863 0.599 0.612 1.179 1.233 1.78 1.823 0.624 0.569 1.242 1.134 1.854 1.694 0.617 0.555 1.211 1.125 1.832 1.651 0.632 0.514 1.264 1.016 1.895 1.503 0.627 0.49 1.249 0.974 1.863 1.453 0.641 0.44 1.274 0.875 1.9 1.304 2.448 1.786 4.981 3.136 7.257 4.445 2.374 1.14 4.481 2.3 6.489 3.029 1.981 0.782 3.673 1.519 5.145 1.935 2.907 0.914 4.567 1.39 4.567 1.39s-1.534-0.833-4.215-2.208c-1.365-0.635-2.902-1.654-4.732-2.651-0.453-0.258-0.92-0.523-1.402-0.797-0.464-0.303-0.942-0.614-1.431-0.935-0.983-0.625-2.018-1.283-3.096-1.968-2.063-1.511-4.348-3.053-6.582-4.919-0.565-0.455-1.139-0.916-1.72-1.382-0.55-0.501-1.107-1.009-1.67-1.522-0.56-0.516-1.132-1.028-1.716-1.538-0.567-0.528-1.106-1.097-1.667-1.65-0.557-0.557-1.118-1.119-1.685-1.685-0.544-0.586-1.066-1.201-1.605-1.805-0.533-0.609-1.071-1.221-1.61-1.837-0.513-0.637-1.029-1.277-1.547-1.92-2.093-2.554-3.946-5.358-5.718-8.201-1.725-2.874-3.364-5.811-4.703-8.839-1.397-3-2.592-6.041-3.642-9.028-0.963-3.013-1.908-5.937-2.579-8.776-0.69-2.833-1.273-5.539-1.705-8.06-0.445-2.521-0.75-4.852-1.012-6.926-0.211-2.076-0.406-3.895-0.496-5.399-0.091-1.503-0.171-2.69-0.187-3.5-0.028-0.811-0.021-1.245-0.021-1.245" fill="#ed1c24"/>
    </g>
    <g transform="translate(1091.9 762.9)">
     <path d="m0 0s1.283 0.198 3.719 0.263c2.426 0.039 6.039 0.016 10.52-0.97 4.432-0.978 9.917-2.901 14.798-7.283 2.396-2.195 4.612-4.966 6.209-8.277 0.886-1.612 1.374-3.522 2.149-4.967 0.742-1.411 1.989-2.65 3.474-3.537 3.027-1.784 6.976-2.312 10.96-2.135 4.013 0.188 8.172 1 12.305 2.3 8.273 2.602 16.512 6.994 23.932 12.849 3.691 2.952 7.161 6.297 10.21 10.043 3.031 3.757 5.639 7.907 7.597 12.372 1.965 4.461 3.17 9.268 3.544 14.157 0.181 2.445 0.184 4.913-0.066 7.366-0.042 0.615-0.148 1.225-0.217 1.838-0.039 0.285-0.075 0.658-0.117 0.871l-0.169 0.956c-0.233 1.266-0.434 2.568-0.693 3.806-1.971 9.793-5.746 19.41-11.502 27.38-5.712 8.011-13.431 14.314-21.965 18.182-8.542 3.821-17.78 5.4-26.359 4.647-4.277-0.357-8.443-1.248-12.179-2.66-1.926-0.781-3.938-1.438-5.667-2.313-0.892-0.414-1.775-0.823-2.65-1.229-0.861-0.441-1.698-0.923-2.536-1.375-1.703-0.867-3.237-1.929-4.779-2.907-0.787-0.468-1.48-1.044-2.199-1.57-0.713-0.535-1.417-1.062-2.112-1.583-2.651-2.235-5.102-4.472-7.055-6.882-4.017-4.733-6.542-9.651-7.849-13.927-1.308-4.291-1.537-7.857-1.554-10.272 0.022-1.208 0.145-2.132 0.178-2.758 0.048-0.626 0.073-0.949 0.073-0.949s-0.046 0.32-0.135 0.94c-0.073 0.623-0.257 1.542-0.359 2.756-0.123 2.42-0.197 6.062 0.958 10.521 1.125 4.443 3.472 9.636 7.388 14.734 1.905 2.593 4.319 5.03 6.963 7.485 2.747 2.33 5.775 4.643 9.193 6.638 0.853 0.5 1.702 1.028 2.587 1.521 0.907 0.46 1.824 0.925 2.75 1.394 1.853 1.006 3.748 1.692 5.673 2.552 4.049 1.687 8.417 2.7 12.99 3.213 9.13 1.032 19.051-0.366 28.28-4.37 9.195-4.026 17.726-10.639 23.868-19.25 3.105-4.27 5.684-8.95 7.734-13.851 2.048-4.924 3.597-9.976 4.671-15.269 0.261-1.297 0.45-2.558 0.678-3.838l0.164-0.957c0.074-0.424 0.092-0.697 0.14-1.052 0.074-0.673 0.183-1.342 0.227-2.018 0.259-2.696 0.246-5.418 0.032-8.114-0.438-5.392-1.802-10.687-3.971-15.546-4.309-9.788-11.495-17.697-19.338-23.779-7.897-6.086-16.636-10.418-25.407-12.945-4.39-1.247-8.815-2.039-13.181-2.089-4.328-0.027-8.744 0.638-12.392 2.946-1.8 1.171-3.31 2.743-4.238 4.666-0.889 1.88-1.221 3.562-1.971 5.1-1.333 3.147-3.262 5.812-5.408 7.983-4.372 4.334-9.572 6.483-13.863 7.644-4.34 1.147-7.901 1.472-10.316 1.57-2.422 0.093-3.717-0.021-3.717-0.021" fill="#ed1c24"/>
    </g>
    <g transform="translate(1263.3 616.38)">
     <path d="m0 0s1.257 0.167 3.469 0.331c2.21 0.159 5.377 0.318 9.18 0.285 1.903-0.01 3.964-0.055 6.143-0.182 2.177-0.13 4.479-0.268 6.846-0.551 1.185-0.129 2.39-0.269 3.607-0.441 1.22-0.148 2.45-0.343 3.686-0.567 2.473-0.427 4.972-0.965 7.465-1.549 2.473-0.666 4.939-1.378 7.324-2.236 0.595-0.215 1.189-0.429 1.78-0.642 0.585-0.229 1.157-0.491 1.73-0.733 1.152-0.469 2.259-1.018 3.345-1.56 1.098-0.511 2.122-1.149 3.134-1.733 0.999-0.612 1.932-1.297 2.856-1.92 0.868-0.718 1.75-1.356 2.522-2.081 0.737-0.767 1.517-1.421 2.129-2.199 1.301-1.472 2.282-2.996 3.015-4.398 0.334-0.723 0.658-1.388 0.924-2.012 0.195-0.654 0.373-1.254 0.533-1.797 0.08-0.268 0.154-0.522 0.224-0.762 0.034-0.248 0.067-0.481 0.096-0.697 0.057-0.431 0.106-0.796 0.145-1.093 0.078-0.587 0.119-0.9 0.119-0.9s-0.103 0.3-0.297 0.862c-0.096 0.279-0.215 0.621-0.355 1.025-0.068 0.2-0.142 0.415-0.222 0.644-0.106 0.219-0.219 0.451-0.338 0.698-0.238 0.485-0.5 1.023-0.787 1.608-0.352 0.544-0.734 1.132-1.142 1.76-0.872 1.209-1.968 2.48-3.302 3.72-0.631 0.652-1.438 1.186-2.183 1.815-0.78 0.594-1.646 1.14-2.497 1.738-0.918 0.514-1.828 1.084-2.81 1.584-1.008 0.459-1.967 1.044-3.041 1.469-2.09 0.957-4.337 1.758-6.635 2.537-2.296 0.789-4.688 1.432-7.088 2.047-2.405 0.602-4.826 1.164-7.234 1.618-2.406 0.455-4.778 0.922-7.094 1.27-4.624 0.741-8.974 1.301-12.715 1.741-3.741 0.426-6.874 0.752-9.072 0.967-2.202 0.212-3.46 0.334-3.46 0.334" fill="#ed1c24"/>
    </g>
    <g transform="translate(1191.1 373.09)">
     <path d="m0 0s0.894-0.555 2.458-1.525c1.561-0.956 3.79-2.322 6.465-3.96 1.343-0.798 2.798-1.661 4.337-2.576 1.548-0.885 3.18-1.819 4.87-2.785 1.692-0.953 3.474-1.875 5.269-2.827 1.799-0.945 3.645-1.869 5.522-2.712 1.853-0.894 3.74-1.704 5.613-2.458 0.942-0.357 1.875-0.713 2.799-1.063 0.933-0.312 1.846-0.665 2.762-0.933 1.83-0.545 3.606-1.069 5.318-1.411 0.855-0.188 1.691-0.342 2.504-0.448 0.406-0.065 0.806-0.128 1.198-0.191 0.395-0.035 0.781-0.07 1.16-0.104 0.761-0.08 1.492-0.122 2.186-0.116 0.696-0.011 1.365-0.055 1.982 0.013 0.624 0.044 1.208 0.086 1.748 0.125 0.538 0.081 1.032 0.156 1.478 0.223 0.906 0.111 1.58 0.356 2.066 0.45 0.482 0.117 0.739 0.181 0.739 0.181s-0.234-0.122-0.67-0.351c-0.221-0.114-0.493-0.257-0.814-0.423-0.317-0.18-0.696-0.356-1.138-0.5-0.441-0.161-0.929-0.338-1.46-0.533-0.539-0.174-1.14-0.285-1.778-0.446-0.638-0.178-1.33-0.249-2.061-0.359-0.733-0.127-1.506-0.166-2.316-0.193-0.405-0.016-0.819-0.032-1.242-0.049-0.42 0.011-0.849 0.022-1.285 0.033-0.878 6e-3 -1.772 0.104-2.693 0.211-1.846 0.193-3.769 0.545-5.721 1.039-1.95 0.5-3.948 1.075-5.92 1.815-1.965 0.749-3.944 1.55-5.875 2.445-1.926 0.909-3.808 1.897-5.638 2.902-1.839 0.991-3.568 2.1-5.251 3.149-3.338 2.146-6.32 4.334-8.787 6.316-4.96 3.94-7.825 7.061-7.825 7.061" fill="#ed1c24"/>
    </g>
    <g transform="translate(1266 332.29)">
     <path d="m0 0s0.719-0.691 2.021-1.826c1.296-1.138 3.185-2.715 5.542-4.414 2.365-1.67 5.242-3.482 8.503-4.619 1.625-0.57 3.352-0.871 5.048-0.876 1.699 6e-3 3.378 0.392 4.878 1.216 0.366 0.226 0.751 0.415 1.112 0.655l1.113 0.811c0.787 0.591 1.572 1.18 2.35 1.764 0.861 0.565 1.715 1.136 2.584 1.634 0.888 0.454 1.731 0.952 2.618 1.343 1.758 0.807 3.529 1.451 5.275 1.828 1.722 0.454 3.426 0.577 4.976 0.608 1.561-0.042 2.987-0.185 4.203-0.571 0.614-0.136 1.163-0.395 1.666-0.592 0.491-0.247 0.932-0.488 1.308-0.735 0.751-0.513 1.221-1.058 1.496-1.44 0.24-0.404 0.368-0.62 0.368-0.62s-0.175 0.174-0.504 0.499c-0.346 0.298-0.916 0.647-1.677 0.972-0.779 0.296-1.755 0.552-2.902 0.654-1.137 0.149-2.447 0.04-3.838-0.093-1.394-0.235-2.886-0.547-4.41-1.094-0.769-0.239-1.533-0.568-2.305-0.92-0.784-0.318-1.544-0.753-2.334-1.142-0.784-0.402-1.534-0.914-2.318-1.372-0.747-0.506-1.474-1.039-2.238-1.538-0.764-0.597-1.533-1.199-2.306-1.804l-1.257-0.951c-0.454-0.313-0.946-0.585-1.423-0.87-1.986-1.043-4.279-1.527-6.459-1.483-2.194 0.025-4.246 0.619-6.075 1.36-1.838 0.748-3.445 1.746-4.884 2.758-1.446 1.006-2.693 2.093-3.791 3.136-2.199 2.084-3.774 4.04-4.809 5.447-1.033 1.41-1.531 2.275-1.531 2.275" fill="#ed1c24"/>
    </g>
    <g transform="translate(1189.3 357.13)">
     <path d="m0 0s0.034-1.014 0.094-2.786c0.043-0.878 0.095-1.944 0.156-3.167 0.07-1.219 0.18-2.587 0.289-4.071 0.26-2.969 0.654-6.401 1.285-10.005 0.15-0.903 0.356-1.807 0.524-2.73 0.223-0.908 0.406-1.838 0.65-2.756 0.475-1.84 1.011-3.688 1.674-5.481 0.297-0.91 0.693-1.775 1.031-2.663 0.417-0.847 0.758-1.732 1.199-2.552 0.448-0.814 0.846-1.655 1.339-2.42 0.237-0.39 0.471-0.778 0.703-1.163 0.257-0.369 0.511-0.735 0.763-1.098 0.479-0.752 1.046-1.409 1.576-2.081 0.506-0.696 1.115-1.266 1.659-1.88 0.529-0.632 1.154-1.125 1.707-1.67 0.543-0.561 1.141-1.014 1.707-1.467 0.56-0.465 1.114-0.89 1.673-1.251 0.551-0.384 1.074-0.748 1.565-1.091 1.045-0.575 1.933-1.17 2.708-1.579 1.563-0.778 2.469-1.283 2.469-1.283s-1.001 0.124-2.778 0.447c-0.878 0.187-1.927 0.502-3.141 0.869-1.16 0.482-2.549 0.925-3.902 1.733-1.407 0.715-2.854 1.661-4.279 2.799-0.7 0.585-1.446 1.167-2.107 1.865-0.691 0.67-1.377 1.377-2 2.16-0.319 0.384-0.652 0.766-0.964 1.167-0.291 0.415-0.584 0.833-0.879 1.254-0.62 0.827-1.12 1.736-1.651 2.64-0.525 0.906-0.967 1.861-1.431 2.81-0.391 0.976-0.844 1.938-1.18 2.935-0.706 1.988-1.276 4.011-1.689 6.026-0.427 2.011-0.708 4.01-0.873 5.945-0.178 1.935-0.226 3.808-0.209 5.576 0.017 1.77 0.136 3.437 0.291 4.966 0.294 3.062 0.801 5.572 1.233 7.306 0.43 1.736 0.788 2.696 0.788 2.696" fill="#ed1c24"/>
    </g>
    <g transform="translate(1188.8 316.62)">
     <path d="m0 0s0.048-0.185 0.136-0.531c0.076-0.344 0.252-0.836 0.437-1.46 0.227-0.615 0.469-1.364 0.834-2.187 0.185-0.41 0.36-0.851 0.578-1.301 0.228-0.442 0.467-0.909 0.716-1.395 0.222-0.494 0.57-0.954 0.867-1.453 0.316-0.49 0.585-1.026 0.981-1.505 0.366-0.492 0.741-0.998 1.125-1.516 0.427-0.479 0.862-0.968 1.305-1.467 0.221-0.248 0.443-0.498 0.667-0.75l0.762-0.68c0.514-0.452 1.022-0.919 1.53-1.393 0.564-0.411 1.132-0.827 1.703-1.243 0.559-0.431 1.12-0.863 1.76-1.187 1.241-0.703 2.412-1.521 3.735-2.046 1.3-0.556 2.506-1.285 3.824-1.658 1.297-0.412 2.506-0.972 3.72-1.315 1.22-0.309 2.372-0.645 3.44-0.962 1.064-0.342 2.067-0.546 2.957-0.734 0.891-0.185 1.668-0.38 2.311-0.534 1.286-0.314 2.027-0.534 2.027-0.534s-0.753-0.074-2.083-0.132c-0.664-0.028-1.476-0.07-2.407-0.077-0.467-7e-3 -0.964-0.016-1.487-0.024-0.527-0.015-1.067 0.089-1.64 0.133-1.143 0.113-2.387 0.242-3.699 0.425-1.311 0.192-2.665 0.585-4.075 0.947-1.424 0.311-2.821 0.923-4.249 1.503-1.462 0.507-2.786 1.397-4.163 2.165-0.697 0.372-1.323 0.861-1.946 1.349-0.62 0.49-1.238 0.976-1.852 1.458-0.561 0.545-1.097 1.111-1.625 1.666l-0.785 0.827c-0.229 0.3-0.456 0.599-0.682 0.896-0.442 0.6-0.903 1.167-1.291 1.765-0.348 0.623-0.689 1.233-1.021 1.827-0.349 0.579-0.597 1.193-0.837 1.782-0.224 0.597-0.495 1.144-0.639 1.718-0.164 0.561-0.322 1.1-0.472 1.611-0.119 0.52-0.194 1.022-0.284 1.484-0.194 0.922-0.207 1.756-0.259 2.422-0.047 1.349 0.081 2.106 0.081 2.106" fill="#ed1c24"/>
    </g>
    <g transform="translate(1113.3 685.07)">
     <path d="m0 0s3.759 1.047 9.361 2.492c2.792 0.732 6.05 1.585 9.541 2.499 1.735 0.474 3.527 0.964 5.348 1.461 1.818 0.497 3.661 1.017 5.484 1.588 1.839 0.523 3.662 1.09 5.443 1.68 1.775 0.607 3.533 1.167 5.207 1.787 1.661 0.641 3.276 1.241 4.778 1.878 1.493 0.652 2.901 1.282 4.175 1.917 1.267 0.645 2.403 1.282 3.407 1.869 0.964 0.634 1.835 1.167 2.49 1.688 0.689 0.486 1.182 0.925 1.531 1.219 0.349 0.296 0.535 0.453 0.535 0.453s-0.139-0.199-0.399-0.574c-0.268-0.369-0.62-0.961-1.21-1.585-0.548-0.672-1.29-1.411-2.178-2.232-0.462-0.388-0.953-0.8-1.471-1.235-0.524-0.43-1.117-0.818-1.716-1.259-1.216-0.849-2.577-1.705-4.065-2.516-1.485-0.816-3.077-1.625-4.766-2.365-1.692-0.719-3.436-1.486-5.261-2.112-1.818-0.641-3.672-1.266-5.542-1.831-1.877-0.546-3.765-1.038-5.626-1.507-1.859-0.478-3.715-0.83-5.503-1.199-3.582-0.7-6.953-1.196-9.853-1.512-5.798-0.67-9.71-0.604-9.71-0.604" fill="#ed1c24"/>
    </g>
    <g transform="translate(990.87 672.56)">
     <path d="m0 0s-7.466-21.278-4.292-34.53c3.173-13.252-13.812-25.01-9.146-37.889 4.667-12.878 14.745 13.065 14.745 13.065s4.479 4.853 9.519 1.121c5.039-3.734 13.812 3.359 13.812 3.359s2.8-12.132 12.879-6.346c0 0 5.319-13.159 20.158-8.119 14.838 5.039 35.276 22.398 35.276 22.398s4.619 15.678 15.958 15.538 7.839 2.659 4.06 4.759c-3.78 2.1-5.74 7.419-2.38 10.499 0 0-17.638 5.6-24.917 13.299 0 0 4.707-18.302 9.938-24.918 0 0-2.892-5.506-6.439 0.84-3.546 6.346-20.858 41.576-33.736 40.456-12.879-1.12-28.278-19.038-29.677-10.079-1.4 8.959 12.879 14.559 4.76 20.158-8.12 5.599-9.987-21.838-17.732-16.145-7.746 5.693-12.786-7.466-12.786-7.466z" fill="none" stroke="#000" stroke-miterlimit="10" stroke-width="3.36"/>
    </g>
    <g transform="translate(1083.8 625.62)">
     <path d="m0 0s7.559-1.12 14.558 6.019c7 7.14 58.514-6.859 73.072-19.178 0 0 5.133-4.386-2.147-4.759-7.279-0.374-48.154-1.027-48.154-1.027s-15.025-3.079-15.492-12.785l-18.478-64.113s-3.78 5.272-8.959 3.872c-5.179-1.399 0.98-6.019-2.379-6.859-3.36-0.839-11.899-4.199-11.2-9.099 0.7-4.899-5.179-0.7-1.959 4.34 3.219 5.039-11.899 3.92-9.939-9.099 0 0-14.139-8.819-8.4-23.238 0 0-8.539-4.06-4.338-12.038 0 0-7-3.92-3.781-9.1 3.22-5.179-13.298-11.478-1.96-22.257l0.281-7s6.719-13.998 14.698-9.518c7.979 4.479 2.519 9.938 0 10.358-2.52 0.42-0.42-6.159-3.64-2.8-3.22 3.361-2.659 10.079 3.22 10.78 5.88 0.7 9.1 14.138-0.56 16.938" fill="none" stroke="#000" stroke-miterlimit="10" stroke-width="3.36"/>
    </g>
    <g transform="translate(1051.9 463.06)">
     <path d="m0 0s5.758 2.279 3.378 6.76c-2.38 4.479 7 3.638 7.979-0.841 0.98-4.48-10.701-31.255-10.701-31.255" fill="none" stroke="#000" stroke-miterlimit="10" stroke-width="3.36"/>
    </g>
    <g transform="translate(1048 429.22)">
     <path d="m0 0-10.808-30.845s-8.213-9.332-5.413-18.571 12.039-8.399 12.039-8.399l117.12-116.94s-4.479-9.892 2.614-16.052c7.092-6.159 10.078-3.546 10.078-3.546s1.494 6.907 8.026 11.573 11.012 3.359 11.012 3.359 4.666 7.652-3.732 13.252c-8.4 5.6-17.359 0.56-17.359 0.56l-110.31 122.63s-2.893 1.82-1.074 6.019l20.298 64.813s19.738-0.419 17.918 14.419c-1.819 14.838-8.959 13.718-8.959 13.718l39.196 91.971h30.517s18.198-0.56 18.198-11.759v-20.438s-7.559-1.4-6.719-5.319c0.839-3.92 7.839-3.92 7.839-3.92s27.997-54.128 25.757-89.03c0 0-8.119-1.82-6.579-19.179 0 0-5.039-0.699-3.5-13.438 0 0-8.818-3.079-7.419-10.778 1.4-7.7 8.959-10.08 8.959-10.08s-15.351-11.105-8.632-24.918c0 0-24.824-29.116-5.226-78.951 0 0 5.801-16.406-2.225-23.685" fill="none" stroke="#000" stroke-miterlimit="10" stroke-width="3.36"/>
    </g>
    <g transform="translate(990.87 672.56)">
     <path d="m0 0s-15.678 38.169 16.519 78.765 69.712 37.796 78.391 21.838c8.68-15.958-13.998-8.399-13.998-8.399s7.98 5.605-0.28 8.399c-9.519 3.22-39.756-28.837-35.556-56.554 4.199-27.717-12.062-24.006-12.062-24.006" fill="none" stroke="#000" stroke-miterlimit="10" stroke-width="3.36"/>
    </g>
    <g transform="translate(1071.8 764.76)">
     <path d="m0 0s-20.169 0.061-32.482-24.747" fill="none" stroke="#000" stroke-miterlimit="10" stroke-width="3.36"/>
    </g>
    <g transform="translate(1086.7 771.41)">
     <path d="m0 0s30.77 9.777 48.314-25.5c0 0 71.207 1.214 59.448 60.847-11.759 59.634-100.79 42.836-97.99-3.639 0 0 6.719 1.12 8.12-6.72 1.399-7.839-11.06-17.078-20.019-5.319s-4.619 73.072 61.454 85.671c66.072 12.598 112.74-54.128 109-107.14-3.733-53.008-39.012-100.19-103.96-111.2" fill="none" stroke="#000" stroke-miterlimit="10" stroke-width="3.36"/>
    </g>
    <g transform="translate(1192.6 249.81)">
     <path d="m0 0c56.741 48.342 134.01-25.57 139.24 25.197 5.226 50.769-35.837 135.13-55.994 133.27-20.158-1.866-26.317 47.688-26.317 47.688s0.559 35.277 21.557 79.792 71.673 27.158 70.832 53.195c-0.839 26.037-59.913 28.837-73.072 28.557-13.158-0.28-50.674 11.478-50.674 11.478l-113.11 49.555" fill="none" stroke="#000" stroke-miterlimit="10" stroke-width="3.36"/>
    </g>
    <g transform="translate(1062.8 470.1)">
     <path d="m0 0s-0.153 0.128-0.426 0.398c-0.262 0.274-0.673 0.671-1.087 1.266-0.436 0.582-0.908 1.349-1.298 2.335-0.189 0.497-0.374 1.042-0.478 1.657-0.081 0.303-0.068 0.624-0.011 0.95 0.052 0.325 0.037 0.663 0.123 0.997 0.222 1.372 0.941 2.726 1.893 3.924 0.537 0.527 1.038 1.156 1.686 1.578 0.311 0.232 0.626 0.466 0.944 0.704 0.327 0.213 0.676 0.387 1.018 0.586 0.701 0.403 1.364 0.746 2.044 1.077 0.644 0.338 1.298 0.696 1.945 1.083 1.287 0.773 2.535 1.644 3.655 2.628 1.124 0.979 2.087 2.1 2.79 3.304 0.678 1.213 1.062 2.515 1.041 3.796 0.013 1.282-0.366 2.523-0.896 3.635-0.538 1.112-1.209 2.117-1.93 2.978-0.316 0.466-0.787 0.774-1.049 1.231-0.305 0.426-0.586 0.843-0.872 1.222-0.579 0.75-1.1 1.411-1.552 1.938-0.897 1.063-1.436 1.672-1.436 1.672s0.181-0.09 0.518-0.258c0.332-0.178 0.853-0.396 1.457-0.761 0.621-0.344 1.365-0.787 2.189-1.357 0.412-0.283 0.836-0.609 1.296-0.945 0.226-0.176 0.426-0.387 0.602-0.627 0.188-0.231 0.396-0.452 0.585-0.702 0.797-0.956 1.572-2.099 2.216-3.43 0.632-1.328 1.122-2.896 1.111-4.588 0.028-1.69-0.489-3.416-1.332-4.911-0.864-1.484-2.001-2.779-3.255-3.875-1.255-1.102-2.61-2.044-3.987-2.871-0.688-0.412-1.386-0.795-2.093-1.164-0.69-0.336-1.364-0.688-1.945-1.027-0.298-0.172-0.612-0.324-0.891-0.506-0.264-0.2-0.527-0.396-0.787-0.591-0.56-0.356-0.919-0.854-1.361-1.263-0.717-0.928-1.245-1.894-1.401-2.883-0.089-0.493-0.063-0.97-0.088-1.434-0.078-0.469-0.077-0.931-0.059-1.376 0.059-0.884 0.202-1.692 0.39-2.342 0.361-1.315 0.731-2.048 0.731-2.048"/>
    </g>
    <g transform="translate(1073.9 505.26)">
     <path d="m0 0c0.022 0.012 0.292 0.08 0.805 0.29 0.519 0.2 1.253 0.546 2.086 1.041 0.408 0.259 0.857 0.534 1.282 0.887 0.46 0.319 0.849 0.746 1.295 1.158 0.201 0.222 0.382 0.466 0.58 0.704l0.296 0.363 0.237 0.405c0.155 0.273 0.333 0.541 0.478 0.826l0.346 0.899c0.14 0.297 0.201 0.614 0.254 0.934 0.062 0.32 0.124 0.639 0.185 0.955 8e-3 0.643 0.038 1.288 4e-3 1.912-0.101 0.622-0.199 1.224-0.29 1.794-0.178 0.556-0.346 1.082-0.501 1.566-0.08 0.245-0.157 0.478-0.229 0.7-0.1 0.211-0.196 0.411-0.286 0.599-0.181 0.378-0.339 0.706-0.468 0.978-0.261 0.544-0.41 0.855-0.41 0.855s0.18-0.294 0.494-0.808c0.157-0.259 0.349-0.573 0.569-0.933 0.109-0.18 0.227-0.373 0.35-0.575 0.097-0.217 0.198-0.445 0.304-0.683 0.207-0.478 0.447-0.994 0.675-1.552 0.157-0.586 0.322-1.204 0.494-1.843 0.104-0.655 0.146-1.351 0.204-2.057-0.031-0.356-0.063-0.714-0.094-1.073-0.024-0.363-0.059-0.727-0.178-1.074l-0.292-1.062c-0.129-0.341-0.296-0.666-0.445-0.998l-0.229-0.494-0.291-0.448c-0.198-0.295-0.381-0.599-0.586-0.876-0.449-0.519-0.861-1.057-1.336-1.469-0.446-0.451-0.916-0.813-1.35-1.153-0.883-0.655-1.669-1.128-2.247-1.423-0.279-0.152-0.528-0.266-0.698-0.343-0.155-0.069-0.238-0.106-0.238-0.106z"/>
    </g>
    <g transform="translate(1063.3 452.88)">
     <path d="m0 0s0.814 0.033 2.198 0.264c1.365 0.248 3.371 0.652 5.361 1.785 0.985 0.564 1.92 1.359 2.575 2.382 0.668 1.022 0.959 2.298 0.979 3.654 0.046 1.377-0.384 2.749-0.698 4.375-0.301 1.666-0.44 3.333-0.381 5.046 0.077 1.702 0.388 3.408 0.952 5.016 0.538 1.62 1.425 3.097 2.48 4.346 1.045 1.267 2.358 2.213 3.674 2.893 1.319 0.687 2.675 1.064 3.926 1.248 2.515 0.373 4.588 0.046 5.978-0.26 0.699-0.148 1.235-0.313 1.598-0.433 0.363-0.113 0.556-0.172 0.556-0.172s-0.202 0.018-0.58 0.052c-0.376 0.047-0.931 0.075-1.632 0.111-0.7 0.032-1.549 0.016-2.509-0.032-0.958-0.086-2.029-0.234-3.148-0.528-2.23-0.59-4.643-1.906-6.333-4.128-0.853-1.097-1.499-2.397-1.962-3.794-0.467-1.396-0.713-2.9-0.764-4.421-0.082-1.51 0.027-3.077 0.266-4.539 0.268-1.485 0.658-3.176 0.539-4.843-0.075-1.659-0.621-3.306-1.581-4.545-0.938-1.256-2.189-2.063-3.36-2.568-1.176-0.527-2.314-0.767-3.311-0.914-1-0.151-1.875-0.175-2.591-0.171-1.432 0.022-2.232 0.176-2.232 0.176"/>
    </g>
    <g transform="translate(990.78 634.02)">
     <path d="m0 0s-1.307 13.159 15.865 17.545-15.865-17.545-15.865-17.545z" fill="none" stroke="#000" stroke-miterlimit="10" stroke-width="2.24"/>
    </g>
    <g transform="translate(987.06 649.6)">
     <path d="m0 0s-0.134 0.879-0.106 2.442c0.013 0.782 0.072 1.732 0.216 2.825 0.091 0.542 0.174 1.127 0.3 1.739 0.156 0.606 0.451 1.19 0.731 1.817 0.536 1.26 1.318 2.555 2.283 3.841 1.046 1.22 2.282 2.483 3.93 3.289 0.377 0.255 0.831 0.364 1.257 0.536 0.437 0.143 0.861 0.358 1.325 0.404 0.458 0.077 0.918 0.156 1.379 0.234l0.174 0.028c0.058 6e-3 -7e-3 8e-3 0.151 0.016l0.08 2e-3 0.318 7e-3 0.639 0.013c0.823 0.056 1.79-0.054 2.719-0.127 0.905-0.118 1.791-0.25 2.66-0.424 1.695-0.355 3.39-0.71 5.059-1.059 1.625-0.27 3.217-0.476 4.696-0.344 0.379-0.014 0.726 0.103 1.083 0.155 0.349 0.084 0.717 0.09 1.042 0.229 0.646 0.273 1.333 0.406 1.892 0.805 0.582 0.34 1.169 0.636 1.645 1.093 0.483 0.435 1.018 0.761 1.402 1.255 0.774 0.949 1.644 1.683 2.35 2.454 0.363 0.375 0.704 0.727 1.018 1.052 0.299 0.342 0.554 0.674 0.796 0.966 0.985 1.181 1.548 1.856 1.548 1.856s-0.277-0.827-0.819-2.289c-0.14-0.363-0.283-0.773-0.464-1.21-0.214-0.421-0.446-0.878-0.693-1.366-0.26-0.484-0.501-1.027-0.832-1.559-0.341-0.532-0.874-0.944-1.309-1.476-0.425-0.538-1.054-0.951-1.617-1.447-0.551-0.517-1.257-0.895-1.965-1.302-0.678-0.463-1.52-0.664-2.32-0.981-0.403-0.162-0.843-0.185-1.271-0.283-0.431-0.066-0.867-0.194-1.307-0.184-1.774-0.153-3.543 0.084-5.281 0.373-1.676 0.35-3.378 0.707-5.079 1.063-0.833 0.167-1.666 0.288-2.475 0.396-0.793 0.055-1.539 0.172-2.426 0.115-1.626 0.032-3.044-0.361-4.346-0.991-1.306-0.626-2.317-1.668-3.204-2.692-0.82-1.102-1.515-2.229-1.996-3.37-0.31-0.535-0.381-1.15-0.672-1.642-0.273-0.504-0.502-1.002-0.733-1.467-0.413-0.949-0.769-1.795-1.029-2.508-0.253-0.713-0.459-1.284-0.576-1.674-0.124-0.39-0.173-0.61-0.173-0.61"/>
    </g>
    <g transform="translate(1002.3 650.13)">
     <path d="m0 0s1.328 0.834 3.455 1.842c1.066 0.499 2.33 1.04 3.739 1.505 0.709 0.22 1.446 0.453 2.229 0.598 0.78 0.151 1.601 0.258 2.507 0.138l0.628-0.178c0.074-0.018 0.227-0.088 0.235-0.063 0.036 0.012 0.045-0.012 0.119 5e-3 0.236 0.018 0.529 0.149 0.805 0.332 0.55 0.388 1.076 0.894 1.532 1.431 0.925 1.073 1.695 2.189 2.35 3.146 0.643 0.967 1.188 1.776 1.543 2.358 0.366 0.578 0.575 0.909 0.575 0.909s-0.5-1.489-1.565-3.594c-0.541-1.048-1.22-2.251-2.141-3.446-0.467-0.589-0.982-1.198-1.685-1.698-0.358-0.24-0.776-0.474-1.314-0.534-0.118-0.026-0.303-6e-3 -0.461 0.013-0.19 0.022-0.213 0.055-0.327 0.082l-0.036 0.01-0.076 0.028-0.013 3e-3 -0.054 0.012-0.107 0.025-0.21 0.058c-0.638 0.094-1.388 0.035-2.111-0.1-0.725-0.129-1.448-0.292-2.14-0.478-1.389-0.375-2.678-0.796-3.785-1.157-2.215-0.748-3.692-1.247-3.692-1.247"/>
    </g>
    <g transform="translate(1015.9 618.48)">
     <path d="m0 0s10.639 13.999 35.836 4.34c8.26-8.539-25.477 2.94-27.297-12.039" fill="none" stroke="#000" stroke-miterlimit="10" stroke-width="2.24"/>
    </g>
    <g transform="translate(1042.6 625.48)">
     <path d="m0 0s1.094 0.026 2.972 0.257c0.932 0.124 2.078 0.291 3.296 0.681 0.597 0.199 1.233 0.465 1.706 0.856 0.472 0.396 0.687 0.785 0.461 1.41-0.105 0.3-0.314 0.606-0.544 0.982-0.227 0.355-0.453 0.725-0.673 1.127-0.453 0.789-0.862 1.61-1.248 2.482-0.767 1.74-1.439 3.653-1.766 5.739-0.122 1.049-0.232 2.133-0.066 3.243 0.104 1.105 0.496 2.236 1.164 3.202l0.541 0.701 0.672 0.577 0.341 0.283 0.384 0.212 0.772 0.421c0.564 0.224 1.006 0.41 1.565 0.58 0.556 0.155 1.112 0.323 1.677 0.394 2.217 0.413 4.742 0.056 6.591-1.43 1.843-1.507 2.605-3.915 2.529-6.037l-0.036-0.801c-0.018-0.327-0.066-0.515-0.106-0.786-0.129-0.582-0.328-1.105-0.64-1.592-0.644-0.98-1.779-1.532-2.819-1.622-2.106-0.164-3.949 0.685-5.246 1.927-0.619 0.634-1.182 1.468-1.162 2.426 0.022 0.465 0.143 0.912 0.355 1.274 0.217 0.363 0.371 0.593 0.591 0.892 0.414 0.577 0.87 1.053 1.404 1.406 0.508 0.353 1.27 0.495 1.744 0.128 0.456-0.326 0.652-0.762 0.768-1.12 0.118-0.364 0.17-0.68 0.199-0.936 0.058-0.511 0.055-0.783 0.055-0.783s-0.037 0.272-0.167 0.761c-0.063 0.244-0.16 0.542-0.319 0.862-0.152 0.317-0.397 0.669-0.747 0.855-0.739 0.397-1.652-0.563-2.224-1.615-0.145-0.252-0.327-0.619-0.437-0.876-0.114-0.264-0.141-0.544-0.122-0.819 0.066-0.542 0.326-1.161 0.856-1.665 1.017-1.003 2.697-1.753 4.333-1.603 0.813 0.08 1.555 0.459 2.007 1.131 0.219 0.339 0.371 0.754 0.466 1.147 0.033 0.222 0.096 0.528 0.096 0.705l0.031 0.719c0.064 1.912-0.608 3.913-2.117 5.154-1.52 1.221-3.683 1.57-5.701 1.193-0.517-0.063-1-0.215-1.491-0.347-0.478-0.139-1.043-0.373-1.48-0.546l-0.651-0.358-0.326-0.176-0.277-0.235-0.555-0.469-0.436-0.574c-0.542-0.786-0.881-1.721-0.971-2.7-0.149-0.969-0.049-1.969 0.063-2.936 0.303-1.943 0.944-3.781 1.681-5.451 0.369-0.833 0.772-1.641 1.193-2.375 0.2-0.369 0.424-0.735 0.654-1.094 0.209-0.347 0.48-0.73 0.649-1.201 0.163-0.462 0.228-1.026 0.05-1.546-0.174-0.519-0.542-0.904-0.906-1.138-0.746-0.466-1.479-0.643-2.153-0.784-1.354-0.254-2.523-0.273-3.482-0.282-0.959-4e-3 -1.709 0.057-2.219 0.095-0.508 0.049-0.779 0.075-0.779 0.075"/>
    </g>
    <g transform="translate(997.22 616.29)">
     <path d="m0 0s-0.148 0.141-0.375 0.473c-0.217 0.328-0.527 0.821-0.83 1.499-0.296 0.68-0.612 1.535-0.806 2.58-0.097 0.524-0.137 1.094-0.142 1.709 0.03 0.305 0.081 0.618 0.145 0.935 0.1 0.31 0.202 0.627 0.307 0.95 0.492 1.28 1.514 2.463 2.815 3.251l0.239 0.162c0.164 0.101 0.185 0.093 0.286 0.146l0.494 0.233c0.171 0.074 0.32 0.164 0.513 0.227l0.604 0.172c0.203 0.055 0.407 0.115 0.613 0.161l0.616 0.061c0.206 0.016 0.414 0.045 0.622 0.049l0.627-0.042c1.68-0.128 3.318-0.826 4.694-1.864 1.371-1.049 2.519-2.445 3.184-4.12 0.29-0.845 0.529-1.774 0.318-2.739l-0.026-0.179c-0.011-0.046 5e-3 -0.022-0.028-0.126l-0.024-0.073-0.105-0.299c-0.114-0.252-0.244-0.493-0.39-0.679-0.296-0.39-0.653-0.72-1.04-0.966-1.566-0.982-3.318-1.189-4.951-1.135-1.619 0.114-3.297 0.466-4.499 1.72-0.597 0.638-0.85 1.564-0.699 2.414 0.118 0.62 0.306 1.37 0.611 1.973 0.285 0.609 0.623 1.181 1.067 1.626 0.471 0.419 0.946 0.79 1.493 0.991 1.063 0.501 2.271 0.112 2.753-0.508 0.506-0.609 0.667-1.193 0.752-1.573 0.079-0.384 0.121-0.59 0.121-0.59s-0.08 0.193-0.229 0.553c-0.142 0.352-0.435 0.866-0.932 1.307-0.51 0.43-1.346 0.555-2.1 0.055-0.75-0.477-1.397-1.325-1.91-2.335-0.258-0.514-0.392-1.034-0.53-1.73-0.067-0.475 0.047-1.027 0.439-1.437 0.791-0.864 2.277-1.269 3.719-1.347 1.451-0.06 3.055 0.17 4.276 0.95 0.305 0.191 0.556 0.435 0.757 0.697 0.11 0.14 0.168 0.266 0.236 0.385l0.099 0.286 0.026 0.073c-0.015-0.055-1e-3 0.027-1e-3 0.027l0.014 0.129c0.162 0.672-0.023 1.431-0.264 2.136-1.139 2.849-4.061 5.051-6.919 5.262l-0.535 0.038c-0.175-4e-3 -0.351-0.031-0.525-0.045l-0.521-0.047-0.48-0.129-0.475-0.123c-0.16-0.048-0.332-0.149-0.496-0.22l-0.494-0.233c-0.059-0.031-0.214-0.093-0.195-0.098l-0.205-0.142c-1.14-0.693-1.966-1.665-2.375-2.719-0.083-0.271-0.173-0.533-0.24-0.794-0.035-0.272-0.079-0.534-0.143-0.789-0.079-0.521-0.13-1.027-0.117-1.513 0.018-0.97 0.182-1.826 0.359-2.52 0.193-0.69 0.378-1.228 0.531-1.587 0.148-0.352 0.271-0.529 0.271-0.529"/>
    </g>
    <g transform="translate(1080.3 666.48)">
     <path d="m0 0s-13.492 11.708-14.612 30.455c-1.12 18.746-23.668-1.972-23.668-1.972s14.149 43.83 51.105 45.059 35.463-30.5 35.463-30.5 70.739-15.042 66.633 42.874c0 0 25.419-58.602-90.15-73.858" fill="none" stroke="#000" stroke-miterlimit="10" stroke-width="2.24"/>
    </g>
    <g transform="translate(1189.3 386.66)">
     <path d="m0 0s23.565 24.877 35.05 19.091c16.917-8.524 37.977-20.843 38.866 9.221" fill="none" stroke="#000" stroke-miterlimit="10" stroke-width="3.36"/>
    </g>
    <g transform="translate(1187 368.33)">
     <path d="m0 0s40.129-33.316 69.806-27.437c29.676 5.879 3.783 78.162 44.447 43.701" fill="none" stroke="#000" stroke-miterlimit="10" stroke-width="3.36"/>
    </g>
    <g transform="translate(1248.4 340.19)">
     <path d="m0 0s27.997-37.1 50.115-25.062c22.117 12.04 29.784 1.58 29.784 1.58" fill="none" stroke="#000" stroke-miterlimit="10" stroke-width="3.36"/>
    </g>
    <g transform="translate(1186.5 369.54)">
     <path d="m0 0s-16.45-58.048 24.426-71.486c40.875-13.439 57.636 22.574 57.636 22.574" fill="none" stroke="#000" stroke-miterlimit="10" stroke-width="3.36"/>
    </g>
    <g transform="translate(1283.9 260.97)">
     <path d="m0 0c-20.557 0.715-39.719 37.016-39.719 37.016" fill="none" stroke="#000" stroke-miterlimit="10" stroke-width="3.36"/>
    </g>
    <g transform="translate(1241 296.87)">
     <path d="m0 0s5.804-8.054 3.563-10.153c-2.239-2.1-6.579-2.24-8.398 3.639l-3.08-0.979s-0.297-9.799-7.148-8.329c-6.85 1.469-4.26 7.279-4.26 7.279l-5.6 0.069s-3.337-9.005-8.096-5.459c-4.759 3.547-2.986 6.999-2.986 6.999l-4.573 1.774s-6.066-6.067-8.959 0.746c-2.894 6.813 1.587 6.066 1.587 6.066l-2.988 4.76s-5.931 0.093-6.791 5.6c-0.861 5.506 4.552 7.185 4.552 7.185" fill="none" stroke="#000" stroke-miterlimit="10" stroke-width="2.24"/>
    </g>
    <g transform="translate(998.03 642.42)">
     <path d="m0 0c0-1.353-1.097-2.45-2.449-2.45-1.354 0-2.45 1.097-2.45 2.45s1.096 2.45 2.45 2.45c1.352 0 2.449-1.097 2.449-2.45"/>
    </g>
   </g>
  </g>
 </g>
</svg>
