<?xml version="1.0" encoding="UTF-8" standalone="no"?>
<!-- Created with Inkscape (http://www.inkscape.org/) -->

<svg
   xmlns:dc="http://purl.org/dc/elements/1.1/"
   xmlns:cc="http://creativecommons.org/ns#"
   xmlns:rdf="http://www.w3.org/1999/02/22-rdf-syntax-ns#"
   xmlns:svg="http://www.w3.org/2000/svg"
   xmlns="http://www.w3.org/2000/svg"
   xmlns:sodipodi="http://sodipodi.sourceforge.net/DTD/sodipodi-0.dtd"
   xmlns:inkscape="http://www.inkscape.org/namespaces/inkscape"
   width="100%"
   height="100%"
   viewBox="0 0 135.46666 135.46667"
   version="1.1"
   id="svg8"
   inkscape:version="0.92.5 (2060ec1f9f, 2020-04-08)"
   sodipodi:docname="wayang.svg">
  <defs
     id="defs2">
    <clipPath
       clipPathUnits="userSpaceOnUse"
       id="clipPath568">
      <path
         d="M 0,980 H 1400 V 0 H 0 Z"
         id="path566"
         inkscape:connector-curvature="0" />
    </clipPath>
  </defs>
  <sodipodi:namedview
     id="base"
     pagecolor="#ffffff"
     bordercolor="#666666"
     borderopacity="1.0"
     inkscape:pageopacity="0.0"
     inkscape:pageshadow="2"
     inkscape:zoom="0.98994949"
     inkscape:cx="470.21484"
     inkscape:cy="272.77108"
     inkscape:document-units="mm"
     inkscape:current-layer="g564"
     showgrid="false"
     units="px"
     inkscape:window-width="1920"
     inkscape:window-height="1013"
     inkscape:window-x="0"
     inkscape:window-y="768"
     inkscape:window-maximized="1" />
  <metadata
     id="metadata5">
    <rdf:RDF>
      <cc:Work
         rdf:about="">
        <dc:format>image/svg+xml</dc:format>
        <dc:type
           rdf:resource="http://purl.org/dc/dcmitype/StillImage" />
        <dc:title></dc:title>
      </cc:Work>
    </rdf:RDF>
  </metadata>
  <g
     inkscape:label="Layer 1"
     inkscape:groupmode="layer"
     id="layer1"
     transform="translate(0,-161.53332)">
    <g
       transform="matrix(0.20952243,0,0,-0.20401408,-176.07032,342.76197)"
       id="g562">
      <g
         id="g564"
         clip-path="url(#clipPath568)">
        <g
           id="g570"
           transform="translate(1365.8965,505.3638)">
          <path
             d="m 0,0 c 0,-111.716 -90.564,-202.28 -202.28,-202.28 -111.716,0 -202.281,90.564 -202.281,202.28 0,111.716 90.565,202.28 202.281,202.28 C -90.564,202.28 0,111.716 0,0"
             style="fill:#d9b9ad;fill-opacity:1;fill-rule:nonzero;stroke:none"
             id="path572"
             inkscape:connector-curvature="0" />
        </g>
        <g
           id="g574"
           transform="translate(1245.8896,690.2075)">
          <path
             d="m 0,0 c 0,0 2.838,-20.353 -8.361,-25.672 -11.199,-5.32 54.408,11.385 107.416,-70.74 l -113.109,13.066 c 0,0 -91.084,41.062 -79.884,61.967 C -82.74,-0.475 -32.607,25.112 0,0"
             style="fill:#d9b9ad;fill-opacity:1;fill-rule:nonzero;stroke:none"
             id="path576"
             inkscape:connector-curvature="0" />
        </g>
        <g
           id="g578"
           transform="translate(1311.4814,367.0264)">
          <path
             d="m 0,0 c 0,0 51.402,54.438 52.885,113.354 1.482,58.915 -21.004,117.85 -21.004,117.85 l -78.304,-17.126 c 0,0 -39.568,-63.087 -28.743,-104.149 10.825,-41.063 25.384,-79.139 25.384,-79.139 z"
             style="fill:#d9b9ad;fill-opacity:0.94117647;fill-rule:nonzero;stroke:none"
             id="path580"
             inkscape:connector-curvature="0" />
        </g>
        <g
           id="g582"
           transform="translate(1365.8965,505.3638)">
          <path
             d="m 0,0 c 0,-111.716 -90.564,-202.28 -202.28,-202.28 -111.716,0 -202.281,90.564 -202.281,202.28 0,111.716 90.565,202.28 202.281,202.28 C -90.564,202.28 0,111.716 0,0 Z"
             style="fill:none;stroke:#000000;stroke-width:8.24199963;stroke-linecap:butt;stroke-linejoin:miter;stroke-miterlimit:10;stroke-dasharray:none;stroke-opacity:1"
             id="path584"
             inkscape:connector-curvature="0" />
        </g>
        <g
           id="g586"
           transform="translate(1204.3398,446.7188)">
          <path
             d="m 0,0 c 0,0 -7.967,-4.48 -6.474,-19.412 0,0 -6.159,-2.426 -3.36,-13.439 0,0 -11.758,-6.313 -7.465,-13.048 4.293,-6.736 8.773,-7.856 8.773,-7.856 0,0 -13.626,-8.212 -9.147,-24.264 l -6.905,-13.626 c 0,0 -10.639,-24.263 -2.986,-49.087 7.652,-24.825 9.425,-29.491 4.619,-40.129 l -10.219,-2.1 -110.591,123.085 v 5.841 l 20.441,64.113 c 0,0 22.462,2.299 17.18,15.988 -5.282,13.69 -8.082,12.709 -8.082,12.709 l 39.056,91.318 h 32.29 c 0,0 15.118,0 16.052,-12.692 l -0.187,-18.105 c 0,0 -7.652,-4.107 -6.347,-7.279 1.307,-3.173 7.84,-3.36 7.84,-3.36 0,0 28.999,-54.128 25.512,-88.657 m -151.825,-8.913 c 0,0 -2.706,3.826 -4.433,1.214 -1.726,-2.614 -3.733,-1.401 -4.059,1.679 -0.328,3.08 0.979,6.86 4.432,7.373 3.453,0.513 9.613,6.626 4.06,14.698 0,0 5.086,3.127 3.406,7 -1.68,3.873 3.173,2.892 3.173,2.892 0,0 4.573,0.467 4.014,-5.505 -0.561,-5.973 -10.479,-29.567 -10.479,-29.567 z m -2.007,319.307 c 0,0 14.652,22.397 23.705,14.838 7.465,-4.666 -23.705,-14.838 -23.705,-14.838 M 86.626,112.323 c 24.114,12.543 39.293,15.045 39.293,15.045 0,0 27.103,12.905 0.363,31.239 -27.301,15.254 -50.735,7.161 -65.335,12.328 -14.599,5.166 -48.256,11.842 -48.256,11.842 l -64.508,29.187 c 0,0 87.801,12.285 101.289,100.432 13.487,88.148 -73.062,133.081 -111.912,116.774 0,0 -68.914,-13.192 -59.855,-78.956 0,0 4.183,-12.117 12.01,-11.434 7.828,0.684 13.605,6.608 9.877,13.095 -3.729,6.487 -8.208,4.527 -8.208,4.527 0,0 -0.476,41.283 51.393,41.966 51.869,0.683 48.59,-49.72 48.59,-49.72 0,0 1.935,-48.101 -61.226,-48.497 0,0 -13.891,32.58 -46.717,24.838 0,0 -23.389,29.448 -62.799,-2.606 0,0 -52.134,-38.587 -34.152,-94.394 0,0 68.485,-61.329 93.207,-48.489 0,0 6.804,-2.279 14.363,5.42 0,0 8.367,5.256 29.67,-1.268 0,0 47.416,-11.814 44.242,-20.555 -3.172,-8.74 -23.535,1.989 -52.456,-3.469 0,0 -13.116,-3.618 -14.312,-12.925 L -117.552,83.55 c 0,0 -6.225,4.445 -9.424,3.073 -3.198,-1.373 -1.238,-5.922 -1.238,-5.922 l -12.529,-6.229 -1.329,4.269 c 0,0 -9.8,-1.002 -8.866,-12.295 0,0 -13.533,-6.622 -8.773,-23.586 0,0 -7.921,-1.797 -4.87,-11.41 0,0 -6.554,-3.141 -3.361,-9.947 0,0 0.489,-6.352 -3.759,-8.048 -4.248,-1.697 -4.75,-9.858 1.66,-14.597 0,0 -1.166,-5.222 1.922,-9.183 3.087,-3.961 7.848,-8.993 13.027,-6.613 l -3.591,-7.164 -8.494,-24.24 c 0,0 -8.993,-10.808 -4.217,-21.362 4.777,-10.555 10.843,-5.609 10.843,-5.609 L -43.43,-192.247 c 0,0 -3.829,-4.974 1.538,-14.992 5.369,-10.019 11.526,-3.347 11.526,-3.347 0,0 3.566,14.09 18.267,13.753 0,0 35.54,28.928 79.284,13.77 0,0 36.022,-9.291 48.188,-6.484 12.166,2.806 12.166,17.831 12.166,17.831 l -0.954,27.755 -8.724,35.933 -18.813,42.39 c 0,0 -16.491,28.775 -27.876,26.722 -11.386,-2.054 -14.466,11.665 -14.466,11.665 l -8.245,20.032 -3.088,19.372 4.24,27.353 c 0,0 12.899,60.274 37.013,72.817"
             style="fill:#402d26;fill-opacity:1;fill-rule:nonzero;stroke:none"
             id="path588"
             inkscape:connector-curvature="0" />
        </g>
        <g
           id="g590"
           transform="translate(1193.5732,249.8057)">
          <path
             d="m 0,0 c 0,0 4.091,8.958 -3.779,13.112 -7.871,4.155 -10.308,1.325 -7.184,7.242 0,0 2.906,12.875 -1.114,20.245 -4.022,7.37 -7.241,33.407 -7.241,33.407 0,0 -0.379,30.656 8.979,36.676 v -9.851 c 0,0 -2.559,-43.41 28.154,-52.989 0,0 26.352,-4.9 32.779,0.833 0,0 17.065,-30.757 30.038,-35.237 C 80.632,13.438 23.518,28.37 0,0"
             style="fill:#d9b9ad;fill-opacity:0.94117647;fill-rule:nonzero;stroke:none"
             id="path592"
             inkscape:connector-curvature="0" />
        </g>
        <g
           id="g594"
           transform="translate(992.1807,613.2075)">
          <path
             d="m 0,0 c 0,0 -6.996,-20.579 -13.04,-15.982 -6.044,4.596 0,17.124 0,17.124 0,0 9.867,12.997 7.441,23.682 -2.426,10.686 4.177,34.829 4.177,34.829 0,0 7.921,11.785 11.123,8.169 3.201,-3.615 7.44,0.957 7.44,0.957 0,0 7.358,17.988 11.394,14.582 4.035,-3.406 2.55,-6.616 0,-10.302 -2.551,-3.687 -5.657,-9.413 -2.7,-12.562 2.956,-3.15 15.064,6.649 15.064,6.649 0,0 16.316,12.609 25.376,-1.149 L 80.854,45.211 c 0,0 11.134,-24.427 13.108,-13.168 0,0 -8.284,20.309 -7.867,22.83 0.417,2.521 10.88,-10.845 22.913,-11.955 0,0 -3.925,-7.455 4.754,-12.401 8.678,-4.946 -7.466,-3.173 -7.466,-3.173 0,0 -12.063,-1.493 -14.022,-14.652 0,0 -33.358,-28.027 -47.044,-23.066 l -8.76,7.948 c 0,0 -11.273,-2.668 -13.699,7.718 0,0 -6.664,-8.657 -11.824,-4.921 C 5.786,4.106 0,0 0,0"
             style="fill:#d9b9ad;fill-opacity:0.94117647;fill-rule:nonzero;stroke:none"
             id="path596"
             inkscape:connector-curvature="0" />
        </g>
        <g
           id="g598"
           transform="translate(990.874,634.5088)">
          <path
             d="m 0,0 c 0,0 21.604,12.528 19.796,17.918 0,0 -13.986,-3.43 -16.086,-8.959 C 3.71,8.959 -0.63,3.29 0,0"
             style="fill:#cccccc;fill-opacity:1;fill-rule:nonzero;stroke:none"
             id="path600"
             inkscape:connector-curvature="0" />
        </g>
        <g
           id="g602"
           transform="translate(1024.0625,609.8159)">
          <path
             d="m 0,0 c 0,0 0.059,6.425 5.098,7.544 5.04,1.12 27.647,0.98 23.028,5.25 0,0 -25.167,10.234 -36.241,-4.11 0,0 -0.413,-8.529 8.115,-8.684"
             style="fill:#ed1c24;fill-opacity:1;fill-rule:nonzero;stroke:none"
             id="path604"
             inkscape:connector-curvature="0" />
        </g>
        <g
           id="g606"
           transform="translate(1016.6992,614.5713)">
          <path
             d="M 0,0 C 0,0 0.104,0.115 0.301,0.333 0.51,0.564 0.815,0.88 1.205,1.256 1.59,1.647 2.092,2.072 2.653,2.578 c 0.593,0.467 1.228,1.034 1.993,1.558 0.738,0.559 1.58,1.102 2.483,1.653 0.893,0.565 1.902,1.054 2.924,1.58 1.069,0.434 2.128,0.983 3.295,1.312 0.574,0.186 1.152,0.374 1.732,0.563 l 1.792,0.394 c 1.184,0.319 2.414,0.371 3.603,0.519 0.593,0.091 1.189,0.079 1.777,0.072 0.586,-0.003 1.165,-0.006 1.735,-0.009 1.137,-0.005 2.224,-0.236 3.256,-0.333 1.04,-0.073 1.979,-0.405 2.861,-0.594 0.873,-0.237 1.697,-0.36 2.373,-0.658 0.686,-0.256 1.285,-0.479 1.778,-0.662 0.983,-0.367 1.546,-0.576 1.546,-0.576 0,0 -0.574,0.176 -1.577,0.485 -0.501,0.154 -1.109,0.34 -1.806,0.555 -0.685,0.256 -1.514,0.331 -2.389,0.514 -0.883,0.135 -1.82,0.409 -2.849,0.421 -1.022,0.035 -2.092,0.2 -3.203,0.14 C 23.423,9.482 22.859,9.452 22.289,9.421 21.719,9.396 21.143,9.375 20.571,9.251 19.428,9.039 18.252,8.924 17.131,8.548 L 15.437,8.072 C 14.892,7.859 14.35,7.646 13.812,7.436 12.719,7.061 11.735,6.471 10.747,6.004 9.804,5.444 8.876,4.929 8.061,4.342 7.234,3.771 6.469,3.212 5.804,2.643 5.111,2.109 4.547,1.538 4.017,1.07 3.521,0.567 3.073,0.142 2.743,-0.237 2.398,-0.611 2.147,-0.902 1.991,-1.098 1.822,-1.309 1.731,-1.421 1.731,-1.421 Z"
             style="fill:#000000;fill-opacity:1;fill-rule:nonzero;stroke:none"
             id="path608"
             inkscape:connector-curvature="0" />
        </g>
        <g
           id="g610"
           transform="translate(1067.8662,764.3447)">
          <path
             d="M 0,0 -17.358,-7.232 C -9.659,8.213 4.76,13.019 7.501,7.139 10.243,1.26 0,0 0,0 m 96.86,114.667 c 0,0 -64.383,-0.579 -79.782,-50.414 0,0 -11.198,-39.336 7.14,-43.535 19.038,1.12 10.919,15.958 10.919,15.958 l -6.159,2.24 c 0,0 -1.401,37.516 43.394,41.296 0,0 44.656,4.479 53.615,-35.557 8.959,-40.035 -13.728,-58.152 -58.239,-62.113 0,0 -15.354,30.923 -47.851,24.821 0,0 -16.482,25.544 -53.605,3.981 0,0 -62.882,-41.441 -43.4,-102.828 0,0 2.356,10.013 8.935,7.773 6.579,-2.24 10.079,-0.28 11.9,4.48 1.819,4.759 5.878,11.198 5.878,11.198 0,0 8.497,1.519 5.729,-4.472 -2.768,-5.992 -6.009,-10.366 -6.009,-10.366 0,0 -2.508,-8.678 2.24,-7.839 4.748,0.838 15.399,8.259 15.399,8.259 0,0 15.342,10.492 22.859,-1.613 l 14.809,-21.098 9.15,-15.715 c 0,0 7.429,-2.478 3.893,3.275 -3.536,5.754 -7.875,18.633 -7.875,18.633 l -2.24,6.439 c 0,0 -8.82,14.138 -9.379,23.097 -0.561,8.959 -4.9,11.759 -10.919,8.959 -6.02,-2.799 -12.542,-7.412 -12.542,-7.412 0,0 14.214,39.094 45.177,43.061 30.964,3.968 40.297,-13.185 40.67,-30.086 0,0 63.46,-14.475 67.94,35.547 0,0 19.038,-50.768 -89.964,-66.26 l 44.606,-20.302 c 0,0 104.196,10.017 104.174,125.655 0,0 -12.641,90.477 -90.463,94.938"
             style="fill:#261914;fill-opacity:1;fill-rule:nonzero;stroke:none"
             id="path612"
             inkscape:connector-curvature="0" />
        </g>
        <g
           id="g614"
           transform="translate(1186.4775,369.4355)">
          <path
             d="m 0,0 c 0,0 -14.183,-48.144 14.002,-66.809 26.69,-14.558 44.877,-4.146 44.877,-4.146 L 72.188,-92.52 c 0,0 6.985,-17.206 44.789,-19.521 0,0 24.594,-4.578 27.769,12.651 3.175,17.23 -4.298,52.599 -4.298,52.599 l -11.985,37.562 c 0,0 -21.698,45.87 -39.056,48.062 0,0 -9.086,-1.383 -11.542,5.375 0,0 -2.596,-19.84 -15.195,-17.88 -12.599,1.96 -24.077,9.99 -24.077,9.99 0,0 -9.94,3.588 -22.258,-6.211 C 16.335,30.107 -7.655,13.988 0,0"
             style="fill:#d9b9ad;fill-opacity:0.94117647;fill-rule:nonzero;stroke:none"
             id="path616"
             inkscape:connector-curvature="0" />
        </g>
        <g
           id="g618"
           transform="translate(1188.8135,316.625)">
          <path
             d="m 0,0 c 0,0 -8.356,-3.266 -5.671,-8.959 2.685,-5.692 6.885,-4.013 6.885,-4.013 L 4.2,-17.918 c 0,0 -4.106,-0.746 -1.679,-5.506 2.425,-4.76 6.065,-4.573 8.958,-1.399 l 4.853,-2.293 c 0,0 -1.307,-5.734 3.452,-7.321 4.76,-1.585 7.56,6.253 7.56,6.253 l 5.599,-0.466 c 0,0 -1.773,-7.067 4.853,-7.079 6.626,-0.013 6.72,8.572 6.72,8.572 l 2.613,1.214 c 0,0 2.426,-5.88 6.159,-5.04 3.733,0.84 3.421,5.666 -1.043,11.092 0,0 -26.208,-4.28 -37.22,4.68 C 4.013,-6.252 0,0 0,0"
             style="fill:#d9b9ad;fill-opacity:0.94117647;fill-rule:nonzero;stroke:none"
             id="path620"
             inkscape:connector-curvature="0" />
        </g>
        <g
           id="g622"
           transform="translate(1079.9053,467.3428)">
          <path
             d="m 0,0 c 0,0 17.591,-6.066 17.591,8.923 0,0 -2.846,9.835 -11.152,6.942 0,0 -9.729,-0.829 -11.199,-10.435 0,0 -1.469,-4.1 0,-8.603 1.47,-4.503 -0.21,-9.822 -7.489,-10.872 0,0 13.228,-4.106 12.249,14.045"
             style="fill:#d9b9ad;fill-opacity:0.94117647;fill-rule:nonzero;stroke:none;opacity:0.99"
             id="path624"
             inkscape:connector-curvature="0" />
        </g>
        <g
           id="g626"
           transform="translate(1047.6836,437.5898)">
          <path
             d="m 0,0 c 0,0 1.005,4.369 3.875,0.8 2.869,-3.571 -0.42,-7.42 -0.42,-7.42 0,0 -12.389,-6.299 -16.589,8.539 l -0.28,6.51 c 0,0 -5.509,4.96 -3.909,9.234 1.599,4.275 6.849,8.964 5.519,13.933 -1.33,4.969 4.13,8.399 4.13,8.399 0,0 -4.057,8.559 4.375,12.923 0,0 -4.224,13.118 9.017,22.657 0,0 -0.082,12.339 9.291,10.929 0,0 -1.802,-5.796 0.613,-7.569 2.414,-1.774 -4.025,8.025 14.08,10.638 0,0 -4.969,5.877 1.482,6.438 6.451,0.562 8.69,-4.571 8.69,-4.571 0,0 2.321,-9.87 -7.839,-7.373 0,0 8.212,-11.758 -5.319,-17.265 0,0 8.398,-9.705 -1.028,-16.145 l -9.424,-6.439 c 0,0 -5.531,-1.423 -2.672,-10.044 0,0 -6.848,3.792 -6.287,-2.228 0.559,-6.019 -2.474,-6.766 -2.474,-6.766 0,0 6.117,-8.276 -2.284,-14.053 C -5.854,5.349 -4.67,0.521 0,0"
             style="fill:#d9b9ad;fill-opacity:0.94117647;fill-rule:nonzero;stroke:none"
             id="path628"
             inkscape:connector-curvature="0" />
        </g>
        <g
           id="g630"
           transform="translate(1050.9746,489.5791)">
          <path
             d="m 0,0 c 0,0 -5.039,14.253 5.973,18.546 0,0 -3.327,9.772 5.476,14.918 0,0 -1.09,-10.812 4.697,-15.665 C 21.932,12.947 23.331,2.308 15.212,-1.146 7.093,-4.598 17.755,4.547 12.331,12.573 6.906,20.599 12.599,0.306 0,0"
             style="fill:#ed1c24;fill-opacity:1;fill-rule:nonzero;stroke:none"
             id="path632"
             inkscape:connector-curvature="0" />
        </g>
        <g
           id="g634"
           transform="translate(1043.0889,440.1387)">
          <path
             d="m 0,0 c 0,0 -7.139,7.56 -3.85,11.549 3.29,3.99 11.9,-0.63 7.77,8.189 -4.13,8.82 3.43,6.51 5.319,2.59 1.89,-3.92 4.34,-10.061 0,-11.96 C 4.899,8.47 -0.84,4.76 0,0"
             style="fill:#ed1c24;fill-opacity:1;fill-rule:nonzero;stroke:none"
             id="path636"
             inkscape:connector-curvature="0" />
        </g>
        <g
           id="g638"
           transform="translate(1062.9697,469.7715)">
          <path
             d="m 0,0 c 0,0 5.316,0.674 4.687,4.734 -0.63,4.06 7.277,11.957 13.472,6.994 l 2.581,1.117 c 0,0 -3.014,10.63 -7.78,7.932 C 8.979,18.522 10.15,18.102 1.117,13.133 -5.882,9.283 -1.328,2.15 -1.328,2.15 Z"
             style="fill:#ed1c24;fill-opacity:1;fill-rule:nonzero;stroke:none"
             id="path640"
             inkscape:connector-curvature="0" />
        </g>
        <g
           id="g642"
           transform="translate(1065.2236,699.7026)">
          <path
             d="m 0,0 c 0,0 27.187,-21.519 47.531,-2.772 20.345,18.746 5.786,-5.705 -6.159,-8.878 -11.945,-3.173 -0.186,-9.332 -0.186,-9.332 l 22.677,3.733 22.678,6.533 c 0,0 54.313,18.851 44.608,55.994 0,0 -0.709,-27.6 -28.258,-34.611 0,0 -20.037,-5.658 -39.355,-0.479 0,0 0.28,25.197 -25.617,29.397 -25.898,4.2 -47.88,-14.448 -59.776,-42.29 0,0 19.774,16.035 21.857,2.705"
             style="fill:#d9b9ad;fill-opacity:0.94117647;fill-rule:nonzero;stroke:none"
             id="path644"
             inkscape:connector-curvature="0" />
        </g>
        <g
           id="g646"
           transform="translate(1067.5859,723.1895)">
          <path
             d="M 0,0 C 0,0 13.859,14.698 36.537,11.619 59.214,8.539 57.814,-13.756 57.814,-13.756 H 45.216 c 0,0 0.592,16.128 -21.138,15.995 C 2.349,2.107 36.957,0.28 38.217,-7.699 39.477,-15.679 33.316,-33.737 2.521,-18.898 -28.276,-4.06 22.811,-20.076 21.139,-8.959 19.467,2.157 -1.68,-12.739 0,0"
             style="fill:#ed1c24;fill-opacity:1;fill-rule:nonzero;stroke:none"
             id="path648"
             inkscape:connector-curvature="0" />
        </g>
        <g
           id="g650"
           transform="translate(1163.6162,256.8428)">
          <path
             d="m 0,0 c -5.079,4.742 -10.123,9.518 -15.108,14.35 l -7.479,7.248 -7.439,7.286 -7.399,7.325 -7.385,7.339 -14.664,14.781 -14.557,14.883 c -4.865,4.949 -9.657,9.969 -14.471,14.968 -4.816,4.995 -9.624,10.001 -14.382,15.053 l -7.159,7.558 -7.117,7.598 0.201,-0.178 c -0.439,0.351 -0.79,0.66 -1.166,1.001 -0.368,0.334 -0.726,0.676 -1.076,1.025 -0.7,0.7 -1.371,1.43 -2.007,2.197 -1.271,1.53 -2.409,3.215 -3.252,5.114 -0.417,0.948 -0.734,1.965 -0.92,3.023 -0.102,0.525 -0.148,1.071 -0.163,1.615 -0.022,0.544 0.029,1.093 0.089,1.639 0.1,0.542 0.203,1.083 0.389,1.601 0.158,0.524 0.395,1.02 0.639,1.499 0.256,0.476 0.537,0.931 0.861,1.35 0.295,0.445 0.673,0.802 1.008,1.203 l -0.268,-0.462 c 1.772,5.165 3.635,10.3 5.452,15.452 1.852,5.139 3.724,10.272 5.646,15.389 -1.384,-5.288 -2.819,-10.56 -4.274,-15.826 -1.489,-5.255 -2.934,-10.524 -4.468,-15.764 l -0.046,-0.156 -0.222,-0.306 c -0.244,-0.338 -0.547,-0.643 -0.748,-0.998 -0.237,-0.339 -0.428,-0.696 -0.6,-1.057 -0.159,-0.365 -0.316,-0.731 -0.405,-1.112 -0.115,-0.375 -0.161,-0.764 -0.217,-1.148 -0.016,-0.391 -0.037,-0.779 0.003,-1.174 0.033,-0.391 0.082,-0.786 0.184,-1.177 0.181,-0.784 0.464,-1.563 0.845,-2.315 0.74,-1.512 1.77,-2.942 2.951,-4.255 0.589,-0.657 1.215,-1.29 1.868,-1.893 0.326,-0.302 0.659,-0.597 0.998,-0.881 0.33,-0.28 0.698,-0.576 1.002,-0.8 l 0.087,-0.064 0.115,-0.114 7.37,-7.352 7.33,-7.393 c 4.9,-4.914 9.753,-9.876 14.595,-14.847 4.845,-4.968 9.712,-9.915 14.505,-14.933 l 14.419,-15.018 14.315,-15.12 7.103,-7.611 7.09,-7.624 7.049,-7.664 7.01,-7.703 C -9.195,10.417 -4.58,5.226 0,0"
             style="fill:#ed1c24;fill-opacity:1;fill-rule:nonzero;stroke:none"
             id="path652"
             inkscape:connector-curvature="0" />
        </g>
        <g
           id="g654"
           transform="translate(1092.5039,526.79)">
          <path
             d="m 0,0 c 0.387,1.882 0.741,3.772 1.16,5.645 0.405,1.876 0.805,3.754 1.242,5.622 0.838,3.744 1.737,7.471 2.645,11.196 0.885,3.731 1.878,7.431 2.811,11.147 0.942,3.715 1.976,7.403 2.959,11.106 0.973,3.705 2.049,7.381 3.085,11.068 l 1.565,5.528 0.395,1.381 0.102,0.344 0.052,0.172 0.025,0.086 0.074,0.226 0.018,0.041 c 0.088,0.215 0.241,0.577 0.355,0.802 0.474,0.999 1.033,1.899 1.634,2.782 1.226,1.736 2.665,3.333 4.358,4.639 0.396,0.359 0.865,0.626 1.297,0.937 0.439,0.304 0.878,0.607 1.358,0.844 l 1.41,0.757 1.485,0.584 c 0.976,0.435 2.029,0.6 3.04,0.894 1.029,0.203 2.07,0.324 3.102,0.457 1.033,0.022 2.07,0.078 3.097,0.061 l 3.051,-0.252 -0.226,0.013 9.084,-0.249 c 3.027,-0.075 6.055,-0.229 9.084,-0.34 3.027,-0.116 6.056,-0.303 9.085,-0.457 3.028,-0.186 6.056,-0.391 9.085,-0.647 -3.026,-0.287 -6.052,-0.526 -9.078,-0.744 -3.027,-0.186 -6.053,-0.406 -9.08,-0.554 -3.026,-0.144 -6.052,-0.331 -9.08,-0.438 l -9.08,-0.346 -0.226,0.012 -2.681,0.113 C 36.32,72.406 35.443,72.319 34.564,72.273 33.706,72.12 32.843,71.989 32.003,71.791 31.191,71.505 30.329,71.358 29.568,70.965 27.97,70.359 26.534,69.43 25.197,68.396 23.864,67.347 22.73,66.045 21.767,64.646 21.301,63.941 20.855,63.204 20.521,62.465 20.424,62.261 20.391,62.18 20.299,61.953 l -0.017,-0.042 c 0.12,0.357 0.031,0.087 0.056,0.161 L 20.331,62.05 20.307,61.964 20.258,61.791 20.16,61.445 19.755,60.068 18.118,54.561 c -1.099,-3.669 -2.158,-7.35 -3.319,-11 C 13.647,39.907 12.546,36.238 11.354,32.596 10.152,28.957 9.011,25.3 7.761,21.675 6.535,18.043 5.298,14.414 4.002,10.802 3.372,8.991 2.704,7.191 2.042,5.389 1.394,3.583 0.681,1.796 0,0"
             style="fill:#ed1c24;fill-opacity:1;fill-rule:nonzero;stroke:none"
             id="path656"
             inkscape:connector-curvature="0" />
        </g>
        <g
           id="g658"
           transform="translate(1199.9189,413.6436)">
          <path
             d="m 0,0 c -0.229,1.13 -0.305,2.296 -0.274,3.467 0.008,0.587 0.069,1.176 0.174,1.759 0.062,0.29 0.091,0.589 0.181,0.876 L 0.327,6.97 0.661,7.818 C 0.771,8.104 0.94,8.363 1.08,8.64 1.216,8.919 1.394,9.174 1.583,9.423 1.775,9.669 1.937,9.945 2.175,10.154 l 0.677,0.668 c 0.244,0.2 0.509,0.376 0.766,0.565 0.504,0.406 1.111,0.606 1.673,0.915 l -0.51,-1.321 c -1.323,2.314 -2.26,4.753 -2.605,7.497 -0.116,1.366 -0.171,2.812 0.293,4.259 0.425,1.418 1.237,2.864 2.438,3.819 0.551,0.562 1.211,0.891 1.853,1.276 l 0.243,0.141 0.121,0.069 0.03,0.018 C 7.197,28.082 6.899,27.934 7.037,28.003 l 0.05,0.031 0.2,0.122 0.101,0.062 c 0.018,0.015 0.003,0.018 0.007,0.027 0.006,0.047 -0.02,-0.007 0.044,0.081 l 0.169,0.214 c 0.469,0.691 0.858,1.766 1.121,2.865 0.53,2.226 0.821,4.639 0.962,7.056 0.144,2.424 0.162,4.874 0.093,7.326 C 9.737,48.24 9.632,50.7 9.445,53.157 9.066,58.071 8.458,62.975 7.714,67.856 6.936,72.734 5.954,77.58 4.819,82.387 4.243,84.789 3.598,87.173 2.908,89.543 2.236,91.92 1.501,94.279 0.693,96.612 c -0.819,2.329 -1.676,4.647 -2.611,6.935 -0.934,2.288 -1.982,4.527 -3.071,6.75 -1.096,2.221 -2.321,4.377 -3.614,6.501 -1.315,2.108 -2.718,4.176 -4.275,6.147 3.736,-3.368 6.899,-7.389 9.635,-11.655 1.386,-2.127 2.612,-4.352 3.785,-6.603 1.173,-2.252 2.244,-4.557 3.214,-6.902 0.979,-2.342 1.886,-4.713 2.726,-7.108 0.824,-2.4 1.562,-4.827 2.252,-7.268 1.399,-4.877 2.472,-9.841 3.317,-14.84 0.874,-4.996 1.456,-10.043 1.76,-15.117 C 14.133,48.38 14.176,43.276 13.667,38.144 13.396,35.578 13.068,32.998 12.247,30.399 11.825,29.102 11.343,27.78 10.319,26.449 10.184,26.283 10.022,26.117 9.872,25.956 9.736,25.803 9.441,25.578 9.217,25.415 L 9.042,25.295 8.938,25.239 8.73,25.13 8.239,24.873 C 7.798,24.635 7.299,24.449 6.959,24.112 5.386,22.983 4.684,20.943 4.761,18.671 4.843,16.421 5.502,14.017 6.418,11.867 L 6.811,10.946 5.908,10.545 C 5.447,10.341 4.914,10.244 4.489,9.959 4.269,9.831 4.036,9.715 3.819,9.576 L 3.213,9.096 C 2.993,8.95 2.846,8.73 2.654,8.55 2.468,8.365 2.287,8.173 2.142,7.948 1.993,7.729 1.812,7.526 1.685,7.288 L 1.288,6.577 0.961,5.822 C 0.842,5.572 0.78,5.3 0.687,5.038 0.521,4.508 0.378,3.961 0.276,3.406 0.066,2.296 -0.045,1.149 0,0"
             style="fill:#ed1c24;fill-opacity:1;fill-rule:nonzero;stroke:none"
             id="path660"
             inkscape:connector-curvature="0" />
        </g>
        <g
           id="g662"
           transform="translate(1111.3516,640.3862)">
          <path
             d="m 0,0 c 0,0 1.25,-0.053 3.418,-0.276 2.169,-0.222 5.261,-0.594 8.936,-1.227 1.839,-0.309 3.83,-0.662 5.918,-1.108 2.09,-0.441 4.3,-0.896 6.557,-1.481 2.259,-0.579 4.605,-1.147 6.954,-1.85 2.358,-0.674 4.733,-1.433 7.098,-2.232 2.359,-0.812 4.708,-1.672 6.991,-2.597 2.294,-0.899 4.495,-1.941 6.628,-2.935 1.053,-0.534 2.105,-1.018 3.1,-1.569 0.991,-0.566 1.97,-1.088 2.9,-1.653 1.87,-1.103 3.583,-2.253 5.092,-3.424 1.523,-1.145 2.838,-2.319 3.902,-3.462 1.098,-1.103 1.895,-2.231 2.495,-3.164 0.28,-0.489 0.521,-0.923 0.721,-1.302 0.188,-0.387 0.284,-0.751 0.393,-1.023 0.188,-0.554 0.29,-0.849 0.29,-0.849 0,0 -0.181,0.255 -0.521,0.733 -0.173,0.231 -0.346,0.538 -0.619,0.851 -0.281,0.302 -0.604,0.651 -0.966,1.041 -0.759,0.738 -1.724,1.578 -2.924,2.424 -0.57,0.452 -1.254,0.85 -1.95,1.287 -0.681,0.452 -1.448,0.869 -2.233,1.315 -1.58,0.877 -3.359,1.725 -5.238,2.614 -1.892,0.869 -3.937,1.69 -6.037,2.573 -1.064,0.412 -2.147,0.831 -3.243,1.254 -1.103,0.407 -2.222,0.818 -3.348,1.232 -2.262,0.81 -4.559,1.642 -6.881,2.416 -2.31,0.808 -4.64,1.566 -6.932,2.325 -2.297,0.753 -4.558,1.493 -6.745,2.21 -4.396,1.422 -8.498,2.75 -12.015,3.887 C 8.217,-2.851 5.283,-1.85 3.229,-1.142 1.173,-0.434 0,0 0,0"
             style="fill:#ed1c24;fill-opacity:1;fill-rule:nonzero;stroke:none"
             id="path664"
             inkscape:connector-curvature="0" />
        </g>
        <g
           id="g666"
           transform="translate(998.0342,688.6128)">
          <path
             d="m 0,0 c 0,0 -0.091,0.424 -0.221,1.228 -0.127,0.804 -0.324,1.987 -0.457,3.504 -0.151,1.516 -0.277,3.364 -0.321,5.491 -0.023,2.124 -0.038,4.533 0.173,7.15 0.064,1.313 0.227,2.67 0.35,4.085 0.184,1.405 0.362,2.863 0.634,4.348 0.479,2.982 1.185,6.099 2.089,9.28 0.979,3.155 1.996,6.438 3.45,9.61 1.364,3.209 3.043,6.339 4.825,9.407 1.911,2.991 3.927,5.921 6.18,8.594 0.559,0.671 1.115,1.339 1.67,2.004 0.586,0.636 1.195,1.246 1.787,1.863 0.599,0.612 1.179,1.233 1.78,1.823 0.624,0.569 1.242,1.134 1.854,1.694 0.617,0.555 1.211,1.125 1.832,1.651 0.632,0.514 1.264,1.016 1.895,1.503 0.627,0.49 1.249,0.974 1.863,1.453 0.641,0.44 1.274,0.875 1.9,1.304 2.448,1.786 4.981,3.136 7.257,4.445 2.374,1.14 4.481,2.3 6.489,3.029 1.981,0.782 3.673,1.519 5.145,1.935 2.907,0.914 4.567,1.39 4.567,1.39 0,0 -1.534,-0.833 -4.215,-2.208 -1.365,-0.635 -2.902,-1.654 -4.732,-2.651 -0.453,-0.258 -0.92,-0.523 -1.402,-0.797 C 43.928,80.832 43.45,80.521 42.961,80.2 41.978,79.575 40.943,78.917 39.865,78.232 37.802,76.721 35.517,75.179 33.283,73.313 32.718,72.858 32.144,72.397 31.563,71.931 31.013,71.43 30.456,70.922 29.893,70.409 29.333,69.893 28.761,69.381 28.177,68.871 27.61,68.343 27.071,67.774 26.51,67.221 25.953,66.664 25.392,66.102 24.825,65.536 24.281,64.95 23.759,64.335 23.22,63.731 22.687,63.122 22.149,62.51 21.61,61.894 21.097,61.257 20.581,60.617 20.063,59.974 17.97,57.42 16.117,54.616 14.345,51.773 12.62,48.899 10.981,45.962 9.642,42.934 8.245,39.934 7.05,36.893 6,33.906 5.037,30.893 4.092,27.969 3.421,25.13 2.731,22.297 2.148,19.591 1.716,17.07 1.271,14.549 0.966,12.218 0.704,10.144 0.493,8.068 0.298,6.249 0.208,4.745 0.117,3.242 0.037,2.055 0.021,1.245 -0.007,0.434 0,0 0,0"
             style="fill:#ed1c24;fill-opacity:1;fill-rule:nonzero;stroke:none"
             id="path668"
             inkscape:connector-curvature="0" />
        </g>
        <g
           id="g670"
           transform="translate(1091.8506,762.8984)">
          <path
             d="m 0,0 c 0,0 1.283,0.198 3.719,0.263 2.426,0.039 6.039,0.016 10.52,-0.97 4.432,-0.978 9.917,-2.901 14.798,-7.283 2.396,-2.195 4.612,-4.966 6.209,-8.277 0.886,-1.612 1.374,-3.522 2.149,-4.967 0.742,-1.411 1.989,-2.65 3.474,-3.537 3.027,-1.784 6.976,-2.312 10.96,-2.135 4.013,0.188 8.172,1 12.305,2.3 8.273,2.602 16.512,6.994 23.932,12.849 3.691,2.952 7.161,6.297 10.21,10.043 3.031,3.757 5.639,7.907 7.597,12.372 1.965,4.461 3.17,9.268 3.544,14.157 0.181,2.445 0.184,4.913 -0.066,7.366 -0.042,0.615 -0.148,1.225 -0.217,1.838 -0.039,0.285 -0.075,0.658 -0.117,0.871 l -0.169,0.956 c -0.233,1.266 -0.434,2.568 -0.693,3.806 -1.971,9.793 -5.746,19.41 -11.502,27.38 -5.712,8.011 -13.431,14.314 -21.965,18.182 -8.542,3.821 -17.78,5.4 -26.359,4.647 C 44.052,89.504 39.886,88.613 36.15,87.201 34.224,86.42 32.212,85.763 30.483,84.888 29.591,84.474 28.708,84.065 27.833,83.659 26.972,83.218 26.135,82.736 25.297,82.284 23.594,81.417 22.06,80.355 20.518,79.377 19.731,78.909 19.038,78.333 18.319,77.807 17.606,77.272 16.902,76.745 16.207,76.224 13.556,73.989 11.105,71.752 9.152,69.342 5.135,64.609 2.61,59.691 1.303,55.415 -0.005,51.124 -0.234,47.558 -0.251,45.143 -0.229,43.935 -0.106,43.011 -0.073,42.385 -0.025,41.759 0,41.436 0,41.436 c 0,0 -0.046,0.32 -0.135,0.94 -0.073,0.623 -0.257,1.542 -0.359,2.756 -0.123,2.42 -0.197,6.062 0.958,10.521 1.125,4.443 3.472,9.636 7.388,14.734 1.905,2.593 4.319,5.03 6.963,7.485 2.747,2.33 5.775,4.643 9.193,6.638 0.853,0.5 1.702,1.028 2.587,1.521 0.907,0.46 1.824,0.925 2.75,1.394 1.853,1.006 3.748,1.692 5.673,2.552 4.049,1.687 8.417,2.7 12.99,3.213 9.13,1.032 19.051,-0.366 28.28,-4.37 9.195,-4.026 17.726,-10.639 23.868,-19.25 3.105,-4.27 5.684,-8.95 7.734,-13.851 2.048,-4.924 3.597,-9.976 4.671,-15.269 0.261,-1.297 0.45,-2.558 0.678,-3.838 l 0.164,-0.957 c 0.074,-0.424 0.092,-0.697 0.14,-1.052 0.074,-0.673 0.183,-1.342 0.227,-2.018 0.259,-2.696 0.246,-5.418 0.032,-8.114 C 113.364,19.079 112,13.784 109.831,8.925 105.522,-0.863 98.336,-8.772 90.493,-14.854 82.596,-20.94 73.857,-25.272 65.086,-27.799 c -4.39,-1.247 -8.815,-2.039 -13.181,-2.089 -4.328,-0.027 -8.744,0.638 -12.392,2.946 -1.8,1.171 -3.31,2.743 -4.238,4.666 -0.889,1.88 -1.221,3.562 -1.971,5.1 -1.333,3.147 -3.262,5.812 -5.408,7.983 -4.372,4.334 -9.572,6.483 -13.863,7.644 C 9.693,-0.402 6.132,-0.077 3.717,0.021 1.295,0.114 0,0 0,0"
             style="fill:#ed1c24;fill-opacity:1;fill-rule:nonzero;stroke:none"
             id="path672"
             inkscape:connector-curvature="0" />
        </g>
        <g
           id="g674"
           transform="translate(1263.2861,616.3804)">
          <path
             d="m 0,0 c 0,0 1.257,0.167 3.469,0.331 2.21,0.159 5.377,0.318 9.18,0.285 1.903,-0.01 3.964,-0.055 6.143,-0.182 2.177,-0.13 4.479,-0.268 6.846,-0.551 1.185,-0.129 2.39,-0.269 3.607,-0.441 1.22,-0.148 2.45,-0.343 3.686,-0.567 2.473,-0.427 4.972,-0.965 7.465,-1.549 2.473,-0.666 4.939,-1.378 7.324,-2.236 0.595,-0.215 1.189,-0.429 1.78,-0.642 0.585,-0.229 1.157,-0.491 1.73,-0.733 1.152,-0.469 2.259,-1.018 3.345,-1.56 1.098,-0.511 2.122,-1.149 3.134,-1.733 0.999,-0.612 1.932,-1.297 2.856,-1.92 0.868,-0.718 1.75,-1.356 2.522,-2.081 0.737,-0.767 1.517,-1.421 2.129,-2.199 1.301,-1.472 2.282,-2.996 3.015,-4.398 0.334,-0.723 0.658,-1.388 0.924,-2.012 0.195,-0.654 0.373,-1.254 0.533,-1.797 0.08,-0.268 0.154,-0.522 0.224,-0.762 0.034,-0.248 0.067,-0.481 0.096,-0.697 0.057,-0.431 0.106,-0.796 0.145,-1.093 0.078,-0.587 0.119,-0.9 0.119,-0.9 0,0 -0.103,0.3 -0.297,0.862 -0.096,0.279 -0.215,0.621 -0.355,1.025 -0.068,0.2 -0.142,0.415 -0.222,0.644 -0.106,0.219 -0.219,0.451 -0.338,0.698 -0.238,0.485 -0.5,1.023 -0.787,1.608 -0.352,0.544 -0.734,1.132 -1.142,1.76 -0.872,1.209 -1.968,2.48 -3.302,3.72 -0.631,0.652 -1.438,1.186 -2.183,1.815 -0.78,0.594 -1.646,1.14 -2.497,1.738 -0.918,0.514 -1.828,1.084 -2.81,1.584 -1.008,0.459 -1.967,1.044 -3.041,1.469 -2.09,0.957 -4.337,1.758 -6.635,2.537 -2.296,0.789 -4.688,1.432 -7.088,2.047 -2.405,0.602 -4.826,1.164 -7.234,1.618 -2.406,0.455 -4.778,0.922 -7.094,1.27 -4.624,0.741 -8.974,1.301 -12.715,1.741 C 8.791,-0.875 5.658,-0.549 3.46,-0.334 1.258,-0.122 0,0 0,0"
             style="fill:#ed1c24;fill-opacity:1;fill-rule:nonzero;stroke:none"
             id="path676"
             inkscape:connector-curvature="0" />
        </g>
        <g
           id="g678"
           transform="translate(1191.0537,373.0859)">
          <path
             d="m 0,0 c 0,0 0.894,-0.555 2.458,-1.525 1.561,-0.956 3.79,-2.322 6.465,-3.96 1.343,-0.798 2.798,-1.661 4.337,-2.576 1.548,-0.885 3.18,-1.819 4.87,-2.785 1.692,-0.953 3.474,-1.875 5.269,-2.827 1.799,-0.945 3.645,-1.869 5.522,-2.712 1.853,-0.894 3.74,-1.704 5.613,-2.458 0.942,-0.357 1.875,-0.713 2.799,-1.063 0.933,-0.312 1.846,-0.665 2.762,-0.933 1.83,-0.545 3.606,-1.069 5.318,-1.411 0.855,-0.188 1.691,-0.342 2.504,-0.448 0.406,-0.065 0.806,-0.128 1.198,-0.191 0.395,-0.035 0.781,-0.07 1.16,-0.104 0.761,-0.08 1.492,-0.122 2.186,-0.116 0.696,-0.011 1.365,-0.055 1.982,0.013 0.624,0.044 1.208,0.086 1.748,0.125 0.538,0.081 1.032,0.156 1.478,0.223 0.906,0.111 1.58,0.356 2.066,0.45 0.482,0.117 0.739,0.181 0.739,0.181 0,0 -0.234,-0.122 -0.67,-0.351 -0.221,-0.114 -0.493,-0.257 -0.814,-0.423 -0.317,-0.18 -0.696,-0.356 -1.138,-0.5 -0.441,-0.161 -0.929,-0.338 -1.46,-0.533 -0.539,-0.174 -1.14,-0.285 -1.778,-0.446 -0.638,-0.178 -1.33,-0.249 -2.061,-0.359 -0.733,-0.127 -1.506,-0.166 -2.316,-0.193 -0.405,-0.016 -0.819,-0.032 -1.242,-0.049 -0.42,0.011 -0.849,0.022 -1.285,0.033 -0.878,0.006 -1.772,0.104 -2.693,0.211 -1.846,0.193 -3.769,0.545 -5.721,1.039 -1.95,0.5 -3.948,1.075 -5.92,1.815 -1.965,0.749 -3.944,1.55 -5.875,2.445 -1.926,0.909 -3.808,1.897 -5.638,2.902 -1.839,0.991 -3.568,2.1 -5.251,3.149 -3.338,2.146 -6.32,4.334 -8.787,6.316 C 2.865,-3.121 0,0 0,0"
             style="fill:#ed1c24;fill-opacity:1;fill-rule:nonzero;stroke:none"
             id="path680"
             inkscape:connector-curvature="0" />
        </g>
        <g
           id="g682"
           transform="translate(1265.9922,332.2949)">
          <path
             d="m 0,0 c 0,0 0.719,-0.691 2.021,-1.826 1.296,-1.138 3.185,-2.715 5.542,-4.414 2.365,-1.67 5.242,-3.482 8.503,-4.619 1.625,-0.57 3.352,-0.871 5.048,-0.876 1.699,0.006 3.378,0.392 4.878,1.216 0.366,0.226 0.751,0.415 1.112,0.655 l 1.113,0.811 c 0.787,0.591 1.572,1.18 2.35,1.764 0.861,0.565 1.715,1.136 2.584,1.634 0.888,0.454 1.731,0.952 2.618,1.343 1.758,0.807 3.529,1.451 5.275,1.828 1.722,0.454 3.426,0.577 4.976,0.608 1.561,-0.042 2.987,-0.185 4.203,-0.571 0.614,-0.136 1.163,-0.395 1.666,-0.592 0.491,-0.247 0.932,-0.488 1.308,-0.735 0.751,-0.513 1.221,-1.058 1.496,-1.44 0.24,-0.404 0.368,-0.62 0.368,-0.62 0,0 -0.175,0.174 -0.504,0.499 -0.346,0.298 -0.916,0.647 -1.677,0.972 -0.779,0.296 -1.755,0.552 -2.902,0.654 -1.137,0.149 -2.447,0.04 -3.838,-0.093 -1.394,-0.235 -2.886,-0.547 -4.41,-1.094 -0.769,-0.239 -1.533,-0.568 -2.305,-0.92 -0.784,-0.318 -1.544,-0.753 -2.334,-1.142 -0.784,-0.402 -1.534,-0.914 -2.318,-1.372 -0.747,-0.506 -1.474,-1.039 -2.238,-1.538 -0.764,-0.597 -1.533,-1.199 -2.306,-1.804 l -1.257,-0.951 c -0.454,-0.313 -0.946,-0.585 -1.423,-0.87 -1.986,-1.043 -4.279,-1.527 -6.459,-1.483 -2.194,0.025 -4.246,0.619 -6.075,1.36 -1.838,0.748 -3.445,1.746 -4.884,2.758 C 8.685,-9.852 7.438,-8.765 6.34,-7.722 4.141,-5.638 2.566,-3.682 1.531,-2.275 0.498,-0.865 0,0 0,0"
             style="fill:#ed1c24;fill-opacity:1;fill-rule:nonzero;stroke:none"
             id="path684"
             inkscape:connector-curvature="0" />
        </g>
        <g
           id="g686"
           transform="translate(1189.3203,357.1279)">
          <path
             d="m 0,0 c 0,0 0.034,-1.014 0.094,-2.786 0.043,-0.878 0.095,-1.944 0.156,-3.167 0.07,-1.219 0.18,-2.587 0.289,-4.071 0.26,-2.969 0.654,-6.401 1.285,-10.005 0.15,-0.903 0.356,-1.807 0.524,-2.73 0.223,-0.908 0.406,-1.838 0.65,-2.756 0.475,-1.84 1.011,-3.688 1.674,-5.481 0.297,-0.91 0.693,-1.775 1.031,-2.663 0.417,-0.847 0.758,-1.732 1.199,-2.552 0.448,-0.814 0.846,-1.655 1.339,-2.42 0.237,-0.39 0.471,-0.778 0.703,-1.163 0.257,-0.369 0.511,-0.735 0.763,-1.098 0.479,-0.752 1.046,-1.409 1.576,-2.081 0.506,-0.696 1.115,-1.266 1.659,-1.88 0.529,-0.632 1.154,-1.125 1.707,-1.67 0.543,-0.561 1.141,-1.014 1.707,-1.467 0.56,-0.465 1.114,-0.89 1.673,-1.251 0.551,-0.384 1.074,-0.748 1.565,-1.091 1.045,-0.575 1.933,-1.17 2.708,-1.579 1.563,-0.778 2.469,-1.283 2.469,-1.283 0,0 -1.001,0.124 -2.778,0.447 -0.878,0.187 -1.927,0.502 -3.141,0.869 -1.16,0.482 -2.549,0.925 -3.902,1.733 -1.407,0.715 -2.854,1.661 -4.279,2.799 -0.7,0.585 -1.446,1.167 -2.107,1.865 -0.691,0.67 -1.377,1.377 -2,2.16 -0.319,0.384 -0.652,0.766 -0.964,1.167 -0.291,0.415 -0.584,0.833 -0.879,1.254 -0.62,0.827 -1.12,1.736 -1.651,2.64 -0.525,0.906 -0.967,1.861 -1.431,2.81 -0.391,0.976 -0.844,1.938 -1.18,2.935 -0.706,1.988 -1.276,4.011 -1.689,6.026 -0.427,2.011 -0.708,4.01 -0.873,5.945 -0.178,1.935 -0.226,3.808 -0.209,5.576 0.017,1.77 0.136,3.437 0.291,4.966 0.294,3.062 0.801,5.572 1.233,7.306 C -0.358,-0.96 0,0 0,0"
             style="fill:#ed1c24;fill-opacity:1;fill-rule:nonzero;stroke:none"
             id="path688"
             inkscape:connector-curvature="0" />
        </g>
        <g
           id="g690"
           transform="translate(1188.8135,316.625)">
          <path
             d="m 0,0 c 0,0 0.048,-0.185 0.136,-0.531 0.076,-0.344 0.252,-0.836 0.437,-1.46 0.227,-0.615 0.469,-1.364 0.834,-2.187 0.185,-0.41 0.36,-0.851 0.578,-1.301 0.228,-0.442 0.467,-0.909 0.716,-1.395 0.222,-0.494 0.57,-0.954 0.867,-1.453 0.316,-0.49 0.585,-1.026 0.981,-1.505 0.366,-0.492 0.741,-0.998 1.125,-1.516 0.427,-0.479 0.862,-0.968 1.305,-1.467 0.221,-0.248 0.443,-0.498 0.667,-0.75 l 0.762,-0.68 c 0.514,-0.452 1.022,-0.919 1.53,-1.393 0.564,-0.411 1.132,-0.827 1.703,-1.243 0.559,-0.431 1.12,-0.863 1.76,-1.187 1.241,-0.703 2.412,-1.521 3.735,-2.046 1.3,-0.556 2.506,-1.285 3.824,-1.658 1.297,-0.412 2.506,-0.972 3.72,-1.315 1.22,-0.309 2.372,-0.645 3.44,-0.962 1.064,-0.342 2.067,-0.546 2.957,-0.734 0.891,-0.185 1.668,-0.38 2.311,-0.534 1.286,-0.314 2.027,-0.534 2.027,-0.534 0,0 -0.753,-0.074 -2.083,-0.132 -0.664,-0.028 -1.476,-0.07 -2.407,-0.077 -0.467,-0.007 -0.964,-0.016 -1.487,-0.024 -0.527,-0.015 -1.067,0.089 -1.64,0.133 -1.143,0.113 -2.387,0.242 -3.699,0.425 -1.311,0.192 -2.665,0.585 -4.075,0.947 -1.424,0.311 -2.821,0.923 -4.249,1.503 -1.462,0.507 -2.786,1.397 -4.163,2.165 -0.697,0.372 -1.323,0.861 -1.946,1.349 -0.62,0.49 -1.238,0.976 -1.852,1.458 -0.561,0.545 -1.097,1.111 -1.625,1.666 l -0.785,0.827 c -0.229,0.3 -0.456,0.599 -0.682,0.896 -0.442,0.6 -0.903,1.167 -1.291,1.765 -0.348,0.623 -0.689,1.233 -1.021,1.827 -0.349,0.579 -0.597,1.193 -0.837,1.782 -0.224,0.597 -0.495,1.144 -0.639,1.718 -0.164,0.561 -0.322,1.1 -0.472,1.611 -0.119,0.52 -0.194,1.022 -0.284,1.484 -0.194,0.922 -0.207,1.756 -0.259,2.422 C -0.128,-0.757 0,0 0,0"
             style="fill:#ed1c24;fill-opacity:1;fill-rule:nonzero;stroke:none"
             id="path692"
             inkscape:connector-curvature="0" />
        </g>
        <g
           id="g694"
           transform="translate(1113.3154,685.0664)">
          <path
             d="m 0,0 c 0,0 3.759,1.047 9.361,2.492 2.792,0.732 6.05,1.585 9.541,2.499 1.735,0.474 3.527,0.964 5.348,1.461 1.818,0.497 3.661,1.017 5.484,1.588 1.839,0.523 3.662,1.09 5.443,1.68 1.775,0.607 3.533,1.167 5.207,1.787 1.661,0.641 3.276,1.241 4.778,1.878 1.493,0.652 2.901,1.282 4.175,1.917 1.267,0.645 2.403,1.282 3.407,1.869 0.964,0.634 1.835,1.167 2.49,1.688 0.689,0.486 1.182,0.925 1.531,1.219 0.349,0.296 0.535,0.453 0.535,0.453 0,0 -0.139,-0.199 -0.399,-0.574 -0.268,-0.369 -0.62,-0.961 -1.21,-1.585 C 55.143,17.7 54.401,16.961 53.513,16.14 53.051,15.752 52.56,15.34 52.042,14.905 51.518,14.475 50.925,14.087 50.326,13.646 49.11,12.797 47.749,11.941 46.261,11.13 44.776,10.314 43.184,9.505 41.495,8.765 39.803,8.046 38.059,7.279 36.234,6.653 34.416,6.012 32.562,5.387 30.692,4.822 28.815,4.276 26.927,3.784 25.066,3.315 23.207,2.837 21.351,2.485 19.563,2.116 15.981,1.416 12.61,0.92 9.71,0.604 3.912,-0.066 0,0 0,0"
             style="fill:#ed1c24;fill-opacity:1;fill-rule:nonzero;stroke:none"
             id="path696"
             inkscape:connector-curvature="0" />
        </g>
        <g
           id="g698"
           transform="translate(990.874,672.561)">
          <path
             d="m 0,0 c 0,0 -7.466,-21.278 -4.292,-34.53 3.173,-13.252 -13.812,-25.01 -9.146,-37.889 4.667,-12.878 14.745,13.065 14.745,13.065 0,0 4.479,4.853 9.519,1.121 5.039,-3.734 13.812,3.359 13.812,3.359 0,0 2.8,-12.132 12.879,-6.346 0,0 5.319,-13.159 20.158,-8.119 14.838,5.039 35.276,22.398 35.276,22.398 0,0 4.619,15.678 15.958,15.538 11.339,-0.14 7.839,2.659 4.06,4.759 -3.78,2.1 -5.74,7.419 -2.38,10.499 0,0 -17.638,5.6 -24.917,13.299 0,0 4.707,-18.302 9.938,-24.918 0,0 -2.892,-5.506 -6.439,0.84 C 85.625,-20.578 68.313,14.652 55.435,13.532 42.556,12.412 27.157,-5.506 25.758,3.453 c -1.4,8.959 12.879,14.559 4.76,20.158 C 22.398,29.21 20.531,1.773 12.786,7.466 5.04,13.159 0,0 0,0 Z"
             style="fill:none;stroke:#000000;stroke-width:3.3599999;stroke-linecap:butt;stroke-linejoin:miter;stroke-miterlimit:10;stroke-dasharray:none;stroke-opacity:1"
             id="path700"
             inkscape:connector-curvature="0" />
        </g>
        <g
           id="g702"
           transform="translate(1083.8252,625.6196)">
          <path
             d="m 0,0 c 0,0 7.559,-1.12 14.558,6.019 7,7.14 58.514,-6.859 73.072,-19.178 0,0 5.133,-4.386 -2.147,-4.759 -7.279,-0.374 -48.154,-1.027 -48.154,-1.027 0,0 -15.025,-3.079 -15.492,-12.785 L 3.359,-95.843 c 0,0 -3.78,5.272 -8.959,3.872 -5.179,-1.399 0.98,-6.019 -2.379,-6.859 -3.36,-0.839 -11.899,-4.199 -11.2,-9.099 0.7,-4.899 -5.179,-0.7 -1.959,4.34 3.219,5.039 -11.899,3.92 -9.939,-9.099 0,0 -14.139,-8.819 -8.4,-23.238 0,0 -8.539,-4.06 -4.338,-12.038 0,0 -7,-3.92 -3.781,-9.1 3.22,-5.179 -13.298,-11.478 -1.96,-22.257 l 0.281,-7 c 0,0 6.719,-13.998 14.698,-9.518 7.979,4.479 2.519,9.938 0,10.358 -2.52,0.42 -0.42,-6.159 -3.64,-2.8 -3.22,3.361 -2.659,10.079 3.22,10.78 5.88,0.7 9.1,14.138 -0.56,16.938"
             style="fill:none;stroke:#000000;stroke-width:3.3599999;stroke-linecap:butt;stroke-linejoin:miter;stroke-miterlimit:10;stroke-dasharray:none;stroke-opacity:1"
             id="path704"
             inkscape:connector-curvature="0" />
        </g>
        <g
           id="g706"
           transform="translate(1051.8896,463.0566)">
          <path
             d="m 0,0 c 0,0 5.758,2.279 3.378,6.76 -2.38,4.479 7,3.638 7.979,-0.841 0.98,-4.48 -10.701,-31.255 -10.701,-31.255"
             style="fill:none;stroke:#000000;stroke-width:3.3599999;stroke-linecap:butt;stroke-linejoin:miter;stroke-miterlimit:10;stroke-dasharray:none;stroke-opacity:1"
             id="path708"
             inkscape:connector-curvature="0" />
        </g>
        <g
           id="g710"
           transform="translate(1047.9707,429.2217)">
          <path
             d="m 0,0 -10.808,-30.845 c 0,0 -8.213,-9.332 -5.413,-18.571 2.8,-9.239 12.039,-8.399 12.039,-8.399 L 112.939,-174.75 c 0,0 -4.479,-9.892 2.614,-16.052 7.092,-6.159 10.078,-3.546 10.078,-3.546 0,0 1.494,6.907 8.026,11.573 6.532,4.666 11.012,3.359 11.012,3.359 0,0 4.666,7.652 -3.732,13.252 -8.4,5.6 -17.359,0.56 -17.359,0.56 L 13.27,-42.977 c 0,0 -2.893,1.82 -1.074,6.019 l 20.298,64.813 c 0,0 19.738,-0.419 17.918,14.419 -1.819,14.838 -8.959,13.718 -8.959,13.718 l 39.196,91.971 h 30.517 c 0,0 18.198,-0.56 18.198,-11.759 v -20.438 c 0,0 -7.559,-1.4 -6.719,-5.319 0.839,-3.92 7.839,-3.92 7.839,-3.92 0,0 27.997,-54.128 25.757,-89.03 0,0 -8.119,-1.82 -6.579,-19.179 0,0 -5.039,-0.699 -3.5,-13.438 0,0 -8.818,-3.079 -7.419,-10.778 1.4,-7.7 8.959,-10.08 8.959,-10.08 0,0 -15.351,-11.105 -8.632,-24.918 0,0 -24.824,-29.116 -5.226,-78.951 0,0 5.801,-16.406 -2.225,-23.685"
             style="fill:none;stroke:#000000;stroke-width:3.3599999;stroke-linecap:butt;stroke-linejoin:miter;stroke-miterlimit:10;stroke-dasharray:none;stroke-opacity:1"
             id="path712"
             inkscape:connector-curvature="0" />
        </g>
        <g
           id="g714"
           transform="translate(990.874,672.561)">
          <path
             d="m 0,0 c 0,0 -15.678,38.169 16.519,78.765 32.197,40.596 69.712,37.796 78.391,21.838 8.68,-15.958 -13.998,-8.399 -13.998,-8.399 0,0 7.98,5.605 -0.28,8.399 C 71.113,103.823 40.876,71.766 45.076,44.049 49.275,16.332 33.014,20.043 33.014,20.043"
             style="fill:none;stroke:#000000;stroke-width:3.3599999;stroke-linecap:butt;stroke-linejoin:miter;stroke-miterlimit:10;stroke-dasharray:none;stroke-opacity:1"
             id="path716"
             inkscape:connector-curvature="0" />
        </g>
        <g
           id="g718"
           transform="translate(1071.7861,764.7646)">
          <path
             d="M 0,0 C 0,0 -20.169,0.061 -32.482,-24.747"
             style="fill:none;stroke:#000000;stroke-width:3.3599999;stroke-linecap:butt;stroke-linejoin:miter;stroke-miterlimit:10;stroke-dasharray:none;stroke-opacity:1"
             id="path720"
             inkscape:connector-curvature="0" />
        </g>
        <g
           id="g722"
           transform="translate(1086.6514,771.4131)">
          <path
             d="m 0,0 c 0,0 30.77,9.777 48.314,-25.5 0,0 71.207,1.214 59.448,60.847 C 96.003,94.981 6.973,78.183 9.772,31.708 c 0,0 6.719,1.12 8.12,-6.72 C 19.291,17.149 6.832,7.91 -2.127,19.669 -11.086,31.428 -6.746,92.741 59.327,105.34 125.399,117.938 172.062,51.212 168.329,-1.795 164.596,-54.803 129.317,-101.982 64.364,-112.995"
             style="fill:none;stroke:#000000;stroke-width:3.3599999;stroke-linecap:butt;stroke-linejoin:miter;stroke-miterlimit:10;stroke-dasharray:none;stroke-opacity:1"
             id="path724"
             inkscape:connector-curvature="0" />
        </g>
        <g
           id="g726"
           transform="translate(1192.6396,249.8057)">
          <path
             d="m 0,0 c 56.741,48.342 134.013,-25.57 139.239,25.197 5.226,50.769 -35.837,135.133 -55.994,133.266 -20.158,-1.866 -26.317,47.688 -26.317,47.688 0,0 0.559,35.277 21.557,79.792 20.998,44.515 71.673,27.158 70.832,53.195 -0.839,26.037 -59.913,28.837 -73.072,28.557 -13.158,-0.28 -50.674,11.478 -50.674,11.478 l -113.108,49.555"
             style="fill:none;stroke:#000000;stroke-width:3.3599999;stroke-linecap:butt;stroke-linejoin:miter;stroke-miterlimit:10;stroke-dasharray:none;stroke-opacity:1"
             id="path728"
             inkscape:connector-curvature="0" />
        </g>
        <g
           id="g730"
           transform="translate(1062.7881,470.0996)">
          <path
             d="M 0,0 C 0,0 -0.153,0.128 -0.426,0.398 -0.688,0.672 -1.099,1.069 -1.513,1.664 -1.949,2.246 -2.421,3.013 -2.811,3.999 -3,4.496 -3.185,5.041 -3.289,5.656 -3.37,5.959 -3.357,6.28 -3.3,6.606 c 0.052,0.325 0.037,0.663 0.123,0.997 0.222,1.372 0.941,2.726 1.893,3.924 0.537,0.527 1.038,1.156 1.686,1.578 0.311,0.232 0.626,0.466 0.944,0.704 0.327,0.213 0.676,0.387 1.018,0.586 0.701,0.403 1.364,0.746 2.044,1.077 0.644,0.338 1.298,0.696 1.945,1.083 1.287,0.773 2.535,1.644 3.655,2.628 1.124,0.979 2.087,2.1 2.79,3.304 0.678,1.213 1.062,2.515 1.041,3.796 0.013,1.282 -0.366,2.523 -0.896,3.635 -0.538,1.112 -1.209,2.117 -1.93,2.978 -0.316,0.466 -0.787,0.774 -1.049,1.231 -0.305,0.426 -0.586,0.843 -0.872,1.222 -0.579,0.75 -1.1,1.411 -1.552,1.938 -0.897,1.063 -1.436,1.672 -1.436,1.672 0,0 0.181,-0.09 0.518,-0.258 0.332,-0.178 0.853,-0.396 1.457,-0.761 0.621,-0.344 1.365,-0.787 2.189,-1.357 0.412,-0.283 0.836,-0.609 1.296,-0.945 0.226,-0.176 0.426,-0.387 0.602,-0.627 0.188,-0.231 0.396,-0.452 0.585,-0.702 0.797,-0.956 1.572,-2.099 2.216,-3.43 0.632,-1.328 1.122,-2.896 1.111,-4.588 0.028,-1.69 -0.489,-3.416 -1.332,-4.911 C 13.882,19.896 12.745,18.601 11.491,17.505 10.236,16.403 8.881,15.461 7.504,14.634 6.816,14.222 6.118,13.839 5.411,13.47 4.721,13.134 4.047,12.782 3.466,12.443 3.168,12.271 2.854,12.119 2.575,11.937 2.311,11.737 2.048,11.541 1.788,11.346 1.228,10.99 0.869,10.492 0.427,10.083 -0.29,9.155 -0.818,8.189 -0.974,7.2 -1.063,6.707 -1.037,6.23 -1.062,5.766 -1.14,5.297 -1.139,4.835 -1.121,4.39 -1.062,3.506 -0.919,2.698 -0.731,2.048 -0.37,0.733 0,0 0,0"
             style="fill:#000000;fill-opacity:1;fill-rule:nonzero;stroke:none"
             id="path732"
             inkscape:connector-curvature="0" />
        </g>
        <g
           id="g734"
           transform="translate(1073.8672,505.2578)">
          <path
             d="m 0,0 c 0.022,0.012 0.292,0.08 0.805,0.29 0.519,0.2 1.253,0.546 2.086,1.041 0.408,0.259 0.857,0.534 1.282,0.887 0.46,0.319 0.849,0.746 1.295,1.158 0.201,0.222 0.382,0.466 0.58,0.704 l 0.296,0.363 0.237,0.405 c 0.155,0.273 0.333,0.541 0.478,0.826 l 0.346,0.899 c 0.14,0.297 0.201,0.614 0.254,0.934 0.062,0.32 0.124,0.639 0.185,0.955 0.008,0.643 0.038,1.288 0.004,1.912 -0.101,0.622 -0.199,1.224 -0.29,1.794 -0.178,0.556 -0.346,1.082 -0.501,1.566 -0.08,0.245 -0.157,0.478 -0.229,0.7 -0.1,0.211 -0.196,0.411 -0.286,0.599 -0.181,0.378 -0.339,0.706 -0.468,0.978 -0.261,0.544 -0.41,0.855 -0.41,0.855 0,0 0.18,-0.294 0.494,-0.808 0.157,-0.259 0.349,-0.573 0.569,-0.933 0.109,-0.18 0.227,-0.373 0.35,-0.575 C 7.174,14.333 7.275,14.105 7.381,13.867 7.588,13.389 7.828,12.873 8.056,12.315 8.213,11.729 8.378,11.111 8.55,10.472 8.654,9.817 8.696,9.121 8.754,8.415 8.723,8.059 8.691,7.701 8.66,7.342 8.636,6.979 8.601,6.615 8.482,6.268 L 8.19,5.206 C 8.061,4.865 7.894,4.54 7.745,4.208 L 7.516,3.714 7.225,3.266 C 7.027,2.971 6.844,2.667 6.639,2.39 6.19,1.871 5.778,1.333 5.303,0.921 4.857,0.47 4.387,0.108 3.953,-0.232 3.07,-0.887 2.284,-1.36 1.706,-1.655 1.427,-1.807 1.178,-1.921 1.008,-1.998 0.853,-2.067 0.77,-2.104 0.77,-2.104 Z"
             style="fill:#000000;fill-opacity:1;fill-rule:nonzero;stroke:none"
             id="path736"
             inkscape:connector-curvature="0" />
        </g>
        <g
           id="g738"
           transform="translate(1063.3057,452.8779)">
          <path
             d="m 0,0 c 0,0 0.814,0.033 2.198,0.264 1.365,0.248 3.371,0.652 5.361,1.785 0.985,0.564 1.92,1.359 2.575,2.382 0.668,1.022 0.959,2.298 0.979,3.654 0.046,1.377 -0.384,2.749 -0.698,4.375 -0.301,1.666 -0.44,3.333 -0.381,5.046 0.077,1.702 0.388,3.408 0.952,5.016 0.538,1.62 1.425,3.097 2.48,4.346 1.045,1.267 2.358,2.213 3.674,2.893 1.319,0.687 2.675,1.064 3.926,1.248 2.515,0.373 4.588,0.046 5.978,-0.26 0.699,-0.148 1.235,-0.313 1.598,-0.433 0.363,-0.113 0.556,-0.172 0.556,-0.172 0,0 -0.202,0.018 -0.58,0.052 -0.376,0.047 -0.931,0.075 -1.632,0.111 -0.7,0.032 -1.549,0.016 -2.509,-0.032 -0.958,-0.086 -2.029,-0.234 -3.148,-0.528 -2.23,-0.59 -4.643,-1.906 -6.333,-4.128 -0.853,-1.097 -1.499,-2.397 -1.962,-3.794 -0.467,-1.396 -0.713,-2.9 -0.764,-4.421 -0.082,-1.51 0.027,-3.077 0.266,-4.539 C 12.804,11.38 13.194,9.689 13.075,8.022 13,6.363 12.454,4.716 11.494,3.477 10.556,2.221 9.305,1.414 8.134,0.909 6.958,0.382 5.82,0.142 4.823,-0.005 3.823,-0.156 2.948,-0.18 2.232,-0.176 0.8,-0.154 0,0 0,0"
             style="fill:#000000;fill-opacity:1;fill-rule:nonzero;stroke:none"
             id="path740"
             inkscape:connector-curvature="0" />
        </g>
        <g
           id="g742"
           transform="translate(990.7813,634.0186)">
          <path
             d="M 0,0 C 0,0 -1.307,13.159 15.865,17.545 33.037,21.931 0,0 0,0 Z"
             style="fill:none;stroke:#000000;stroke-width:2.24000001;stroke-linecap:butt;stroke-linejoin:miter;stroke-miterlimit:10;stroke-dasharray:none;stroke-opacity:1"
             id="path744"
             inkscape:connector-curvature="0" />
        </g>
        <g
           id="g746"
           transform="translate(987.0576,649.6035)">
          <path
             d="m 0,0 c 0,0 -0.134,0.879 -0.106,2.442 0.013,0.782 0.072,1.732 0.216,2.825 0.091,0.542 0.174,1.127 0.3,1.739 0.156,0.606 0.451,1.19 0.731,1.817 0.536,1.26 1.318,2.555 2.283,3.841 1.046,1.22 2.282,2.483 3.93,3.289 0.377,0.255 0.831,0.364 1.257,0.536 0.437,0.143 0.861,0.358 1.325,0.404 0.458,0.077 0.918,0.156 1.379,0.234 l 0.174,0.028 c 0.058,0.006 -0.007,0.008 0.151,0.016 l 0.08,0.002 0.318,0.007 0.639,0.013 c 0.823,0.056 1.79,-0.054 2.719,-0.127 0.905,-0.118 1.791,-0.25 2.66,-0.424 1.695,-0.355 3.39,-0.71 5.059,-1.059 1.625,-0.27 3.217,-0.476 4.696,-0.344 0.379,-0.014 0.726,0.103 1.083,0.155 0.349,0.084 0.717,0.09 1.042,0.229 0.646,0.273 1.333,0.406 1.892,0.805 0.582,0.34 1.169,0.636 1.645,1.093 0.483,0.435 1.018,0.761 1.402,1.255 0.774,0.949 1.644,1.683 2.35,2.454 0.363,0.375 0.704,0.727 1.018,1.052 0.299,0.342 0.554,0.674 0.796,0.966 0.985,1.181 1.548,1.856 1.548,1.856 0,0 -0.277,-0.827 -0.819,-2.289 -0.14,-0.363 -0.283,-0.773 -0.464,-1.21 C 39.09,21.184 38.858,20.727 38.611,20.239 38.351,19.755 38.11,19.212 37.779,18.68 37.438,18.148 36.905,17.736 36.47,17.204 36.045,16.666 35.416,16.253 34.853,15.757 34.302,15.24 33.596,14.862 32.888,14.455 32.21,13.992 31.368,13.791 30.568,13.474 30.165,13.312 29.725,13.289 29.297,13.191 28.866,13.125 28.43,12.997 27.99,13.007 c -1.774,-0.153 -3.543,0.084 -5.281,0.373 -1.676,0.35 -3.378,0.707 -5.079,1.063 -0.833,0.167 -1.666,0.288 -2.475,0.396 -0.793,0.055 -1.539,0.172 -2.426,0.115 C 11.103,14.986 9.685,14.593 8.383,13.963 7.077,13.337 6.066,12.295 5.179,11.271 4.359,10.169 3.664,9.042 3.183,7.901 2.873,7.366 2.802,6.751 2.511,6.259 2.238,5.755 2.009,5.257 1.778,4.792 1.365,3.843 1.009,2.997 0.749,2.284 0.496,1.571 0.29,1 0.173,0.61 0.049,0.22 0,0 0,0"
             style="fill:#000000;fill-opacity:1;fill-rule:nonzero;stroke:none"
             id="path748"
             inkscape:connector-curvature="0" />
        </g>
        <g
           id="g750"
           transform="translate(1002.3281,650.1328)">
          <path
             d="m 0,0 c 0,0 1.328,0.834 3.455,1.842 1.066,0.499 2.33,1.04 3.739,1.505 0.709,0.22 1.446,0.453 2.229,0.598 0.78,0.151 1.601,0.258 2.507,0.138 l 0.628,-0.178 c 0.074,-0.018 0.227,-0.088 0.235,-0.063 0.036,0.012 0.045,-0.012 0.119,0.005 0.236,0.018 0.529,0.149 0.805,0.332 0.55,0.388 1.076,0.894 1.532,1.431 0.925,1.073 1.695,2.189 2.35,3.146 0.643,0.967 1.188,1.776 1.543,2.358 0.366,0.578 0.575,0.909 0.575,0.909 0,0 -0.5,-1.489 -1.565,-3.594 C 17.611,7.381 16.932,6.178 16.011,4.983 15.544,4.394 15.029,3.785 14.326,3.285 13.968,3.045 13.55,2.811 13.012,2.751 12.894,2.725 12.709,2.745 12.551,2.764 12.361,2.786 12.338,2.819 12.224,2.846 l -0.036,0.01 -0.076,0.028 -0.013,0.003 -0.054,0.012 -0.107,0.025 -0.21,0.058 C 11.09,3.076 10.34,3.017 9.617,2.882 8.892,2.753 8.169,2.59 7.477,2.404 6.088,2.029 4.799,1.608 3.692,1.247 1.477,0.499 0,0 0,0"
             style="fill:#000000;fill-opacity:1;fill-rule:nonzero;stroke:none"
             id="path752"
             inkscape:connector-curvature="0" />
        </g>
        <g
           id="g754"
           transform="translate(1015.9316,618.48)">
          <path
             d="M 0,0 C 0,0 10.639,13.999 35.836,4.34 44.096,-4.199 10.359,7.28 8.539,-7.699"
             style="fill:none;stroke:#000000;stroke-width:2.24000001;stroke-linecap:butt;stroke-linejoin:miter;stroke-miterlimit:10;stroke-dasharray:none;stroke-opacity:1"
             id="path756"
             inkscape:connector-curvature="0" />
        </g>
        <g
           id="g758"
           transform="translate(1042.5859,625.4849)">
          <path
             d="M 0,0 C 0,0 1.094,0.026 2.972,0.257 3.904,0.381 5.05,0.548 6.268,0.938 6.865,1.137 7.501,1.403 7.974,1.794 8.446,2.19 8.661,2.579 8.435,3.204 8.33,3.504 8.121,3.81 7.891,4.186 7.664,4.541 7.438,4.911 7.218,5.313 6.765,6.102 6.356,6.923 5.97,7.795 c -0.767,1.74 -1.439,3.653 -1.766,5.739 -0.122,1.049 -0.232,2.133 -0.066,3.243 0.104,1.105 0.496,2.236 1.164,3.202 l 0.541,0.701 0.672,0.577 0.341,0.283 0.384,0.212 0.772,0.421 c 0.564,0.224 1.006,0.41 1.565,0.58 0.556,0.155 1.112,0.323 1.677,0.394 2.217,0.413 4.742,0.056 6.591,-1.43 1.843,-1.507 2.605,-3.915 2.529,-6.037 l -0.036,-0.801 c -0.018,-0.327 -0.066,-0.515 -0.106,-0.786 -0.129,-0.582 -0.328,-1.105 -0.64,-1.592 -0.644,-0.98 -1.779,-1.532 -2.819,-1.622 -2.106,-0.164 -3.949,0.685 -5.246,1.927 -0.619,0.634 -1.182,1.468 -1.162,2.426 0.022,0.465 0.143,0.912 0.355,1.274 0.217,0.363 0.371,0.593 0.591,0.892 0.414,0.577 0.87,1.053 1.404,1.406 0.508,0.353 1.27,0.495 1.744,0.128 0.456,-0.326 0.652,-0.762 0.768,-1.12 0.118,-0.364 0.17,-0.68 0.199,-0.936 0.058,-0.511 0.055,-0.783 0.055,-0.783 0,0 -0.037,0.272 -0.167,0.761 -0.063,0.244 -0.16,0.542 -0.319,0.862 -0.152,0.317 -0.397,0.669 -0.747,0.855 -0.739,0.397 -1.652,-0.563 -2.224,-1.615 -0.145,-0.252 -0.327,-0.619 -0.437,-0.876 -0.114,-0.264 -0.141,-0.544 -0.122,-0.819 0.066,-0.542 0.326,-1.161 0.856,-1.665 1.017,-1.003 2.697,-1.753 4.333,-1.603 0.813,0.08 1.555,0.459 2.007,1.131 0.219,0.339 0.371,0.754 0.466,1.147 0.033,0.222 0.096,0.528 0.096,0.705 l 0.031,0.719 c 0.064,1.912 -0.608,3.913 -2.117,5.154 -1.52,1.221 -3.683,1.57 -5.701,1.193 -0.517,-0.063 -1,-0.215 -1.491,-0.347 C 9.467,21.556 8.902,21.322 8.465,21.149 L 7.814,20.791 7.488,20.615 7.211,20.38 6.656,19.911 6.22,19.337 C 5.678,18.551 5.339,17.616 5.249,16.637 5.1,15.668 5.2,14.668 5.312,13.701 5.615,11.758 6.256,9.92 6.993,8.25 7.362,7.417 7.765,6.609 8.186,5.875 8.386,5.506 8.61,5.14 8.84,4.781 9.049,4.434 9.32,4.051 9.489,3.58 9.652,3.118 9.717,2.554 9.539,2.034 9.365,1.515 8.997,1.13 8.633,0.896 7.887,0.43 7.154,0.253 6.48,0.112 5.126,-0.142 3.957,-0.161 2.998,-0.17 2.039,-0.174 1.289,-0.113 0.779,-0.075 0.271,-0.026 0,0 0,0"
             style="fill:#000000;fill-opacity:1;fill-rule:nonzero;stroke:none"
             id="path760"
             inkscape:connector-curvature="0" />
        </g>
        <g
           id="g762"
           transform="translate(997.2207,616.2871)">
          <path
             d="m 0,0 c 0,0 -0.148,0.141 -0.375,0.473 -0.217,0.328 -0.527,0.821 -0.83,1.499 -0.296,0.68 -0.612,1.535 -0.806,2.58 -0.097,0.524 -0.137,1.094 -0.142,1.709 0.03,0.305 0.081,0.618 0.145,0.935 0.1,0.31 0.202,0.627 0.307,0.95 0.492,1.28 1.514,2.463 2.815,3.251 l 0.239,0.162 c 0.164,0.101 0.185,0.093 0.286,0.146 l 0.494,0.233 c 0.171,0.074 0.32,0.164 0.513,0.227 l 0.604,0.172 c 0.203,0.055 0.407,0.115 0.613,0.161 l 0.616,0.061 c 0.206,0.016 0.414,0.045 0.622,0.049 l 0.627,-0.042 c 1.68,-0.128 3.318,-0.826 4.694,-1.864 1.371,-1.049 2.519,-2.445 3.184,-4.12 0.29,-0.845 0.529,-1.774 0.318,-2.739 L 13.898,3.664 C 13.887,3.618 13.903,3.642 13.87,3.538 L 13.846,3.465 13.741,3.166 C 13.627,2.914 13.497,2.673 13.351,2.487 13.055,2.097 12.698,1.767 12.311,1.521 10.745,0.539 8.993,0.332 7.36,0.386 5.741,0.5 4.063,0.852 2.861,2.106 2.264,2.744 2.011,3.67 2.162,4.52 2.28,5.14 2.468,5.89 2.773,6.493 3.058,7.102 3.396,7.674 3.84,8.119 4.311,8.538 4.786,8.909 5.333,9.11 6.396,9.611 7.604,9.222 8.086,8.602 8.592,7.993 8.753,7.409 8.838,7.029 8.917,6.645 8.959,6.439 8.959,6.439 c 0,0 -0.08,0.193 -0.229,0.553 C 8.588,7.344 8.295,7.858 7.798,8.299 7.288,8.729 6.452,8.854 5.698,8.354 4.948,7.877 4.301,7.029 3.788,6.019 3.53,5.505 3.396,4.985 3.258,4.289 3.191,3.814 3.305,3.262 3.697,2.852 4.488,1.988 5.974,1.583 7.416,1.505 c 1.451,-0.06 3.055,0.17 4.276,0.95 0.305,0.191 0.556,0.435 0.757,0.697 0.11,0.14 0.168,0.266 0.236,0.385 l 0.099,0.286 0.026,0.073 C 12.795,3.841 12.809,3.923 12.809,3.923 l 0.014,0.129 C 12.985,4.724 12.8,5.483 12.559,6.188 11.42,9.037 8.498,11.239 5.64,11.45 L 5.105,11.488 C 4.93,11.484 4.754,11.457 4.58,11.443 L 4.059,11.396 3.579,11.267 3.104,11.144 C 2.944,11.096 2.772,10.995 2.608,10.924 L 2.114,10.691 C 2.055,10.66 1.9,10.598 1.919,10.593 L 1.714,10.451 C 0.574,9.758 -0.252,8.786 -0.661,7.732 -0.744,7.461 -0.834,7.199 -0.901,6.938 -0.936,6.666 -0.98,6.404 -1.044,6.149 -1.123,5.628 -1.174,5.122 -1.161,4.636 -1.143,3.666 -0.979,2.81 -0.802,2.116 -0.609,1.426 -0.424,0.888 -0.271,0.529 -0.123,0.177 0,0 0,0"
             style="fill:#000000;fill-opacity:1;fill-rule:nonzero;stroke:none"
             id="path764"
             inkscape:connector-curvature="0" />
        </g>
        <g
           id="g766"
           transform="translate(1080.332,666.4756)">
          <path
             d="m 0,0 c 0,0 -13.492,11.708 -14.612,30.455 -1.12,18.746 -23.668,-1.972 -23.668,-1.972 0,0 14.149,43.83 51.105,45.059 36.956,1.229 35.463,-30.5 35.463,-30.5 0,0 70.739,-15.042 66.633,42.874 0,0 25.419,-58.602 -90.15,-73.858"
             style="fill:none;stroke:#000000;stroke-width:2.24000001;stroke-linecap:butt;stroke-linejoin:miter;stroke-miterlimit:10;stroke-dasharray:none;stroke-opacity:1"
             id="path768"
             inkscape:connector-curvature="0" />
        </g>
        <g
           id="g770"
           transform="translate(1189.3203,386.6631)">
          <path
             d="M 0,0 C 0,0 23.565,24.877 35.05,19.091 51.967,10.567 73.027,-1.752 73.916,28.312"
             style="fill:none;stroke:#000000;stroke-width:3.3599999;stroke-linecap:butt;stroke-linejoin:miter;stroke-miterlimit:10;stroke-dasharray:none;stroke-opacity:1"
             id="path772"
             inkscape:connector-curvature="0" />
        </g>
        <g
           id="g774"
           transform="translate(1187.041,368.3262)">
          <path
             d="m 0,0 c 0,0 40.129,-33.316 69.806,-27.437 29.676,5.879 3.783,78.162 44.447,43.701"
             style="fill:none;stroke:#000000;stroke-width:3.3599999;stroke-linecap:butt;stroke-linejoin:miter;stroke-miterlimit:10;stroke-dasharray:none;stroke-opacity:1"
             id="path776"
             inkscape:connector-curvature="0" />
        </g>
        <g
           id="g778"
           transform="translate(1248.4473,340.1934)">
          <path
             d="m 0,0 c 0,0 27.997,-37.1 50.115,-25.062 22.117,12.04 29.784,1.58 29.784,1.58"
             style="fill:none;stroke:#000000;stroke-width:3.3599999;stroke-linecap:butt;stroke-linejoin:miter;stroke-miterlimit:10;stroke-dasharray:none;stroke-opacity:1"
             id="path780"
             inkscape:connector-curvature="0" />
        </g>
        <g
           id="g782"
           transform="translate(1186.5059,369.54)">
          <path
             d="m 0,0 c 0,0 -16.45,-58.048 24.426,-71.486 40.875,-13.439 57.636,22.574 57.636,22.574"
             style="fill:none;stroke:#000000;stroke-width:3.3599999;stroke-linecap:butt;stroke-linejoin:miter;stroke-miterlimit:10;stroke-dasharray:none;stroke-opacity:1"
             id="path784"
             inkscape:connector-curvature="0" />
        </g>
        <g
           id="g786"
           transform="translate(1283.8857,260.9727)">
          <path
             d="M 0,0 C -20.557,0.715 -39.719,37.016 -39.719,37.016"
             style="fill:none;stroke:#000000;stroke-width:3.3599999;stroke-linecap:butt;stroke-linejoin:miter;stroke-miterlimit:10;stroke-dasharray:none;stroke-opacity:1"
             id="path788"
             inkscape:connector-curvature="0" />
        </g>
        <g
           id="g790"
           transform="translate(1240.9639,296.8682)">
          <path
             d="m 0,0 c 0,0 5.804,-8.054 3.563,-10.153 -2.239,-2.1 -6.579,-2.24 -8.398,3.639 l -3.08,-0.979 c 0,0 -0.297,-9.799 -7.148,-8.329 -6.85,1.469 -4.26,7.279 -4.26,7.279 l -5.6,0.069 c 0,0 -3.337,-9.005 -8.096,-5.459 -4.759,3.547 -2.986,6.999 -2.986,6.999 l -4.573,1.774 c 0,0 -6.066,-6.067 -8.959,0.746 -2.894,6.813 1.587,6.066 1.587,6.066 l -2.988,4.76 c 0,0 -5.931,0.093 -6.791,5.6 -0.861,5.506 4.552,7.185 4.552,7.185"
             style="fill:none;stroke:#000000;stroke-width:2.24000001;stroke-linecap:butt;stroke-linejoin:miter;stroke-miterlimit:10;stroke-dasharray:none;stroke-opacity:1"
             id="path792"
             inkscape:connector-curvature="0" />
        </g>
        <g
           id="g794"
           transform="translate(998.0342,642.4175)">
          <path
             d="m 0,0 c 0,-1.353 -1.097,-2.45 -2.449,-2.45 -1.354,0 -2.45,1.097 -2.45,2.45 0,1.353 1.096,2.45 2.45,2.45 C -1.097,2.45 0,1.353 0,0"
             style="fill:#000000;fill-opacity:1;fill-rule:nonzero;stroke:none"
             id="path796"
             inkscape:connector-curvature="0" />
        </g>
      </g>
    </g>
  </g>
</svg>
